<svg width="96" height="65" viewBox="0 0 96 65" fill="none" xmlns="http://www.w3.org/2000/svg">
<path d="M58.9257 22.936H36.9998C37.2176 20.9522 37.9102 19.0501 39.0188 17.3906C39.8713 16.0734 41.0154 14.97 42.3625 14.1656L42.737 13.9555L40.8916 10.8402C40.8276 10.7347 40.8079 10.6082 40.837 10.4883C40.8662 10.3684 40.9416 10.265 41.0469 10.2007C41.099 10.1696 41.1567 10.1491 41.2167 10.1406C41.2768 10.132 41.3379 10.1355 41.3966 10.1508C41.4552 10.1661 41.5103 10.1929 41.5585 10.2297C41.6067 10.2665 41.6471 10.3126 41.6773 10.3651L43.5775 13.5627C44.9832 13.001 46.4857 12.7216 47.9993 12.7404C49.4861 12.7223 50.9616 13.0019 52.3388 13.5627L54.2299 10.3651C54.2608 10.3121 54.3022 10.2658 54.3515 10.2291C54.4007 10.1924 54.4569 10.166 54.5166 10.1515C54.5763 10.137 54.6383 10.1347 54.6989 10.1447C54.7596 10.1547 54.8175 10.1769 54.8694 10.2098C54.9731 10.2756 55.0467 10.3797 55.0741 10.4995C55.1015 10.6193 55.0804 10.745 55.0156 10.8493L53.1701 13.9738L53.6269 14.2296C54.9695 15.0654 56.1037 16.1965 56.9432 17.5367C57.992 19.1693 58.6688 21.0126 58.9257 22.936ZM52.0738 18.8431C52.0738 19.0854 52.1701 19.3178 52.3414 19.4891C52.5127 19.6605 52.7451 19.7567 52.9874 19.7567C53.2297 19.7567 53.4621 19.6605 53.6334 19.4891C53.8047 19.3178 53.901 19.0854 53.901 18.8431C53.901 18.6009 53.8047 18.3685 53.6334 18.1971C53.4621 18.0258 53.2297 17.9296 52.9874 17.9296C52.7451 17.9296 52.5127 18.0258 52.3414 18.1971C52.1701 18.3685 52.0738 18.6009 52.0738 18.8431ZM42.0244 18.8431C42.0244 19.0854 42.1207 19.3178 42.292 19.4891C42.4634 19.6605 42.6957 19.7567 42.938 19.7567C43.1803 19.7567 43.4127 19.6605 43.584 19.4891C43.7554 19.3178 43.8516 19.0854 43.8516 18.8431C43.8516 18.6009 43.7554 18.3685 43.584 18.1971C43.4127 18.0258 43.1803 17.9296 42.938 17.9296C42.6957 17.9296 42.4634 18.0258 42.292 18.1971C42.1207 18.3685 42.0244 18.6009 42.0244 18.8431Z" fill="#111217"/>
<path d="M19.8864 58.5359H18.4091L22.6818 46.8995H24.1364L28.4091 58.5359H26.9318L23.4545 48.7404H23.3636L19.8864 58.5359ZM20.4318 53.9904H26.3864V55.2404H20.4318V53.9904ZM31.3807 53.2859V58.5359H30.0398V49.8086H31.3352V51.1723H31.4489C31.6534 50.7291 31.964 50.373 32.3807 50.1041C32.7973 49.8313 33.3352 49.695 33.9943 49.695C34.5852 49.695 35.1023 49.8162 35.5455 50.0586C35.9886 50.2973 36.3333 50.6609 36.5795 51.1495C36.8258 51.6344 36.9489 52.248 36.9489 52.9904V58.5359H35.608V53.0813C35.608 52.3957 35.4299 51.8616 35.0739 51.4791C34.7178 51.0927 34.2292 50.8995 33.608 50.8995C33.1799 50.8995 32.7973 50.9923 32.4602 51.1779C32.1269 51.3635 31.8636 51.6344 31.6705 51.9904C31.4773 52.3465 31.3807 52.7783 31.3807 53.2859ZM42.6946 58.7177C41.9673 58.7177 41.3253 58.534 40.7685 58.1666C40.2116 57.7954 39.776 57.2726 39.4616 56.5984C39.1473 55.9204 38.9901 55.1192 38.9901 54.195C38.9901 53.2783 39.1473 52.4829 39.4616 51.8086C39.776 51.1344 40.2135 50.6135 40.7741 50.2461C41.3348 49.8787 41.9825 49.695 42.7173 49.695C43.2855 49.695 43.7344 49.7897 44.0639 49.9791C44.3973 50.1647 44.651 50.3768 44.8253 50.6154C45.0033 50.8503 45.1416 51.0435 45.2401 51.195H45.3537V46.8995H46.6946V58.5359H45.3991V57.195H45.2401C45.1416 57.3541 45.0014 57.5548 44.8196 57.7973C44.6378 58.0359 44.3783 58.2499 44.0412 58.4393C43.7041 58.6249 43.2552 58.7177 42.6946 58.7177ZM42.8764 57.5132C43.4143 57.5132 43.8688 57.373 44.2401 57.0927C44.6113 56.8086 44.8935 56.4166 45.0866 55.9166C45.2798 55.4128 45.3764 54.8313 45.3764 54.1723C45.3764 53.5207 45.2817 52.9507 45.0923 52.462C44.9029 51.9696 44.6226 51.587 44.2514 51.3143C43.8802 51.0378 43.4219 50.8995 42.8764 50.8995C42.3082 50.8995 41.8348 51.0454 41.456 51.337C41.081 51.6249 40.7988 52.0169 40.6094 52.5132C40.4238 53.0056 40.331 53.5586 40.331 54.1723C40.331 54.7935 40.4257 55.3579 40.6151 55.8654C40.8082 56.3692 41.0923 56.7707 41.4673 57.07C41.8461 57.3654 42.3158 57.5132 42.8764 57.5132ZM49.3366 58.5359V49.8086H50.6321V51.1268H50.723C50.8821 50.695 51.17 50.3446 51.5866 50.0757C52.0033 49.8067 52.473 49.6723 52.9957 49.6723C53.0942 49.6723 53.2173 49.6741 53.3651 49.6779C53.5128 49.6817 53.6245 49.6874 53.7003 49.695V51.0586C53.6548 51.0473 53.5507 51.0302 53.3878 51.0075C53.2287 50.981 53.0601 50.9677 52.8821 50.9677C52.4579 50.9677 52.0791 51.0567 51.7457 51.2348C51.4162 51.409 51.1548 51.6514 50.9616 51.962C50.7723 52.2688 50.6776 52.6192 50.6776 53.0132V58.5359H49.3366ZM55.2898 58.5359V49.8086H56.6307V58.5359H55.2898ZM55.9716 48.3541C55.7102 48.3541 55.4848 48.2651 55.2955 48.087C55.1098 47.909 55.017 47.695 55.017 47.445C55.017 47.195 55.1098 46.981 55.2955 46.8029C55.4848 46.6249 55.7102 46.5359 55.9716 46.5359C56.233 46.5359 56.4564 46.6249 56.642 46.8029C56.8314 46.981 56.9261 47.195 56.9261 47.445C56.9261 47.695 56.8314 47.909 56.642 48.087C56.4564 48.2651 56.233 48.3541 55.9716 48.3541ZM62.6321 58.7177C61.8442 58.7177 61.1529 58.5302 60.5582 58.1552C59.9673 57.7802 59.5052 57.2556 59.1719 56.5813C58.8423 55.9071 58.6776 55.1192 58.6776 54.2177C58.6776 53.3086 58.8423 52.5151 59.1719 51.837C59.5052 51.159 59.9673 50.6325 60.5582 50.2575C61.1529 49.8825 61.8442 49.695 62.6321 49.695C63.42 49.695 64.1094 49.8825 64.7003 50.2575C65.295 50.6325 65.7571 51.159 66.0866 51.837C66.42 52.5151 66.5866 53.3086 66.5866 54.2177C66.5866 55.1192 66.42 55.9071 66.0866 56.5813C65.7571 57.2556 65.295 57.7802 64.7003 58.1552C64.1094 58.5302 63.42 58.7177 62.6321 58.7177ZM62.6321 57.5132C63.2306 57.5132 63.723 57.3598 64.1094 57.0529C64.4957 56.7461 64.7817 56.3427 64.9673 55.8427C65.1529 55.3427 65.2457 54.801 65.2457 54.2177C65.2457 53.6344 65.1529 53.0908 64.9673 52.587C64.7817 52.0832 64.4957 51.676 64.1094 51.3654C63.723 51.0548 63.2306 50.8995 62.6321 50.8995C62.0336 50.8995 61.5412 51.0548 61.1548 51.3654C60.7685 51.676 60.4825 52.0832 60.2969 52.587C60.1113 53.0908 60.0185 53.6344 60.0185 54.2177C60.0185 54.801 60.1113 55.3427 60.2969 55.8427C60.4825 56.3427 60.7685 56.7461 61.1548 57.0529C61.5412 57.3598 62.0336 57.5132 62.6321 57.5132ZM71.929 58.7177C71.2017 58.7177 70.5597 58.534 70.0028 58.1666C69.446 57.7954 69.0104 57.2726 68.696 56.5984C68.3816 55.9204 68.2244 55.1192 68.2244 54.195C68.2244 53.2783 68.3816 52.4829 68.696 51.8086C69.0104 51.1344 69.4479 50.6135 70.0085 50.2461C70.5691 49.8787 71.2169 49.695 71.9517 49.695C72.5199 49.695 72.9688 49.7897 73.2983 49.9791C73.6316 50.1647 73.8854 50.3768 74.0597 50.6154C74.2377 50.8503 74.3759 51.0435 74.4744 51.195H74.5881V46.8995H75.929V58.5359H74.6335V57.195H74.4744C74.3759 57.3541 74.2358 57.5548 74.054 57.7973C73.8722 58.0359 73.6127 58.2499 73.2756 58.4393C72.9384 58.6249 72.4896 58.7177 71.929 58.7177ZM72.1108 57.5132C72.6487 57.5132 73.1032 57.373 73.4744 57.0927C73.8456 56.8086 74.1278 56.4166 74.321 55.9166C74.5142 55.4128 74.6108 54.8313 74.6108 54.1723C74.6108 53.5207 74.5161 52.9507 74.3267 52.462C74.1373 51.9696 73.857 51.587 73.4858 51.3143C73.1146 51.0378 72.6563 50.8995 72.1108 50.8995C71.5426 50.8995 71.0691 51.0454 70.6903 51.337C70.3153 51.6249 70.0331 52.0169 69.8438 52.5132C69.6581 53.0056 69.5653 53.5586 69.5653 54.1723C69.5653 54.7935 69.66 55.3579 69.8494 55.8654C70.0426 56.3692 70.3267 56.7707 70.7017 57.07C71.0805 57.3654 71.5502 57.5132 72.1108 57.5132Z" fill="#111217"/>
</svg>
