<svg width="96" height="65" viewBox="0 0 96 65" fill="none" xmlns="http://www.w3.org/2000/svg">
<path d="M43.2804 27.5446C42.8377 27.2495 42.4446 26.8861 42.1157 26.468C41.7572 26.0345 41.4248 25.5786 41.1196 25.1067C40.4029 24.0583 39.8416 22.9118 39.4532 21.7027C38.9851 20.2965 38.7576 18.9503 38.7576 17.633C38.7576 16.1632 39.0759 14.8806 39.6956 13.804C40.1578 12.9604 40.8364 12.2553 41.6617 11.7612C42.4613 11.2652 43.3797 10.9935 44.3205 10.9748C44.6482 10.9748 45.0039 11.0216 45.3784 11.1152C45.6499 11.1901 45.9776 11.3118 46.3801 11.4616C46.895 11.6582 47.1759 11.7799 47.2695 11.808C47.5691 11.9203 47.8219 11.9671 48.0185 11.9671C48.1683 11.9671 48.3836 11.9203 48.6223 11.8454C48.7581 11.7986 49.0155 11.7144 49.3807 11.5552C49.742 11.4241 50.0285 11.3118 50.256 11.2275C50.6024 11.1245 50.9376 11.0309 51.239 10.9841C51.6041 10.9279 51.9665 10.9092 52.3138 10.9373C52.9785 10.9841 53.587 11.1245 54.13 11.3305C55.0849 11.7144 55.8554 12.3135 56.4303 13.1655C56.1869 13.3153 55.9622 13.4894 55.7515 13.6804C55.2956 14.0829 54.9089 14.5604 54.6 15.0894C54.1985 15.8104 53.9908 16.6233 53.9971 17.4486C54.0111 18.4625 54.2686 19.3538 54.7835 20.1261C55.1585 20.6989 55.6473 21.1884 56.2196 21.5641C56.5098 21.7607 56.7645 21.8965 57.006 21.9854C56.8937 22.3365 56.7701 22.6782 56.6269 23.0153C56.302 23.7708 55.9154 24.4945 55.4566 25.1779C55.0522 25.7677 54.7339 26.2077 54.4923 26.4979C54.116 26.9473 53.7527 27.2843 53.3876 27.5249C52.985 27.7918 52.5123 27.9331 52.0282 27.9331C51.7006 27.9472 51.3729 27.905 51.0602 27.8142C50.7887 27.7253 50.521 27.6251 50.2588 27.5118C49.9841 27.3862 49.701 27.2798 49.4116 27.1935C49.0558 27.1005 48.6895 27.0542 48.3218 27.0559C47.9473 27.0559 47.5822 27.1027 47.2358 27.1917C46.9456 27.274 46.6647 27.3751 46.3867 27.4959C45.9935 27.6598 45.736 27.7674 45.5862 27.8142C45.2844 27.9035 44.9735 27.9585 44.6594 27.9781C44.1726 27.9781 43.7194 27.8376 43.2682 27.5568L43.2804 27.5446ZM49.6971 10.2623C49.0605 10.5806 48.4557 10.7154 47.85 10.6705C47.7563 10.0657 47.85 9.44406 48.1027 8.76344C48.3274 8.183 48.627 7.65872 49.0389 7.19062C49.4696 6.7038 49.9845 6.30123 50.565 6.01101C51.1828 5.6927 51.7727 5.52418 52.3344 5.49609C52.4093 6.13271 52.3344 6.75997 52.1003 7.43403C51.8849 8.03281 51.5682 8.59014 51.1641 9.08175C50.7569 9.56858 50.2513 9.97114 49.6793 10.2614L49.6971 10.2623Z" fill="black"/>
<path d="M11.8864 58.5359H10.4091L14.6818 46.8995H16.1364L20.4091 58.5359H18.9318L15.4545 48.7404H15.3636L11.8864 58.5359ZM12.4318 53.9904H18.3864V55.2404H12.4318V53.9904ZM22.0398 61.8086V49.8086H23.3352V51.195H23.4943C23.5928 51.0435 23.7292 50.8503 23.9034 50.6154C24.0814 50.3768 24.3352 50.1647 24.6648 49.9791C24.9981 49.7897 25.4489 49.695 26.017 49.695C26.7519 49.695 27.3996 49.8787 27.9602 50.2461C28.5208 50.6135 28.9583 51.1344 29.2727 51.8086C29.5871 52.4829 29.7443 53.2783 29.7443 54.195C29.7443 55.1192 29.5871 55.9204 29.2727 56.5984C28.9583 57.2726 28.5227 57.7954 27.9659 58.1666C27.4091 58.534 26.767 58.7177 26.0398 58.7177C25.4792 58.7177 25.0303 58.6249 24.6932 58.4393C24.3561 58.2499 24.0966 58.0359 23.9148 57.7973C23.733 57.5548 23.5928 57.3541 23.4943 57.195H23.3807V61.8086H22.0398ZM23.358 54.1723C23.358 54.8313 23.4545 55.4128 23.6477 55.9166C23.8409 56.4166 24.1231 56.8086 24.4943 57.0927C24.8655 57.373 25.3201 57.5132 25.858 57.5132C26.4186 57.5132 26.8864 57.3654 27.2614 57.07C27.6402 56.7707 27.9242 56.3692 28.1136 55.8654C28.3068 55.3579 28.4034 54.7935 28.4034 54.1723C28.4034 53.5586 28.3087 53.0056 28.1193 52.5132C27.9337 52.0169 27.6515 51.6249 27.2727 51.337C26.8977 51.0454 26.4261 50.8995 25.858 50.8995C25.3125 50.8995 24.8542 51.0378 24.483 51.3143C24.1117 51.587 23.8314 51.9696 23.642 52.462C23.4527 52.9507 23.358 53.5207 23.358 54.1723ZM31.7898 61.8086V49.8086H33.0852V51.195H33.2443C33.3428 51.0435 33.4792 50.8503 33.6534 50.6154C33.8314 50.3768 34.0852 50.1647 34.4148 49.9791C34.7481 49.7897 35.1989 49.695 35.767 49.695C36.5019 49.695 37.1496 49.8787 37.7102 50.2461C38.2708 50.6135 38.7083 51.1344 39.0227 51.8086C39.3371 52.4829 39.4943 53.2783 39.4943 54.195C39.4943 55.1192 39.3371 55.9204 39.0227 56.5984C38.7083 57.2726 38.2727 57.7954 37.7159 58.1666C37.1591 58.534 36.517 58.7177 35.7898 58.7177C35.2292 58.7177 34.7803 58.6249 34.4432 58.4393C34.1061 58.2499 33.8466 58.0359 33.6648 57.7973C33.483 57.5548 33.3428 57.3541 33.2443 57.195H33.1307V61.8086H31.7898ZM33.108 54.1723C33.108 54.8313 33.2045 55.4128 33.3977 55.9166C33.5909 56.4166 33.8731 56.8086 34.2443 57.0927C34.6155 57.373 35.0701 57.5132 35.608 57.5132C36.1686 57.5132 36.6364 57.3654 37.0114 57.07C37.3902 56.7707 37.6742 56.3692 37.8636 55.8654C38.0568 55.3579 38.1534 54.7935 38.1534 54.1723C38.1534 53.5586 38.0587 53.0056 37.8693 52.5132C37.6837 52.0169 37.4015 51.6249 37.0227 51.337C36.6477 51.0454 36.1761 50.8995 35.608 50.8995C35.0625 50.8995 34.6042 51.0378 34.233 51.3143C33.8617 51.587 33.5814 51.9696 33.392 52.462C33.2027 52.9507 33.108 53.5207 33.108 54.1723ZM52.5852 49.8086C52.517 49.2329 52.2405 48.7859 51.7557 48.4677C51.2708 48.1495 50.6761 47.9904 49.9716 47.9904C49.4564 47.9904 49.0057 48.0738 48.6193 48.2404C48.2367 48.4071 47.9375 48.6363 47.7216 48.9279C47.5095 49.2196 47.4034 49.551 47.4034 49.9223C47.4034 50.2329 47.4773 50.4999 47.625 50.7234C47.7765 50.9431 47.9697 51.1268 48.2045 51.2745C48.4394 51.4185 48.6856 51.5378 48.9432 51.6325C49.2008 51.7234 49.4375 51.7973 49.6534 51.8541L50.8352 52.1723C51.1383 52.2518 51.4754 52.3616 51.8466 52.5018C52.2216 52.6419 52.5795 52.8332 52.9205 53.0757C53.2652 53.3143 53.5492 53.6211 53.7727 53.9961C53.9962 54.3711 54.108 54.8313 54.108 55.3768C54.108 56.0056 53.9432 56.5738 53.6136 57.0813C53.2879 57.5889 52.8106 57.9923 52.1818 58.2916C51.5568 58.5908 50.7973 58.7404 49.9034 58.7404C49.0701 58.7404 48.3485 58.606 47.7386 58.337C47.1326 58.0681 46.6553 57.6931 46.3068 57.212C45.9621 56.731 45.767 56.1723 45.7216 55.5359H47.1761C47.214 55.9753 47.3617 56.3389 47.6193 56.6268C47.8807 56.9109 48.2102 57.123 48.608 57.2632C49.0095 57.3995 49.4413 57.4677 49.9034 57.4677C50.4413 57.4677 50.9242 57.3806 51.3523 57.2063C51.7803 57.0283 52.1193 56.7821 52.3693 56.4677C52.6193 56.1495 52.7443 55.7783 52.7443 55.3541C52.7443 54.9677 52.6364 54.6533 52.4205 54.4109C52.2045 54.1685 51.9205 53.9715 51.5682 53.82C51.2159 53.6685 50.8352 53.5359 50.4261 53.4223L48.9943 53.0132C48.0852 52.7518 47.3655 52.3787 46.8352 51.8938C46.3049 51.409 46.0398 50.7745 46.0398 49.9904C46.0398 49.3389 46.2159 48.7707 46.5682 48.2859C46.9242 47.7973 47.4015 47.4185 48 47.1495C48.6023 46.8768 49.2746 46.7404 50.017 46.7404C50.767 46.7404 51.4337 46.8749 52.017 47.1438C52.6004 47.409 53.0625 47.7726 53.4034 48.2348C53.7481 48.6969 53.9299 49.2215 53.9489 49.8086H52.5852ZM60.0384 49.8086V50.945H55.5156V49.8086H60.0384ZM56.8338 47.7177H58.1747V56.0359C58.1747 56.4147 58.2296 56.6988 58.3395 56.8882C58.4531 57.0738 58.5971 57.1988 58.7713 57.2632C58.9493 57.3238 59.1368 57.3541 59.3338 57.3541C59.4815 57.3541 59.6027 57.3465 59.6974 57.3313C59.7921 57.3124 59.8679 57.2973 59.9247 57.2859L60.1974 58.4904C60.1065 58.5245 59.9796 58.5586 59.8168 58.5927C59.6539 58.6306 59.4474 58.6495 59.1974 58.6495C58.8187 58.6495 58.4474 58.5681 58.0838 58.4052C57.724 58.2423 57.4247 57.9942 57.1861 57.6609C56.9512 57.3276 56.8338 56.9071 56.8338 56.3995V47.7177ZM65.5071 58.7177C64.7192 58.7177 64.0279 58.5302 63.4332 58.1552C62.8423 57.7802 62.3802 57.2556 62.0469 56.5813C61.7173 55.9071 61.5526 55.1192 61.5526 54.2177C61.5526 53.3086 61.7173 52.5151 62.0469 51.837C62.3802 51.159 62.8423 50.6325 63.4332 50.2575C64.0279 49.8825 64.7192 49.695 65.5071 49.695C66.295 49.695 66.9844 49.8825 67.5753 50.2575C68.17 50.6325 68.6321 51.159 68.9616 51.837C69.295 52.5151 69.4616 53.3086 69.4616 54.2177C69.4616 55.1192 69.295 55.9071 68.9616 56.5813C68.6321 57.2556 68.17 57.7802 67.5753 58.1552C66.9844 58.5302 66.295 58.7177 65.5071 58.7177ZM65.5071 57.5132C66.1056 57.5132 66.598 57.3598 66.9844 57.0529C67.3707 56.7461 67.6567 56.3427 67.8423 55.8427C68.0279 55.3427 68.1207 54.801 68.1207 54.2177C68.1207 53.6344 68.0279 53.0908 67.8423 52.587C67.6567 52.0832 67.3707 51.676 66.9844 51.3654C66.598 51.0548 66.1056 50.8995 65.5071 50.8995C64.9086 50.8995 64.4162 51.0548 64.0298 51.3654C63.6435 51.676 63.3575 52.0832 63.1719 52.587C62.9863 53.0908 62.8935 53.6344 62.8935 54.2177C62.8935 54.801 62.9863 55.3427 63.1719 55.8427C63.3575 56.3427 63.6435 56.7461 64.0298 57.0529C64.4162 57.3598 64.9086 57.5132 65.5071 57.5132ZM71.5085 58.5359V49.8086H72.804V51.1268H72.8949C73.054 50.695 73.3419 50.3446 73.7585 50.0757C74.1752 49.8067 74.6449 49.6723 75.1676 49.6723C75.2661 49.6723 75.3892 49.6741 75.5369 49.6779C75.6847 49.6817 75.7964 49.6874 75.8722 49.695V51.0586C75.8267 51.0473 75.7225 51.0302 75.5597 51.0075C75.4006 50.981 75.232 50.9677 75.054 50.9677C74.6297 50.9677 74.2509 51.0567 73.9176 51.2348C73.5881 51.409 73.3267 51.6514 73.1335 51.962C72.9441 52.2688 72.8494 52.6192 72.8494 53.0132V58.5359H71.5085ZM80.8551 58.7177C80.0142 58.7177 79.2888 58.5321 78.679 58.1609C78.0729 57.7859 77.6051 57.2632 77.2756 56.5927C76.9498 55.9185 76.7869 55.1344 76.7869 54.2404C76.7869 53.3465 76.9498 52.5586 77.2756 51.8768C77.6051 51.1912 78.0634 50.6571 78.6506 50.2745C79.2415 49.8882 79.9309 49.695 80.7188 49.695C81.1733 49.695 81.6222 49.7707 82.0653 49.9223C82.5085 50.0738 82.9119 50.32 83.2756 50.6609C83.6392 50.998 83.929 51.445 84.1449 52.0018C84.3608 52.5586 84.4688 53.2442 84.4688 54.0586V54.6268H77.7415V53.4677H83.1051C83.1051 52.9753 83.0066 52.5359 82.8097 52.1495C82.6165 51.7632 82.34 51.4582 81.9801 51.2348C81.6241 51.0113 81.2036 50.8995 80.7188 50.8995C80.1847 50.8995 79.7225 51.0321 79.3324 51.2973C78.946 51.5586 78.6487 51.8995 78.4403 52.32C78.232 52.7404 78.1278 53.1912 78.1278 53.6723V54.445C78.1278 55.1041 78.2415 55.6628 78.4688 56.1211C78.6998 56.5757 79.0199 56.9223 79.429 57.1609C79.8381 57.3957 80.3134 57.5132 80.8551 57.5132C81.2074 57.5132 81.5256 57.4639 81.8097 57.3654C82.0975 57.2632 82.3456 57.1116 82.554 56.9109C82.7623 56.7063 82.9233 56.4526 83.0369 56.1495L84.3324 56.5132C84.196 56.9526 83.9669 57.3389 83.6449 57.6723C83.3229 58.0018 82.9252 58.2594 82.4517 58.445C81.9782 58.6268 81.446 58.7177 80.8551 58.7177Z" fill="#111217"/>
</svg>
