<svg width="48" height="49" viewBox="0 0 48 49" fill="none" xmlns="http://www.w3.org/2000/svg">
<path d="M15 40.5361H38L44 46.5361V25.5361C44 23.3361 42.2 21.5361 40 21.5361H15C12.8 21.5361 11 23.3361 11 25.5361V36.5361C11 38.7361 12.8 40.5361 15 40.5361Z" fill="#0A7451"/>
<path d="M28.8 33.336H25.2L24.5 35.436H22.3L26 25.436H27.9L31.6 35.436H29.4L28.8 33.336ZM25.7 31.736H28.2L27 27.936L25.7 31.736Z" fill="#7FF4CD"/>
<path d="M33 25.5361H10L4 31.5361V8.53613C4 6.33613 5.8 4.53613 8 4.53613H33C35.2 4.53613 37 6.33613 37 8.53613V21.5361C37 23.7361 35.2 25.5361 33 25.5361Z" fill="#10B981"/>
<path d="M25.4 14.736C25.4 15.736 25.2 16.536 24.9 17.236C24.6 17.936 24.2 18.536 23.6 18.936L25.3 20.236L24 21.436L21.8 19.736C21.6 19.736 21.3 19.836 21 19.836C20.4 19.836 19.8 19.736 19.2 19.536C18.7 19.336 18.2 18.936 17.8 18.536C17.4 18.136 17.1 17.536 16.9 16.936C16.7 16.336 16.6 15.636 16.6 14.836V14.436C16.6 13.636 16.7 12.936 16.9 12.336C17.1 11.736 17.4 11.136 17.8 10.736C18.2 10.336 18.6 9.93604 19.2 9.73604C19.7 9.53604 20.3 9.43604 21 9.43604C21.6 9.43604 22.2 9.53604 22.8 9.73604C23.3 9.93604 23.8 10.336 24.2 10.736C24.6 11.136 24.9 11.736 25.1 12.336C25.3 12.936 25.4 13.636 25.4 14.436V14.736ZM23.2 14.236C23.2 13.136 23 12.336 22.6 11.836C22.2 11.236 21.7 11.036 21 11.036C20.3 11.036 19.7 11.336 19.4 11.836C19 12.436 18.8 13.236 18.8 14.236V14.736C18.8 15.236 18.9 15.736 19 16.136C19.1 16.536 19.2 16.936 19.4 17.136C19.6 17.436 19.8 17.636 20.1 17.736C20.4 17.836 20.7 17.936 21 17.936C21.7 17.936 22.3 17.636 22.6 17.136C23 16.536 23.2 15.736 23.2 14.636V14.236Z" fill="white"/>
</svg>
