<svg width="48" height="49" viewBox="0 0 48 49" fill="none" xmlns="http://www.w3.org/2000/svg">
<path d="M9 9.53613C9 7.94483 9.63214 6.41871 10.7574 5.29349C11.8826 4.16827 13.4087 3.53613 15 3.53613C16.5913 3.53613 18.1174 4.16827 19.2426 5.29349C20.3679 6.41871 21 7.94483 21 9.53613C21 11.1274 20.3679 12.6536 19.2426 13.7788C18.1174 14.904 16.5913 15.5361 15 15.5361C13.4087 15.5361 11.8826 14.904 10.7574 13.7788C9.63214 12.6536 9 11.1274 9 9.53613ZM29.337 14.2881L29.463 14.3841C30.7359 15.3277 32.3303 15.7294 33.8983 15.5017C35.4663 15.2739 36.8805 14.4353 37.8324 13.1686C38.7843 11.902 39.1966 10.3103 38.9792 8.74083C38.7618 7.17138 37.9325 5.75161 36.6722 4.79137C35.4119 3.83113 33.8229 3.40838 32.2521 3.61538C30.6812 3.82239 29.256 4.64233 28.2875 5.89628C27.3189 7.15022 26.8857 8.73637 27.0823 10.3086C27.279 11.8807 28.0895 13.3113 29.337 14.2881ZM18.804 18.5361C19.1808 17.8226 19.6977 17.1924 20.3236 16.6833C20.9496 16.1742 21.6719 15.7965 22.4472 15.5729C23.2225 15.3494 24.0349 15.2845 24.8359 15.3821C25.6368 15.4798 26.4099 15.738 27.1087 16.1414C27.8076 16.5447 28.4179 17.0848 28.9032 17.7295C29.3885 18.3741 29.7387 19.1101 29.933 19.8932C30.1273 20.6764 30.1617 21.4907 30.034 22.2874C29.9063 23.0841 29.6193 23.8469 29.19 24.5301C28.3642 25.8445 27.061 26.7877 25.5544 27.1615C24.0478 27.5353 22.4549 27.3106 21.1105 26.5347C19.766 25.7588 18.7746 24.492 18.3445 23.0005C17.9144 21.5089 18.0791 19.9088 18.804 18.5361ZM7.5 18.5361H15.51C14.9768 20.0588 14.8609 21.6964 15.1742 23.279C15.4876 24.8616 16.2188 26.3315 17.292 27.5361H16.5C14.9533 27.5359 13.4443 28.0137 12.1797 28.9041C10.915 29.7945 9.95634 31.054 9.435 32.5101C8.428 32.1056 7.48514 31.5569 6.636 30.8811C4.38 29.0661 3 26.3841 3 23.0361C3 21.8427 3.47411 20.6981 4.31802 19.8542C5.16193 19.0102 6.30653 18.5361 7.5 18.5361ZM31.5 27.5361C33.0463 27.5361 34.5548 28.014 35.819 28.9044C37.0831 29.7948 38.0412 31.0542 38.562 32.5101C39.582 32.0931 40.527 31.5501 41.364 30.8811C43.62 29.0661 45 26.3841 45 23.0361C45 21.8427 44.5259 20.6981 43.682 19.8542C42.8381 19.0102 41.6935 18.5361 40.5 18.5361H32.49C32.82 19.4751 33 20.4861 33 21.5361C33.0028 23.7505 32.1864 25.8876 30.708 27.5361H31.5ZM35.661 33.3201C35.88 33.8481 36 34.4301 36 35.0361C36 38.3841 34.623 41.0661 32.364 42.8811C30.141 44.6661 27.159 45.5361 24 45.5361C20.841 45.5361 17.859 44.6661 15.636 42.8811C13.38 41.0661 12 38.3841 12 35.0361C11.9984 34.4447 12.1137 33.8589 12.3393 33.3122C12.5649 32.7655 12.8963 32.2688 13.3145 31.8506C13.7327 31.4324 14.2294 31.101 14.7761 30.8755C15.3227 30.6499 15.9086 30.5345 16.5 30.5361H31.5C32.3913 30.5359 33.2626 30.8004 34.0034 31.2961C34.7442 31.7917 35.3211 32.4962 35.661 33.3201Z" fill="#10B981"/>
</svg>
