<svg width="144" height="144" viewBox="0 0 144 144" fill="none" xmlns="http://www.w3.org/2000/svg">
<g filter="url(#filter0_d_1_10323)">
<rect x="28" y="18.464" width="87.9999" height="87.9999" rx="43.9999" fill="white"/>
<path d="M51.9436 84.2923C62.683 90.2426 80.0952 90.2426 90.8346 84.2923C101.574 78.3421 101.574 68.6935 90.8346 62.7433C80.0952 56.793 62.683 56.793 51.9436 62.742C41.2043 68.6909 41.2043 78.3408 51.9436 84.2923Z" fill="#F5F5F5"/>
<path d="M91.459 62.4023C91.5345 61.4624 92.2596 59.86 93.3322 58.7184C94.4049 57.5767 96.1219 57.0261 97.1815 57.4869C98.1669 57.9152 97.9508 59.2365 96.6491 60.0188C95.3473 60.8012 93.409 61.7605 92.7439 63.2419L91.4577 65.0201L91.459 62.4023Z" fill="#10B981"/>
<path opacity="0.1" d="M91.459 62.4023C91.5345 61.4624 92.2596 59.86 93.3322 58.7184C94.4049 57.5767 96.1219 57.0261 97.1815 57.4869C98.1669 57.9152 97.9508 59.2365 96.6491 60.0188C95.3473 60.8012 93.409 61.7605 92.7439 63.2419L91.4577 65.0201L91.459 62.4023Z" fill="black"/>
<path d="M91.3244 63.6326H91.3048C91.2966 63.63 91.2889 63.6257 91.2823 63.62C91.2757 63.6144 91.2703 63.6075 91.2665 63.5997C91.2626 63.592 91.2603 63.5835 91.2597 63.5748C91.2592 63.5662 91.2603 63.5575 91.2632 63.5493C92.3189 60.3626 95.3142 58.2265 96.5574 58.0221C96.5658 58.0206 96.5744 58.0208 96.5827 58.0227C96.591 58.0246 96.5988 58.0281 96.6057 58.0331C96.6127 58.0381 96.6185 58.0444 96.623 58.0517C96.6274 58.059 96.6303 58.067 96.6316 58.0755C96.6331 58.0839 96.6329 58.0926 96.631 58.101C96.6291 58.1094 96.6256 58.1173 96.6206 58.1243C96.6157 58.1314 96.6094 58.1373 96.6021 58.1419C96.5948 58.1465 96.5867 58.1495 96.5782 58.151C95.3624 58.3501 92.4269 60.4511 91.3869 63.591C91.382 63.6035 91.3734 63.6142 91.3622 63.6217C91.351 63.6292 91.3378 63.633 91.3244 63.6326Z" fill="white"/>
<path d="M91.6005 66.2815C91.7944 65.7608 92.5117 64.946 93.6104 64.3094C94.8288 63.6052 96.3193 63.3565 96.7059 62.7642C97.1706 62.0522 96.5992 61.2985 95.4042 61.3492C94.2092 61.4 91.9923 62.8514 91.4625 65.2545L91.6005 66.2815Z" fill="#10B981"/>
<path d="M91.5455 65.3026C91.5352 65.3023 91.525 65.3001 91.5155 65.2961C91.5005 65.2881 91.4891 65.2745 91.4837 65.2583C91.4784 65.242 91.4795 65.2243 91.4869 65.2089C92.5179 63.1561 94.6931 62.1967 95.8165 61.9545C95.8338 61.9509 95.8518 61.9543 95.8665 61.9639C95.8813 61.9736 95.8916 61.9887 95.8953 62.006C95.8989 62.0232 95.8955 62.0412 95.8859 62.056C95.8762 62.0708 95.8611 62.0811 95.8438 62.0847C94.7439 62.3229 92.6116 63.2628 91.6041 65.2714C91.5979 65.2813 91.5892 65.2894 91.579 65.2949C91.5687 65.3003 91.5571 65.303 91.5455 65.3026Z" fill="white"/>
<path d="M53.8423 69.1401L54.8993 68.5296C54.8993 68.5296 55.4591 66.0394 54.626 62.8761C53.7929 59.7129 51.399 57.3476 50.1402 57.8449C48.8814 58.3422 48.9217 59.2768 49.6117 60.2245C50.1844 61.0133 52.042 62.9061 52.9363 65.0956C53.4689 66.3816 53.7754 67.7498 53.8423 69.1401Z" fill="#E0E0E0"/>
<path d="M54.4054 68.8797H54.3936C54.3851 68.8786 54.3768 68.8758 54.3693 68.8714C54.3618 68.8671 54.3553 68.8613 54.3501 68.8544C54.3449 68.8475 54.3411 68.8396 54.3389 68.8312C54.3368 68.8228 54.3364 68.8141 54.3377 68.8055C55.0614 63.5985 51.8331 59.3887 50.3647 58.5113C50.3574 58.5069 50.3509 58.5011 50.3458 58.4942C50.3407 58.4872 50.337 58.4794 50.3349 58.471C50.3329 58.4627 50.3325 58.454 50.3338 58.4455C50.3351 58.437 50.3381 58.4288 50.3426 58.4215C50.3469 58.4142 50.3526 58.4077 50.3594 58.4026C50.3662 58.3975 50.374 58.3939 50.3822 58.3918C50.3905 58.3897 50.399 58.3893 50.4074 58.3906C50.4158 58.3919 50.4239 58.3949 50.4311 58.3994C51.9216 59.2911 55.1981 63.5556 54.4665 68.8237C54.4642 68.8386 54.4569 68.8523 54.4458 68.8624C54.4346 68.8726 54.4204 68.8787 54.4054 68.8797Z" fill="white"/>
<path d="M53.843 69.14L52.2562 70.0512C51.9255 69.8857 51.5672 69.782 51.1992 69.7453C50.5236 69.6607 50.0745 69.0098 50.1409 68.5243C50.1864 68.1962 50.2906 67.8226 50.2411 67.492C50.1956 67.1952 49.9079 66.927 49.6397 66.8242C49.4114 66.753 49.1733 66.7187 48.9342 66.7226C48.5528 66.7057 48.1531 66.6615 47.8316 66.4623C47.5101 66.2631 47.2731 65.8648 47.3786 65.4977C47.4479 65.3063 47.5617 65.1341 47.7105 64.9952C47.8584 64.8564 47.9786 64.6908 48.0646 64.5071C48.2052 64.1387 47.9579 63.9057 47.6611 63.7351C46.6197 63.135 46.151 62.6625 46.5259 62.2095C46.9008 61.7565 47.9318 61.5586 48.9875 62.1132C50.0433 62.6677 50.918 62.0728 51.6145 62.19C52.7053 62.3722 52.7704 63.1429 52.635 63.8132C52.4996 64.4836 53.8456 64.7661 54.1854 65.5667C54.4314 66.1538 54.6371 68.0713 53.843 69.14Z" fill="#EBEBEB"/>
<path d="M53.3122 69.5096C53.2953 69.5096 53.2792 69.5031 53.267 69.4914C53.2549 69.4798 53.2477 69.4639 53.2471 69.4471C53.1169 65.7306 48.3538 62.4893 47.2304 62.3044C47.2219 62.303 47.2138 62.2999 47.2065 62.2953C47.1992 62.2908 47.1929 62.2848 47.188 62.2778C47.183 62.2708 47.1795 62.2628 47.1776 62.2544C47.1757 62.2461 47.1755 62.2374 47.177 62.2289C47.1783 62.2205 47.1812 62.2124 47.1857 62.2051C47.1901 62.1978 47.196 62.1915 47.2029 62.1866C47.2098 62.1816 47.2176 62.1781 47.2259 62.1762C47.2342 62.1743 47.2428 62.1741 47.2512 62.1755C48.4345 62.3708 53.2471 65.5874 53.3772 69.4432C53.3776 69.4517 53.3762 69.4601 53.3733 69.4681C53.3703 69.476 53.3658 69.4833 53.36 69.4895C53.3541 69.4957 53.3471 69.5006 53.3394 69.5041C53.3316 69.5075 53.3232 69.5094 53.3148 69.5096H53.3122Z" fill="white"/>
<path d="M95.6793 51.8099C95.4476 51.767 95.2549 51.6563 94.9243 51.6212C94.696 51.6148 94.4727 51.5532 94.2734 51.4415C94.0131 51.2996 93.4677 50.6396 93.0225 49.9732C92.5501 49.2119 92.2115 48.3754 92.0214 47.4998C91.8327 46.4402 91.7962 44.8964 91.7233 44.2754C91.6504 43.6545 91.3914 43.4735 91.0542 43.333C90.6572 43.1676 90.2419 43.4072 90.238 44.3054C90.2556 45.5419 90.4106 46.7727 90.7001 47.975C90.9395 48.8613 91.3239 49.7019 91.8379 50.4626C92.3065 51.1708 92.7894 51.6342 93.4 52.2252C93.5679 52.3853 93.6525 52.5454 93.9376 52.8878C94.0479 53.0364 94.1794 53.168 94.3281 53.2783C94.5182 53.4043 94.7256 53.5021 94.9438 53.5686C95.2195 53.6541 95.5131 53.664 95.7939 53.5972C95.9481 53.5599 96.0916 53.4873 96.213 53.385C96.3343 53.2816 96.415 53.1387 96.4408 52.9815C96.4486 52.9507 96.4482 52.9183 96.4395 52.8878C96.4114 52.8374 96.3647 52.8 96.3094 52.7836C96.0126 52.6534 95.6728 52.5649 95.3916 52.4074C95.1547 52.2772 95.0011 52.1471 95.0571 52.1301C95.1131 52.1132 95.2419 52.2004 95.4788 52.2069C95.7158 52.2135 95.9319 52.0859 95.9253 51.9596C95.9188 51.8333 95.911 51.8529 95.6793 51.8099Z" fill="#FFA8A7"/>
<path d="M90.3654 47.1939C90.3654 47.1939 90.1493 45.4716 90.0933 44.5149C90.0373 43.5581 90.3302 43.2808 90.6895 43.0413C91.4823 42.9801 91.9366 43.8093 92.0707 44.3626C92.2047 44.9158 92.2737 46.2943 92.2737 47.1912C92.2737 48.0882 93.5273 50.6747 93.5273 50.6747C93.5273 50.6747 92.8947 50.9676 92.7033 51.5417C92.7033 51.5417 91.6971 50.3545 91.3235 49.7492C90.6387 48.6362 90.4513 47.9554 90.3654 47.1939Z" fill="#10B981"/>
<path opacity="0.1" d="M90.3654 47.1939C90.3654 47.1939 90.1493 45.4716 90.0933 44.5149C90.0373 43.5581 90.3302 43.2808 90.6895 43.0413C91.4823 42.9801 91.9366 43.8093 92.0707 44.3626C92.2047 44.9158 92.2737 46.2943 92.2737 47.1912C92.2737 48.0882 93.5273 50.6747 93.5273 50.6747C93.5273 50.6747 92.8947 50.9676 92.7033 51.5417C92.7033 51.5417 91.6971 50.3545 91.3235 49.7492C90.6387 48.6362 90.4513 47.9554 90.3654 47.1939Z" fill="black"/>
<path d="M87.0665 67.3188H88.1457V65.473H87.0665V67.3188Z" fill="#FFA8A7"/>
<path d="M90.5842 65.9767L91.662 66.0145L91.7167 64.0606L90.6388 64.0228L90.5842 65.9767Z" fill="#FFA8A7"/>
<path d="M88.1461 66.7866V66.6317C88.249 66.6772 88.4885 67.5924 88.9168 67.9816C89.2565 68.2927 89.7212 68.6507 89.8397 68.9969C89.9582 69.3432 89.1888 69.5554 88.8751 69.4994C88.5054 69.433 87.8663 69.174 87.7035 68.9331C87.5408 68.6923 87.4679 68.3356 87.3377 68.1586C87.2076 67.9816 86.9056 67.785 86.8353 67.5806C86.7962 67.4687 86.8353 67.2227 86.8965 67.0144C86.9576 66.8061 87.0006 66.6147 87.0657 66.6317V66.7501C87.22 66.8701 87.4104 66.9344 87.6059 66.9324C87.7647 66.9376 88.1474 66.9063 88.1461 66.7866Z" fill="#263238"/>
<path d="M91.674 65.6814C91.73 65.6814 91.7756 65.7621 91.8992 65.8962C92.0839 66.0824 92.2981 66.2368 92.5332 66.3531C92.938 66.5548 93.723 66.8659 94.0783 67.0261C94.2996 67.1263 94.2892 67.3945 94.0601 67.5468C93.831 67.6991 93.2791 67.8071 92.6113 67.6613C92.2494 67.5793 91.7769 67.2448 91.4788 67.263C91.1807 67.2812 90.6209 67.2773 90.4009 67.125C90.1809 66.9727 90.2707 66.6486 90.3306 66.37C90.3983 66.0654 90.4959 65.5994 90.5975 65.6202V65.7165C90.7277 65.9131 91.3876 65.9925 91.6727 65.8467L91.674 65.6814Z" fill="#263238"/>
<path d="M87.1385 50.8363C87.1385 51.866 87.1385 58.2966 87.1385 58.2966C87.1138 58.5921 86.8938 59.1063 86.8352 60.3677C86.7623 61.9142 86.705 66.154 86.705 66.154C86.705 66.154 87.5108 66.6747 88.2242 66.1722C88.2242 66.1722 89.1823 60.093 89.3749 58.5609C89.5441 57.224 89.8292 53.5908 89.8292 53.5908L90.4801 59.0582C90.4801 59.0582 90.3044 60.0631 90.2666 60.7726C90.2289 61.482 90.2666 65.1555 90.2666 65.1555C90.2666 65.1555 91.1179 65.645 91.7441 65.3104C91.7441 65.3104 92.4822 59.6374 92.5941 58.997C92.7061 58.3565 92.1893 50.8298 92.1893 50.8298L87.1385 50.8363Z" fill="#263238"/>
<path d="M89.8215 53.5906C90.3792 53.4167 90.892 53.1225 91.3237 52.7289C91.3237 52.7289 91.0347 53.2717 90.1729 53.7768L90.1912 56.7161L89.8215 53.5906Z" fill="black"/>
<path d="M88.1745 43.3852C88.0232 43.4054 87.8742 43.4399 87.7293 43.488C87.4325 43.6039 87.2971 43.9683 87.2268 44.2899C87.1672 44.5592 87.1375 44.8342 87.1383 45.11V50.8377C87.8946 51.6604 90.5307 52.0431 92.1826 50.8377C92.1826 50.8377 92.15 45.7791 92.0264 44.9486C91.8116 43.5049 91.1151 42.9959 90.4265 43.0441L88.759 43.281L88.1745 43.3852Z" fill="#10B981"/>
<path d="M88.8117 45.8806C88.8117 45.8806 89.7151 45.8441 90.0861 45.6996V45.5187C89.7151 45.6632 88.8117 45.6996 88.8117 45.6996V45.8806Z" fill="#37474F"/>
<path d="M90.3387 44.114L88.7597 42.9515L88.7532 42.6652C88.7532 42.6652 88.4187 42.7159 88.3367 43.3564C88.5847 43.9088 89.0104 44.3625 89.546 44.6451L89.874 44.0606L90.3387 44.114Z" fill="#10B981"/>
<path opacity="0.1" d="M90.3387 44.114L88.7597 42.9515L88.7532 42.6652C88.7532 42.6652 88.4187 42.7159 88.3367 43.3564C88.5847 43.9088 89.0104 44.3625 89.546 44.6451L89.874 44.0606L90.3387 44.114Z" fill="black"/>
<path d="M90.4255 42.7343C90.5271 42.7494 90.6246 42.7845 90.7127 42.8374C90.8007 42.8904 90.8774 42.9601 90.9384 43.0428C91.0946 43.3031 91.0581 44.2859 91.0581 44.2859L90.6429 43.8095L90.3383 44.1141C90.3708 43.7848 90.4268 43.2328 90.4268 43.2328L90.4255 42.7343Z" fill="#10B981"/>
<path opacity="0.1" d="M90.4255 42.7343C90.5271 42.7494 90.6246 42.7845 90.7127 42.8374C90.8007 42.8904 90.8774 42.9601 90.9384 43.0428C91.0946 43.3031 91.0581 44.2859 91.0581 44.2859L90.6429 43.8095L90.3383 44.1141C90.3708 43.7848 90.4268 43.2328 90.4268 43.2328L90.4255 42.7343Z" fill="black"/>
<path d="M88.0872 40.6514C88.0872 40.6514 88.3345 41.8229 88.4348 42.0091C88.5004 42.1276 88.6097 42.2159 88.7394 42.2551L88.7224 41.435L88.0872 40.6514Z" fill="#263238"/>
<path d="M88.3992 38.9813C88.3126 38.9712 88.2248 38.981 88.1424 39.0098C88.0601 39.0387 87.9855 39.0859 87.9241 39.1479C87.7197 39.3575 87.8329 40.0109 88.0881 40.6514L88.5554 40.7048L88.3992 38.9813Z" fill="#263238"/>
<path d="M88.695 40.7049C88.6013 40.7609 88.4672 40.5747 88.3514 40.4602C88.2355 40.3456 87.858 40.1738 87.6706 40.5708C87.4831 40.9678 87.8359 41.5094 88.134 41.6018C88.6456 41.7632 88.7224 41.4352 88.7224 41.4352L88.7614 43.281C88.7614 43.281 89.4292 43.9905 90.3378 44.1142L90.4264 43.2329V42.6705C90.6544 42.7069 90.8857 42.7187 91.1163 42.7057C91.4938 42.6471 91.7307 42.3503 91.844 41.9428C92.0275 41.292 92.0978 40.7596 91.9416 39.4695C91.7711 38.0584 90.1296 38.0376 89.2444 38.6013C88.3592 39.1649 88.695 40.7049 88.695 40.7049Z" fill="#FFA8A7"/>
<path d="M88.6951 40.8635C88.6469 40.8635 88.4686 40.5667 88.3514 40.46C88.19 40.3129 88.3983 38.9812 88.3983 38.9812C88.5922 38.07 90.1765 37.9398 91.0617 38.2301C91.5212 38.372 91.818 38.579 91.801 38.9669C91.7425 39.2272 91.1814 39.3574 90.9679 39.3847C90.3691 39.4576 89.4462 39.2962 89.3186 39.2793C89.1455 39.2559 89.0973 39.3105 89.0036 39.7713C88.9216 40.1749 88.8526 40.8596 88.6951 40.8635Z" fill="#263238"/>
<path d="M88.4005 39.0893L87.833 38.7847C87.8511 38.7465 87.8767 38.7123 87.9084 38.6843C87.9401 38.6563 87.9772 38.635 88.0174 38.6217C88.0575 38.6085 88.1 38.6035 88.1421 38.6071C88.1843 38.6107 88.2252 38.6229 88.2625 38.6428C88.3385 38.6852 88.3953 38.7553 88.421 38.8384C88.4467 38.9216 88.4393 39.0114 88.4005 39.0893Z" fill="#263238"/>
<path d="M90.4253 42.6704C90.4253 42.6704 89.5857 42.5012 89.2915 42.345C89.1203 42.254 88.9803 42.1139 88.8893 41.9427C88.9333 42.1146 89.0117 42.2758 89.1197 42.4166C89.3345 42.6913 90.4292 42.8943 90.4292 42.8943L90.4253 42.6704Z" fill="#F28F8F"/>
<path d="M90.2768 40.6514C90.2755 40.6847 90.2644 40.7168 90.245 40.7438C90.2256 40.7707 90.1987 40.7914 90.1676 40.8032C90.1365 40.815 90.1026 40.8173 90.0702 40.81C90.0378 40.8026 90.0083 40.7859 89.9853 40.7618C89.9623 40.7378 89.947 40.7075 89.9411 40.6748C89.9352 40.6421 89.9391 40.6084 89.9523 40.5779C89.9655 40.5473 89.9873 40.5214 90.0152 40.5032C90.043 40.485 90.0756 40.4755 90.1088 40.4757C90.1314 40.4762 90.1536 40.4812 90.1743 40.4903C90.195 40.4994 90.2136 40.5125 90.2292 40.5288C90.2448 40.5451 90.257 40.5643 90.2652 40.5854C90.2733 40.6064 90.2773 40.6289 90.2768 40.6514Z" fill="#263238"/>
<path d="M90.099 40.0135L89.7384 40.2127C89.7126 40.1633 89.7071 40.1058 89.7228 40.0524C89.7386 39.999 89.7746 39.9537 89.8231 39.9263C89.8468 39.9133 89.8729 39.9053 89.8998 39.9027C89.9267 39.9001 89.9539 39.9029 89.9796 39.9111C90.0054 39.9192 90.0293 39.9325 90.0498 39.9501C90.0703 39.9677 90.0871 39.9893 90.099 40.0135Z" fill="#263238"/>
<path d="M90.3496 41.6589L90.7336 41.8034C90.7257 41.8295 90.7125 41.8537 90.695 41.8745C90.6774 41.8953 90.6558 41.9123 90.6314 41.9245C90.6071 41.9367 90.5805 41.9438 90.5533 41.9453C90.5261 41.9469 90.4988 41.9429 90.4732 41.9336C90.4205 41.9135 90.3779 41.8733 90.3547 41.8218C90.3315 41.7703 90.3297 41.7118 90.3496 41.6589Z" fill="#F28F8F"/>
<path d="M91.7788 40.1541L91.4495 39.9016C91.4649 39.8792 91.4847 39.8602 91.5076 39.8458C91.5306 39.8314 91.5563 39.8218 91.5831 39.8176C91.61 39.8135 91.6373 39.8149 91.6636 39.8217C91.6899 39.8285 91.7145 39.8406 91.7359 39.8573C91.7792 39.8922 91.8078 39.9422 91.8158 39.9972C91.8237 40.0523 91.8105 40.1084 91.7788 40.1541Z" fill="#263238"/>
<path d="M91.678 40.6019C91.6767 40.6351 91.6657 40.6672 91.6463 40.6942C91.6269 40.7212 91.5999 40.7419 91.5689 40.7536C91.5378 40.7654 91.5039 40.7678 91.4715 40.7604C91.4391 40.7531 91.4095 40.7363 91.3866 40.7123C91.3636 40.6883 91.3482 40.658 91.3424 40.6253C91.3365 40.5925 91.3404 40.5588 91.3536 40.5283C91.3667 40.4978 91.3886 40.4718 91.4164 40.4537C91.4443 40.4355 91.4769 40.4259 91.5101 40.4262C91.5327 40.4267 91.5549 40.4316 91.5756 40.4407C91.5962 40.4498 91.6149 40.4629 91.6305 40.4792C91.6461 40.4955 91.6583 40.5148 91.6664 40.5358C91.6746 40.5569 91.6785 40.5793 91.678 40.6019Z" fill="#263238"/>
<path d="M90.7668 40.287L90.8227 41.2997L91.3513 41.1201L90.7668 40.287Z" fill="#F28F8F"/>
<path d="M89.1411 39.5931C89.1411 39.5931 90.8152 40.5278 91.9789 39.8157C93.1427 39.1037 91.6353 38.4932 91.6353 38.4932L89.1411 39.5931Z" fill="#263238"/>
<path d="M91.6219 36.8972C90.6248 36.7423 89.5392 36.6954 88.2869 37.3046C87.0346 37.9138 86.7573 38.7274 86.7573 38.7274C86.7573 38.7274 88.0356 39.075 89.0757 38.7769C90.1158 38.4788 91.6219 36.8972 91.6219 36.8972Z" fill="#10B981"/>
<path opacity="0.4" d="M91.6219 36.8972C90.6248 36.7423 89.5392 36.6954 88.2869 37.3046C87.0346 37.9138 86.7573 38.7274 86.7573 38.7274C86.7573 38.7274 88.0356 39.075 89.0757 38.7769C90.1158 38.4788 91.6219 36.8972 91.6219 36.8972Z" fill="white"/>
<path d="M87.4566 39.1127C87.4566 39.1127 86.8161 38.8875 86.7576 38.7222C87.2656 38.716 87.7686 38.6213 88.2441 38.4423C89.076 38.1403 89.9364 37.2265 90.8763 36.9701C91.8161 36.7136 92.2119 37.1406 92.2119 37.1406C92.0884 37.5418 91.9096 37.9238 91.6808 38.2757C91.6808 38.2757 91.3905 38.9422 90.2892 39.2234C89.1879 39.5046 87.4566 39.1127 87.4566 39.1127Z" fill="#10B981"/>
<path d="M87.457 39.1128L87.5091 39.2885C87.5279 39.3467 87.5599 39.3997 87.6026 39.4435C87.6453 39.4873 87.6974 39.5207 87.7551 39.5411C88.5983 39.7684 89.4894 39.7472 90.3208 39.4799C91.1019 39.2417 91.4442 38.9995 91.5835 38.829C91.6344 38.7818 91.6729 38.7228 91.6956 38.6572C91.7183 38.5916 91.7245 38.5214 91.7137 38.4528L91.6877 38.2797C91.6877 38.2797 91.4481 38.6415 90.1828 39.0451C88.9175 39.4486 87.457 39.1128 87.457 39.1128Z" fill="#37474F"/>
<path d="M90.9719 37.3358C90.9641 37.5272 90.7585 37.9177 90.4851 37.7875V38.2783C90.4851 38.5855 90.666 38.6688 90.9563 38.5712C91.1014 38.5238 91.2282 38.4325 91.3189 38.3097C91.4097 38.187 91.4599 38.0391 91.4627 37.8865C91.4627 37.7927 91.4627 37.4634 91.4627 37.4634C91.2479 37.7784 90.9719 37.4113 90.9719 37.3358Z" fill="#FAFAFA"/>
<path d="M70.7948 42.6666L55.5305 51.4794C55.3665 51.5864 55.23 51.7306 55.1321 51.9002C55.0341 52.0698 54.9775 52.2601 54.9669 52.4557V69.4708C54.9773 69.6664 55.0338 69.8568 55.1318 70.0264C55.2297 70.1961 55.3663 70.3402 55.5305 70.4471L70.7948 79.2612C70.9694 79.3498 71.1626 79.396 71.3584 79.396C71.5543 79.396 71.7474 79.3498 71.9221 79.2612L87.1967 70.4471C87.3609 70.3402 87.4975 70.1961 87.5955 70.0264C87.6934 69.8568 87.7499 69.6664 87.7604 69.4708V52.4557C87.7497 52.2601 87.6931 52.0698 87.5952 51.9002C87.4973 51.7306 87.3608 51.5864 87.1967 51.4794L71.9312 42.6666C71.7553 42.5764 71.5606 42.5294 71.363 42.5294C71.1654 42.5294 70.9706 42.5764 70.7948 42.6666Z" fill="#37474F"/>
<path d="M71.3635 61.0784V79.3952C71.1676 79.4006 70.9735 79.3558 70.7998 79.265L55.5343 70.4522C55.3702 70.3452 55.2337 70.201 55.1358 70.0314C55.0379 69.8618 54.9813 69.6715 54.9706 69.4759V52.4556C54.9811 52.2714 55.032 52.0919 55.1195 51.9295C55.2069 51.7671 55.329 51.6259 55.477 51.5157C55.2244 51.6967 55.244 51.9622 55.5343 52.1302L70.7946 60.943C70.9694 61.0362 71.1654 61.0828 71.3635 61.0784Z" fill="#263238"/>
<path d="M87.1965 51.4795L71.9309 42.6667C71.7562 42.578 71.5631 42.5319 71.3672 42.5319C71.1714 42.5319 70.9783 42.578 70.8036 42.6667L55.5393 51.4795C55.2282 51.6591 55.2282 51.9507 55.5393 52.1303L70.7945 60.9432C70.9692 61.0318 71.1623 61.078 71.3581 61.078C71.554 61.078 71.7471 61.0318 71.9218 60.9432L87.1965 52.1303C87.5024 51.9507 87.5024 51.6591 87.1965 51.4795Z" fill="#455A64"/>
<path d="M72.7019 61.7162L86.4157 53.799C86.5706 53.7091 86.6969 53.782 86.6969 53.9617V69.1921C86.6915 69.2898 86.6633 69.3849 86.6145 69.4696C86.5656 69.5544 86.4976 69.6266 86.4157 69.6802L72.7019 77.5909C72.547 77.6807 72.4207 77.6092 72.4207 77.4282V62.2043C72.4257 62.1065 72.4539 62.0114 72.5027 61.9265C72.5516 61.8417 72.6198 61.7696 72.7019 61.7162Z" fill="#263238"/>
<path d="M72.6809 62.2042C72.6862 62.1526 72.7025 62.1027 72.7285 62.0578C72.7545 62.0129 72.7898 61.9741 72.8319 61.9438L86.4351 54.0891V69.1893C86.4295 69.2409 86.4132 69.2907 86.3872 69.3355C86.3612 69.3804 86.3261 69.4193 86.2841 69.4497L72.6809 77.3031V62.2042Z" fill="#37474F"/>
<path d="M72.4684 63.0713L75.4455 61.3491C75.4754 61.3325 75.509 61.3237 75.5432 61.3237C75.5773 61.3237 75.6109 61.3325 75.6408 61.3491L76.1224 61.6277L72.9982 63.372L72.4684 63.0713Z" fill="#455A64"/>
<path d="M76.1708 61.7395V63.7911C76.1674 63.8495 76.1502 63.9063 76.1209 63.957C76.0915 64.0076 76.0506 64.0507 76.0016 64.0827L72.9972 65.8179V63.3758L76.0016 61.6419C76.094 61.5885 76.1708 61.6315 76.1708 61.7395Z" fill="#263238"/>
<path d="M72.4684 63.0713L72.9969 63.3759V65.8193L72.4684 65.5134V63.0713Z" fill="black"/>
<path d="M74.2709 63.5752C74.4167 63.4906 74.5312 63.5583 74.5312 63.7275C74.5265 63.8189 74.5006 63.908 74.4554 63.9875C74.4102 64.0671 74.347 64.135 74.2709 64.1858C74.1251 64.2691 74.0105 64.2014 74.0105 64.0322C74.015 63.9409 74.0409 63.852 74.0861 63.7726C74.1314 63.6932 74.1947 63.6256 74.2709 63.5752Z" fill="#455A64"/>
<path d="M75.3284 62.9647C75.4742 62.88 75.5887 62.9477 75.5887 63.117C75.5841 63.2083 75.5581 63.2974 75.5129 63.3769C75.4677 63.4565 75.4045 63.5244 75.3284 63.5752C75.1813 63.6585 75.068 63.5908 75.068 63.4216C75.0727 63.3304 75.0987 63.2415 75.1439 63.1622C75.1891 63.0828 75.2523 63.0152 75.3284 62.9647Z" fill="#455A64"/>
<path d="M72.42 63.0997L71.6884 63.5228C71.5895 63.5799 71.4773 63.61 71.363 63.61C71.2488 63.61 71.1365 63.5799 71.0376 63.5228L70.5025 63.2143C70.4729 63.197 70.4392 63.1879 70.4049 63.1879C70.3706 63.1879 70.3369 63.197 70.3073 63.2143L69.8282 63.4903L71.0376 64.1333C71.1365 64.1904 71.2488 64.2205 71.363 64.2205C71.4773 64.2205 71.5895 64.1904 71.6884 64.1333L72.9485 63.4056L72.42 63.0997Z" fill="#455A64"/>
<path d="M69.945 65.9456L71.0371 66.5769C71.1361 66.6341 71.2483 66.6641 71.3626 66.6641C71.4768 66.6641 71.589 66.6341 71.688 66.5769L72.9481 65.8493V63.4059L71.688 64.1336C71.589 64.1907 71.4768 64.2208 71.3626 64.2208C71.2483 64.2208 71.1361 64.1907 71.0371 64.1336L69.945 63.5035C69.8525 63.4501 69.7757 63.4931 69.7757 63.6011V65.6527C69.779 65.7114 69.796 65.7684 69.8254 65.8193C69.8548 65.8702 69.8958 65.9134 69.945 65.9456Z" fill="#37474F"/>
<path d="M71.3668 66.6629C71.4802 66.6631 71.5917 66.633 71.6896 66.5756L72.9497 65.848V63.4059L71.6896 64.1336C71.5917 64.1909 71.4802 64.221 71.3668 64.2208V66.6629Z" fill="#263238"/>
<path d="M72.4684 73.4554L75.4455 71.7371C75.4752 71.7198 75.5088 71.7107 75.5432 71.7107C75.5775 71.7107 75.6111 71.7198 75.6408 71.7371L76.1224 72.0156L72.9982 73.76L72.4684 73.4554Z" fill="#455A64"/>
<path d="M76.1708 72.1196V74.1711C76.1676 74.2298 76.1505 74.2869 76.1211 74.3377C76.0917 74.3886 76.0508 74.4319 76.0016 74.464L72.9972 76.1979V73.7559L76.0016 72.0232C76.094 71.9686 76.1708 72.0115 76.1708 72.1196Z" fill="#263238"/>
<path d="M72.4684 73.4515L72.9969 73.7561V76.1982L72.4684 75.8936V73.4515Z" fill="black"/>
<path d="M74.2709 73.9538C74.4167 73.8692 74.5312 73.9382 74.5312 74.1061C74.5268 74.1976 74.501 74.2867 74.4558 74.3663C74.4105 74.4459 74.3472 74.5137 74.2709 74.5643C74.1251 74.6489 74.0105 74.5812 74.0105 74.412C74.0152 74.3206 74.0412 74.2316 74.0864 74.152C74.1316 74.0725 74.1948 74.0046 74.2709 73.9538Z" fill="#455A64"/>
<path d="M75.3284 73.3434C75.4742 73.2588 75.5887 73.3278 75.5887 73.4957C75.5843 73.5872 75.5584 73.6763 75.5131 73.7559C75.4679 73.8354 75.4046 73.9033 75.3284 73.954C75.1813 74.0386 75.068 73.9709 75.068 73.8017C75.0726 73.7103 75.0986 73.6212 75.1438 73.5416C75.189 73.462 75.2522 73.3942 75.3284 73.3434Z" fill="#455A64"/>
<path d="M72.42 73.48L71.6884 73.903C71.5895 73.9602 71.4773 73.9902 71.363 73.9902C71.2488 73.9902 71.1365 73.9602 71.0376 73.903L70.5025 73.5945C70.4729 73.5773 70.4392 73.5682 70.4049 73.5682C70.3706 73.5682 70.3369 73.5773 70.3073 73.5945L69.8282 73.8705L71.0376 74.5136C71.1365 74.5707 71.2488 74.6008 71.363 74.6008C71.4773 74.6008 71.5895 74.5707 71.6884 74.5136L72.9485 73.7859L72.42 73.48Z" fill="#455A64"/>
<path d="M69.945 76.3257L71.0371 76.9558C71.1361 77.0129 71.2483 77.043 71.3626 77.043C71.4768 77.043 71.589 77.0129 71.688 76.9558L72.9481 76.2281V73.786L71.688 74.5137C71.589 74.5708 71.4768 74.6009 71.3626 74.6009C71.2483 74.6009 71.1361 74.5708 71.0371 74.5137L69.945 73.8836C69.8525 73.829 69.7757 73.8732 69.7757 73.9813V76.0328C69.7792 76.0914 69.7963 76.1484 69.8257 76.1993C69.8551 76.2501 69.8959 76.2934 69.945 76.3257Z" fill="#37474F"/>
<path d="M71.3668 77.043C71.4801 77.0425 71.5914 77.0125 71.6896 76.9558L72.9497 76.2281V73.786L71.6896 74.5137C71.5912 74.5698 71.4801 74.5999 71.3668 74.6009V77.043Z" fill="#263238"/>
<path d="M81.6934 63.5529L81.7819 63.3993L81.2443 63.0882H81.2339C80.8043 62.8487 80.2159 62.8864 79.565 63.2626C78.2516 64.0215 77.1854 65.8661 77.1854 67.384C77.1854 68.1285 77.4458 68.6545 77.8597 68.9096L77.8754 68.9187L77.891 68.9278L78.4286 69.2389L78.5184 69.0814C78.8876 69.0646 79.2463 68.953 79.5598 68.7573C80.8746 67.9984 81.9394 66.1538 81.9394 64.636C81.9526 64.2597 81.8678 63.8865 81.6934 63.5529Z" fill="#263238"/>
<path d="M81.8548 67.3267C82.784 65.7173 82.7842 63.9778 81.8553 63.4414C80.9263 62.9051 79.42 63.7751 78.4908 65.3845C77.5616 66.994 77.5613 68.7335 78.4903 69.2698C79.4192 69.8061 80.9255 68.9362 81.8548 67.3267Z" fill="#263238"/>
<path d="M81.7688 67.278C82.6981 65.6686 82.6983 63.9291 81.7693 63.3927C80.8404 62.8564 79.3341 63.7264 78.4048 65.3358C77.4756 66.9453 77.4754 68.6848 78.4043 69.2211C79.3333 69.7574 80.8396 68.8875 81.7688 67.278Z" fill="#37474F"/>
<path d="M80.3311 64.4735C80.2777 64.4931 80.2452 64.4488 80.2582 64.3746L80.3675 63.742C80.3731 63.7064 80.3868 63.6726 80.4076 63.6433C80.4283 63.6139 80.4556 63.5898 80.4873 63.5727C80.5394 63.5532 80.5732 63.5975 80.5602 63.6717L80.4508 64.303C80.4455 64.3388 80.4319 64.3728 80.4111 64.4024C80.3903 64.432 80.3629 64.4564 80.3311 64.4735Z" fill="#10B981"/>
<path d="M79.4347 65.1567C79.4286 65.1599 79.4219 65.1618 79.415 65.1622C79.4082 65.1626 79.4013 65.1615 79.3949 65.1591C79.3885 65.1566 79.3827 65.1528 79.3779 65.1479C79.373 65.143 79.3693 65.1371 79.367 65.1307L79.1899 64.7167C79.1822 64.6821 79.183 64.6461 79.1923 64.6119C79.2016 64.5776 79.2191 64.5461 79.2433 64.5202C79.2941 64.4603 79.3513 64.4525 79.3735 64.5006L79.5505 64.9146C79.5582 64.949 79.5574 64.9848 79.5481 65.0189C79.5388 65.0529 79.5213 65.0841 79.4971 65.1099C79.4813 65.1312 79.4596 65.1474 79.4347 65.1567Z" fill="#10B981"/>
<path d="M78.75 66.3347C78.7405 66.3364 78.7308 66.3364 78.7213 66.3347L78.3308 66.2969C78.2839 66.2969 78.2696 66.2266 78.2983 66.1498C78.3269 66.073 78.3881 66.0197 78.4284 66.0197L78.819 66.0574C78.8645 66.0574 78.8801 66.1277 78.8515 66.2045C78.8441 66.2319 78.8313 66.2574 78.8138 66.2798C78.7964 66.3021 78.7747 66.3208 78.75 66.3347Z" fill="#10B981"/>
<path d="M78.075 67.9111C78.0333 67.9267 78.0021 67.9046 77.9995 67.8525C77.9994 67.8157 78.0076 67.7793 78.0233 67.746C78.0391 67.7126 78.0621 67.6832 78.0906 67.6599L78.5527 67.3071C78.6074 67.2654 78.6555 67.2837 78.6595 67.3488C78.6592 67.3856 78.6509 67.4219 78.6352 67.4552C78.6195 67.4885 78.5966 67.5179 78.5683 67.5414L78.1049 67.8942C78.096 67.9015 78.0858 67.9072 78.075 67.9111Z" fill="#10B981"/>
<path d="M78.526 68.9682C78.5181 68.9728 78.5091 68.9752 78.5 68.9752C78.4908 68.9752 78.4818 68.9728 78.4739 68.9682C78.4388 68.9409 78.444 68.8602 78.4856 68.7886L78.8397 68.1794C78.8814 68.1078 78.9439 68.0726 78.979 68.1C79.0142 68.1273 79.0089 68.2093 78.9673 68.2809L78.6145 68.8888C78.5941 68.924 78.5631 68.9518 78.526 68.9682Z" fill="#10B981"/>
<path d="M79.5374 69.0633C79.484 69.0828 79.4514 69.0385 79.4645 68.9643L79.5738 68.333C79.5791 68.2974 79.5926 68.2635 79.6131 68.2339C79.6337 68.2043 79.6607 68.1799 79.6923 68.1624C79.7456 68.1429 79.7782 68.1872 79.7652 68.2614L79.6558 68.894C79.6502 68.9294 79.6366 68.963 79.6161 68.9923C79.5956 69.0216 79.5687 69.0459 79.5374 69.0633Z" fill="#10B981"/>
<path d="M80.7201 68.1623C80.714 68.1655 80.7072 68.1673 80.7003 68.1677C80.6934 68.168 80.6864 68.1668 80.68 68.1642C80.6736 68.1616 80.6678 68.1577 80.663 68.1526C80.6583 68.1476 80.6547 68.1416 80.6524 68.135L80.4754 67.7276C80.4677 67.6931 80.4685 67.6573 80.4778 67.6233C80.4871 67.5893 80.5046 67.558 80.5288 67.5323C80.5795 67.4724 80.6381 67.4633 80.659 67.5128L80.8347 67.9254C80.8424 67.9601 80.8416 67.9961 80.8323 68.0303C80.823 68.0646 80.8055 68.096 80.7813 68.122C80.7643 68.14 80.7434 68.1538 80.7201 68.1623Z" fill="#10B981"/>
<path d="M81.6229 66.6082C81.6134 66.6101 81.6037 66.6101 81.5942 66.6082L81.2037 66.5705C81.1581 66.5705 81.1438 66.5002 81.1725 66.4234C81.2011 66.3466 81.261 66.2932 81.3026 66.2932L81.6932 66.331C81.74 66.331 81.7543 66.4013 81.7257 66.4781C81.7096 66.5331 81.6727 66.5798 81.6229 66.6082Z" fill="#10B981"/>
<path d="M81.4397 65.3467C81.3993 65.3623 81.3681 65.3389 81.3642 65.2868C81.3644 65.2502 81.3727 65.2141 81.3884 65.181C81.4042 65.148 81.427 65.1188 81.4553 65.0955L81.9187 64.7414C81.9734 64.6998 82.0202 64.7193 82.0254 64.7844C82.0245 64.8209 82.0159 64.8568 82.0002 64.8897C81.9845 64.9227 81.9621 64.952 81.9343 64.9757L81.4696 65.3298C81.4605 65.3368 81.4504 65.3425 81.4397 65.3467Z" fill="#10B981"/>
<path d="M81.097 64.546C81.0891 64.5506 81.0801 64.553 81.0709 64.553C81.0618 64.553 81.0528 64.5506 81.0449 64.546C81.0098 64.5186 81.015 64.4379 81.0566 64.3663L81.4094 63.7571C81.451 63.6855 81.5135 63.6504 81.55 63.6777C81.5864 63.7051 81.5799 63.7871 81.5383 63.8587L81.1842 64.4666C81.1642 64.5016 81.1337 64.5294 81.097 64.546Z" fill="#10B981"/>
<path d="M81.2417 64.8952C81.0152 64.5593 80.583 64.4916 80.087 64.778C79.358 65.1998 78.7657 66.2256 78.7657 67.0678C78.7657 67.6705 79.0678 68.0142 79.5064 68.0103L80.5231 68.0337L81.8027 65.6905L81.2417 64.8952Z" fill="#263238"/>
<path d="M80.948 65.6252C80.6614 65.8133 80.4232 66.0663 80.2527 66.3638C80.0821 66.6612 79.9841 66.9946 79.9665 67.337C79.9665 67.9657 80.4078 68.2195 80.9519 67.9058C81.2387 67.7188 81.4773 67.4668 81.6485 67.1703C81.8197 66.8738 81.9187 66.5411 81.9373 66.1992C81.9373 65.5666 81.496 65.3114 80.948 65.6252Z" fill="#455A64"/>
<path d="M85.6529 61.3659C85.6616 61.1524 85.6118 60.9406 85.5088 60.7533C85.4057 60.5661 85.2535 60.4106 85.0684 60.3037L83.3059 59.287H83.2981C83.214 59.2503 83.1218 59.236 83.0305 59.2456C82.9392 59.2552 82.852 59.2883 82.7774 59.3417C82.5589 59.4844 82.3774 59.6767 82.2475 59.9029C82.1177 60.1292 82.0432 60.3829 82.0302 60.6435C82.0302 60.9038 82.1343 61.0887 82.2996 61.1511H82.31L84.0023 61.6875C84.1855 61.7455 84.3467 61.8582 84.4642 62.0103C84.5816 62.1625 84.6499 62.3468 84.6597 62.5388L84.8537 66.1538C84.8587 66.2313 84.8931 66.3039 84.9498 66.3571C85.0065 66.4102 85.0812 66.4397 85.1589 66.4397C85.2366 66.4397 85.3114 66.4102 85.3681 66.3571C85.4247 66.3039 85.4591 66.2313 85.4642 66.1538L85.6529 61.3659Z" fill="#263238"/>
<path d="M86.1677 44.9899C86.1677 44.9899 83.9742 48.2533 83.6059 49.0565C83.4822 49.3286 83.3754 49.4718 83.8206 49.93C84.2658 50.3882 85.9034 51.7524 86.0635 51.9568C86.2237 52.1612 86.2172 52.4775 86.3408 52.7574C86.4645 53.0373 86.3226 53.7858 86.4345 54.2466C86.5465 54.7074 87.7545 54.0305 87.7545 52.8524C87.7545 52.1911 87.7766 51.811 87.3731 51.4999C86.9696 51.1888 85.2903 49.2205 85.2903 49.2205L86.816 46.9204L86.1677 44.9899Z" fill="#FFA8A7"/>
<path d="M86.6197 47.5752C87.1404 46.8892 87.9956 45.8726 87.9956 45.8726C88.3939 45.3167 88.7181 43.8783 88.088 43.3992C87.661 43.3355 87.2575 43.3472 86.6561 44.0944C86.0547 44.8416 85.465 45.6669 84.8402 46.5846C84.2153 47.5023 83.3835 48.8379 83.3835 49.3183C83.3835 49.7986 84.352 50.6005 85.2255 51.1954C85.2862 50.9622 85.4182 50.7537 85.603 50.599C85.7878 50.4443 86.0162 50.3511 86.2565 50.3323L85.4364 49.1855C85.4364 49.1855 86.1003 48.2613 86.6197 47.5752Z" fill="#10B981"/>
<path opacity="0.05" d="M86.6197 47.5752C87.1404 46.8892 87.9956 45.8726 87.9956 45.8726C88.3939 45.3167 88.7181 43.8783 88.088 43.3992C87.661 43.3355 87.2575 43.3472 86.6561 44.0944C86.0547 44.8416 85.465 45.6669 84.8402 46.5846C84.2153 47.5023 83.3835 48.8379 83.3835 49.3183C83.3835 49.7986 84.352 50.6005 85.2255 51.1954C85.2862 50.9622 85.4182 50.7537 85.603 50.599C85.7878 50.4443 86.0162 50.3511 86.2565 50.3323L85.4364 49.1855C85.4364 49.1855 86.1003 48.2613 86.6197 47.5752Z" fill="black"/>
<path d="M86.6752 44.4056C86.7923 44.4218 86.905 44.4614 87.0065 44.522C87.1081 44.5826 87.1964 44.6629 87.2662 44.7583L87.2884 44.7232C87.3002 44.7056 87.3056 44.6845 87.3037 44.6634C87.3018 44.6423 87.2927 44.6225 87.2779 44.6073C87.1514 44.465 86.9841 44.3651 86.7989 44.3209C86.7812 44.3176 86.7628 44.3195 86.7462 44.3264C86.7295 44.3334 86.7153 44.345 86.7052 44.36L86.6752 44.4056Z" fill="#37474F"/>
<path d="M86.9528 45.1072C86.8343 45.2881 86.6287 45.3675 86.492 45.2738C86.3553 45.1801 86.341 44.9666 86.4594 44.7843C86.5779 44.6021 86.7849 44.524 86.9203 44.6177C87.0556 44.7114 87.0661 44.9262 86.9528 45.1072Z" fill="#37474F"/>
<path d="M69.6399 77.595L55.1098 69.2065L47.8448 73.4008L62.3749 81.7892L69.6399 77.595Z" fill="#10B981"/>
<path opacity="0.15" d="M48.6087 73.4008L62.3746 81.3414L68.8755 77.5885L55.1096 69.6478L48.6087 73.4008ZM48.9914 73.4008L55.1096 69.8678L68.4928 77.5937L62.3746 81.1266L48.9914 73.4008Z" fill="black"/>
<g opacity="0.15">
<path d="M59.0139 77.6692C58.0233 77.6692 57.0079 77.4414 56.2243 76.9884C55.4614 76.5484 55.0253 75.947 55.0253 75.3417C55.0253 74.7845 55.3833 74.2716 56.0329 73.8954C57.4219 73.0948 59.7663 73.1443 61.2607 74.0061C62.0222 74.4461 62.4596 75.0475 62.4596 75.6541C62.4596 76.2099 62.1016 76.7241 61.4521 77.099C60.8025 77.4739 59.9134 77.6692 59.0139 77.6692ZM58.4711 73.4554C57.595 73.4554 56.741 73.639 56.098 74.01C55.4901 74.3614 55.1555 74.834 55.1555 75.343C55.1555 75.9014 55.5682 76.4612 56.2893 76.8777C57.7473 77.7186 60.0345 77.7694 61.387 76.9884C61.9949 76.6369 62.3294 76.1631 62.3294 75.6554C62.3294 75.0956 61.9168 74.5372 61.1956 74.1206C60.4302 73.678 59.437 73.4554 58.4711 73.4554Z" fill="black"/>
</g>
<g opacity="0.1">
<path d="M59.013 77.2005C58.0719 77.2005 57.1411 76.9753 56.459 76.5809C55.8459 76.2268 55.4944 75.7751 55.4944 75.3416C55.4944 74.9602 55.7691 74.5918 56.2677 74.3002C56.8365 73.9722 57.6189 73.7913 58.4702 73.7913C59.4114 73.7913 60.3421 74.0178 61.0242 74.4109C61.6373 74.765 61.9888 75.2167 61.9888 75.6515C61.9888 76.0329 61.7141 76.4013 61.2156 76.6928C60.6467 77.0196 59.8592 77.2005 59.013 77.2005Z" fill="black"/>
</g>
<path opacity="0.1" d="M61.6092 80.3544L57.6154 78.0334L57.9356 78.075C58.2214 78.1116 58.5093 78.1298 58.7974 78.1297C59.7686 78.1122 60.7214 77.8613 61.5753 77.3981C62.2822 76.9907 62.9955 76.2604 62.9955 75.5497C62.994 75.3017 62.9389 75.0571 62.8341 74.8324L62.7482 74.6462L67.122 77.1859L66.643 77.4632C66.5623 77.5101 66.5128 77.5674 66.5128 77.6272C66.5181 77.6636 66.5329 77.698 66.5558 77.7268C66.5787 77.7556 66.6088 77.7778 66.643 77.7913L67.1233 78.0685L63.1387 80.3544L62.7234 80.111C62.6148 80.0565 62.4949 80.0281 62.3733 80.0281C62.2517 80.0281 62.1318 80.0565 62.0231 80.111L61.6092 80.3544Z" fill="black"/>
<path d="M63.3749 78.7287C63.1425 78.7323 62.9131 78.6763 62.7084 78.566C62.6256 78.5283 62.5542 78.4694 62.5012 78.3954C62.4482 78.3214 62.4155 78.2348 62.4064 78.1443C62.4118 78.0639 62.4389 77.9865 62.4847 77.9203C62.5306 77.8541 62.5935 77.8015 62.6668 77.7681C62.8629 77.6738 63.0783 77.627 63.2959 77.6313C63.5134 77.6355 63.7268 77.6909 63.919 77.7928C64.002 77.8307 64.0736 77.8897 64.1266 77.9639C64.1796 78.0382 64.2122 78.1251 64.221 78.2159C64.2158 78.2963 64.1887 78.3737 64.1429 78.44C64.097 78.5062 64.0341 78.5588 63.9607 78.5921C63.7802 78.6865 63.5786 78.7335 63.3749 78.7287Z" fill="#10B981"/>
<path opacity="0.1" d="M54.746 76.3478L50.3812 73.8328L50.8603 73.5568C50.8965 73.5471 50.9285 73.5257 50.9513 73.4959C50.9741 73.4661 50.9865 73.4297 50.9865 73.3922C50.9865 73.3547 50.9741 73.3182 50.9513 73.2884C50.9285 73.2587 50.8965 73.2372 50.8603 73.2275L50.3799 72.9502L54.3581 70.6852L54.772 70.9247C54.8805 70.979 55.0002 71.0073 55.1215 71.0073C55.2429 71.0073 55.3626 70.979 55.4711 70.9247L55.8863 70.6852L59.8788 72.9828L59.5559 72.9411C59.2697 72.9045 58.9814 72.8862 58.6929 72.8864C57.7465 72.8864 56.6166 73.1715 55.8798 73.5972C54.9608 74.1283 54.4948 74.6972 54.4948 75.2895C54.4977 75.5883 54.5546 75.8842 54.6627 76.1629L54.746 76.3478Z" fill="black"/>
<path d="M54.225 73.4709C53.9921 73.4743 53.7623 73.4183 53.5572 73.3082C53.4744 73.2701 53.4031 73.211 53.3503 73.1368C53.2976 73.0626 53.2652 72.9758 53.2565 72.8851C53.2618 72.8049 53.2889 72.7277 53.3348 72.6617C53.3806 72.5956 53.4435 72.5433 53.5168 72.5102C53.7128 72.4157 53.9283 72.3687 54.1459 72.373C54.3635 72.3772 54.577 72.4327 54.7691 72.535C54.8518 72.573 54.9231 72.6321 54.9759 72.7064C55.0287 72.7806 55.061 72.8674 55.0698 72.958C55.0643 73.0382 55.0371 73.1154 54.9913 73.1814C54.9455 73.2474 54.8826 73.2998 54.8094 73.3329C54.6296 73.4282 54.4284 73.4757 54.225 73.4709Z" fill="#10B981"/>
<path d="M69.6404 77.5948V79.36L62.3754 83.5542V81.7891L69.6404 77.5948Z" fill="#10B981"/>
<g opacity="0.4">
<path d="M69.6416 77.5948V79.36L62.3766 83.5542V81.7891L69.6416 77.5948Z" fill="white"/>
</g>
<path d="M62.3754 82.1821L64.6691 80.9064L62.3754 82.2888V82.1821Z" fill="#10B981"/>
<path d="M69.6398 78.4335L68.8744 78.919L69.6398 78.522V78.4335Z" fill="#10B981"/>
<path d="M69.6409 78.8536L65.8177 81.1265L69.6409 78.9838V78.8536Z" fill="#10B981"/>
<path d="M62.3754 82.6026L66.1986 80.4639L62.3754 82.7419V82.6026Z" fill="#10B981"/>
<path d="M62.3749 83.5544L47.8448 75.1659V73.4008L62.3749 81.7892V83.5544Z" fill="#10B981"/>
<g opacity="0.15">
<path d="M62.3749 83.5544L47.8448 75.1659V73.4008L62.3749 81.7892V83.5544Z" fill="black"/>
</g>
<g style="mix-blend-mode:multiply" opacity="0.3">
<path d="M62.3757 82.1823L61.6103 81.7892L62.3757 82.2891V82.1823Z" fill="black"/>
</g>
<g style="mix-blend-mode:multiply" opacity="0.3">
<path d="M62.3762 82.6027L58.5309 80.4535L62.3762 82.742V82.6027Z" fill="black"/>
</g>
<g style="mix-blend-mode:multiply" opacity="0.3">
<path d="M47.8448 74.2313L50.5212 75.8286L47.8448 74.3355V74.2313Z" fill="black"/>
</g>
<g style="mix-blend-mode:multiply" opacity="0.3">
<path d="M47.8448 74.6752L49.3743 75.6085L47.8448 74.7741V74.6752Z" fill="black"/>
</g>
<path d="M63.6406 73.8382L56.1231 78.1796L53.8294 76.8557L61.347 72.5131L63.6406 73.8382Z" fill="#FAFAFA"/>
<path d="M53.8294 76.8556V78.777L56.123 80.1008V78.1795L53.8294 76.8556Z" fill="#EBEBEB"/>
<path d="M56.1222 80.1007L56.2563 80.0226L56.1222 79.9458V80.1007Z" fill="#E0E0E0"/>
<path d="M63.6402 73.8383V74.1311L63.3863 73.9841L63.6402 73.8383Z" fill="#E0E0E0"/>
<g style="mix-blend-mode:multiply" opacity="0.3">
<path d="M56.2575 80.0215V78.2577L56.1234 78.1796V79.9447L56.2575 80.0215Z" fill="black"/>
</g>
<g style="mix-blend-mode:multiply" opacity="0.2">
<path d="M56.2575 78.2576L63.5225 74.0621L63.3872 73.984L56.1234 78.1795L56.2575 78.2576Z" fill="black"/>
</g>
<path d="M63.3944 73.6949L55.8742 78.0362L55.6842 77.9256L63.2018 73.5856L63.3944 73.6949Z" fill="#455A64"/>
<path d="M61.7866 72.7682L54.2677 77.1082L54.0776 76.9988L61.5952 72.6588L61.7866 72.7682Z" fill="#455A64"/>
<path d="M55.8742 78.0363V79.9577L55.6842 79.847V77.9257L55.8742 78.0363Z" fill="#263238"/>
<path d="M54.2678 77.1081V79.0295L54.0764 78.9189L54.0777 76.9988L54.2678 77.1081Z" fill="#263238"/>
<path d="M69.64 75.5148L55.1099 67.1263L47.8449 71.3206L62.3749 79.709L69.64 75.5148Z" fill="#10B981"/>
<path opacity="0.15" d="M48.6087 71.3206L62.3746 79.2612L68.8755 75.5083L55.1096 67.5676L48.6087 71.3206ZM48.9914 71.3206L55.1096 67.7889L68.4928 75.5148L62.3746 79.0477L48.9914 71.3206Z" fill="black"/>
<g opacity="0.15">
<path d="M59.0139 75.5903C58.0233 75.5903 57.0079 75.3612 56.2243 74.9095C55.4614 74.4695 55.0253 73.8681 55.0253 73.2615C55.0253 72.7057 55.3833 72.1915 56.0329 71.8166C57.4219 71.0147 59.7663 71.0642 61.2607 71.9272C62.0222 72.3672 62.4596 72.9686 62.4596 73.5752C62.4596 74.1311 62.1016 74.6439 61.4521 75.0202C60.8025 75.3964 59.9134 75.5903 59.0139 75.5903ZM58.4711 71.3727C57.595 71.3727 56.741 71.5562 56.098 71.9285C55.4901 72.2787 55.1555 72.7525 55.1555 73.2602C55.1555 73.8199 55.5682 74.3797 56.2893 74.795C57.7473 75.6372 60.0345 75.6866 61.387 74.9056C61.9949 74.5541 62.3294 74.0816 62.3294 73.5739C62.3294 73.0142 61.9168 72.4544 61.1956 72.0379C60.4302 71.5979 59.437 71.3727 58.4711 71.3727Z" fill="black"/>
</g>
<g opacity="0.1">
<path d="M59.013 75.1219C58.0719 75.1219 57.1411 74.8954 56.459 74.5022C55.8459 74.1482 55.4944 73.6965 55.4944 73.2617C55.4944 72.8803 55.7691 72.5119 56.2677 72.2203C56.8365 71.8922 57.6189 71.7113 58.4702 71.7113C59.4114 71.7113 60.3421 71.9365 61.0242 72.3309C61.6373 72.685 61.9888 73.1367 61.9888 73.5715C61.9888 73.9529 61.7141 74.3213 61.2156 74.6129C60.6467 74.9409 59.8592 75.1219 59.013 75.1219Z" fill="black"/>
</g>
<path opacity="0.1" d="M61.6092 78.2717L57.6154 75.952L57.9356 75.9936C58.2214 76.0301 58.5093 76.0484 58.7974 76.0483C59.7686 76.0308 60.7214 75.7798 61.5753 75.3167C62.2822 74.9093 62.9955 74.179 62.9955 73.4669C62.9939 73.2194 62.9388 72.9752 62.8341 72.751L62.7482 72.5648L67.122 75.1032L66.643 75.3805C66.6089 75.3941 66.5789 75.4164 66.5561 75.4452C66.5333 75.474 66.5184 75.5082 66.5128 75.5445C66.5179 75.5811 66.5326 75.6158 66.5555 75.6448C66.5784 75.6739 66.6086 75.6963 66.643 75.7098L67.1233 75.9871L63.1387 78.2717L62.7234 78.0321C62.6148 77.9776 62.4949 77.9492 62.3733 77.9492C62.2517 77.9492 62.1318 77.9776 62.0231 78.0321L61.6092 78.2717Z" fill="black"/>
<path d="M63.3749 76.65C63.1425 76.6535 62.9131 76.5975 62.7084 76.4873C62.6254 76.4494 62.5539 76.3904 62.5009 76.3161C62.4479 76.2419 62.4153 76.155 62.4064 76.0642C62.4121 75.9841 62.4392 75.907 62.4851 75.841C62.5309 75.775 62.5937 75.7226 62.6668 75.6893C62.8628 75.5948 63.0783 75.5477 63.2959 75.552C63.5134 75.5563 63.7269 75.6118 63.919 75.714C64.002 75.7519 64.0736 75.8109 64.1266 75.8852C64.1796 75.9594 64.2122 76.0463 64.221 76.1371C64.2157 76.2173 64.1886 76.2945 64.1428 76.3606C64.0969 76.4266 64.034 76.4789 63.9607 76.512C63.7805 76.6075 63.5788 76.655 63.3749 76.65Z" fill="#10B981"/>
<path opacity="0.1" d="M54.746 74.2689L50.3812 71.7539L50.8603 71.4766C50.8945 71.4632 50.9246 71.441 50.9475 71.4122C50.9704 71.3834 50.9852 71.349 50.9905 71.3126C50.9905 71.2527 50.9462 71.1955 50.8603 71.1486L50.3799 70.87L54.3581 68.605L54.772 68.8458C54.8807 68.8994 55.0003 68.9273 55.1215 68.9273C55.2428 68.9273 55.3624 68.8994 55.4711 68.8458L55.8863 68.6063L59.8788 70.9052L59.5559 70.8635C59.2697 70.8265 58.9815 70.8078 58.6929 70.8075C57.7465 70.8075 56.6166 71.0939 55.8798 71.5196C54.9608 72.0507 54.4948 72.6196 54.4948 73.2119C54.498 73.5107 54.5549 73.8066 54.6627 74.0853L54.746 74.2689Z" fill="black"/>
<path d="M54.225 71.3923C53.9921 71.3956 53.7623 71.3396 53.5572 71.2295C53.4744 71.1915 53.4031 71.1324 53.3503 71.0581C53.2976 70.9839 53.2652 70.8971 53.2565 70.8065C53.2617 70.7261 53.2888 70.6486 53.3346 70.5824C53.3805 70.5161 53.4434 70.4635 53.5168 70.4303C53.7129 70.3359 53.9285 70.2891 54.1461 70.2936C54.3636 70.2982 54.5771 70.3539 54.7691 70.4563C54.8516 70.4942 54.9228 70.5531 54.9756 70.6271C55.0284 70.7011 55.0608 70.7876 55.0698 70.8781C55.0645 70.9585 55.0375 71.0359 54.9916 71.1022C54.9458 71.1684 54.8828 71.221 54.8094 71.2543C54.6296 71.3495 54.4284 71.3971 54.225 71.3923Z" fill="#10B981"/>
<path d="M69.6404 75.5146V77.2811L62.3754 81.4753V79.7089L69.6404 75.5146Z" fill="#10B981"/>
<g opacity="0.4">
<path d="M69.6416 75.5146V77.2811L62.3766 81.4753V79.7089L69.6416 75.5146Z" fill="white"/>
</g>
<path d="M62.3754 80.1032L64.6691 78.8262L62.3754 80.2099V80.1032Z" fill="#10B981"/>
<path d="M69.6398 76.3542L68.8744 76.8398L69.6398 76.4428V76.3542Z" fill="#10B981"/>
<path d="M69.6409 76.775L65.8177 79.0479L69.6409 76.9052V76.775Z" fill="#10B981"/>
<path d="M62.3754 80.5238L66.1986 78.385L62.3754 80.6618V80.5238Z" fill="#10B981"/>
<path d="M62.3749 81.4756L47.8448 73.0871V71.3207L62.3749 79.7091V81.4756Z" fill="#10B981"/>
<g opacity="0.15">
<path d="M62.3749 81.4756L47.8448 73.0871V71.3207L62.3749 79.7091V81.4756Z" fill="black"/>
</g>
<g style="mix-blend-mode:multiply" opacity="0.3">
<path d="M62.3757 80.1034L61.6103 79.709L62.3757 80.2102V80.1034Z" fill="black"/>
</g>
<g style="mix-blend-mode:multiply" opacity="0.3">
<path d="M62.3762 80.5237L58.5309 78.3745L62.3762 80.6617V80.5237Z" fill="black"/>
</g>
<g style="mix-blend-mode:multiply" opacity="0.3">
<path d="M47.8448 72.1525L50.5212 73.7497L47.8448 72.2566V72.1525Z" fill="black"/>
</g>
<g style="mix-blend-mode:multiply" opacity="0.3">
<path d="M47.8448 72.5963L49.3743 73.5284L47.8448 72.6952V72.5963Z" fill="black"/>
</g>
<path d="M63.6406 71.7578L56.1231 76.0991L53.8294 74.7753L61.347 70.434L63.6406 71.7578Z" fill="#FAFAFA"/>
<path d="M53.8294 74.7753V76.6966L56.123 78.0205V76.0991L53.8294 74.7753Z" fill="#EBEBEB"/>
<path d="M56.1222 78.0204L56.2563 77.9436L56.1222 77.8655V78.0204Z" fill="#E0E0E0"/>
<path d="M63.6402 71.7578V72.052L63.3863 71.9049L63.6402 71.7578Z" fill="#E0E0E0"/>
<g style="mix-blend-mode:multiply" opacity="0.3">
<path d="M56.2575 77.9425V76.1773L56.1234 76.0992V77.8657L56.2575 77.9425Z" fill="black"/>
</g>
<g style="mix-blend-mode:multiply" opacity="0.2">
<path d="M56.2575 76.1774L63.5225 71.9831L63.3872 71.905L56.1234 76.0992L56.2575 76.1774Z" fill="black"/>
</g>
<path d="M63.3944 71.616L55.8742 75.956L55.6842 75.8467L63.2018 71.5054L63.3944 71.616Z" fill="#455A64"/>
<path d="M61.7866 70.6893L54.2677 75.0293L54.0776 74.9186L61.5952 70.5786L61.7866 70.6893Z" fill="#455A64"/>
<path d="M55.8742 75.956V77.8787L55.6842 77.7681V75.8467L55.8742 75.956Z" fill="#263238"/>
<path d="M54.2678 75.0291V76.9505L54.0764 76.8398L54.0777 74.9185L54.2678 75.0291Z" fill="#263238"/>
</g>
<defs>
<filter id="filter0_d_1_10323" x="0.866703" y="0.864013" width="142.266" height="142.266" filterUnits="userSpaceOnUse" color-interpolation-filters="sRGB">
<feFlood flood-opacity="0" result="BackgroundImageFix"/>
<feColorMatrix in="SourceAlpha" type="matrix" values="0 0 0 0 0 0 0 0 0 0 0 0 0 0 0 0 0 0 127 0" result="hardAlpha"/>
<feOffset dy="9.53332"/>
<feGaussianBlur stdDeviation="13.5666"/>
<feColorMatrix type="matrix" values="0 0 0 0 0 0 0 0 0 0 0 0 0 0 0 0 0 0 0.21 0"/>
<feBlend mode="normal" in2="BackgroundImageFix" result="effect1_dropShadow_1_10323"/>
<feBlend mode="normal" in="SourceGraphic" in2="effect1_dropShadow_1_10323" result="shape"/>
</filter>
</defs>
</svg>
