<svg width="445" height="447" viewBox="0 0 445 447" fill="none" xmlns="http://www.w3.org/2000/svg">
<g opacity="0.2">
<path d="M123.717 95.4866H120.343V107.717H123.717C128.768 107.717 130.34 105.435 130.34 101.4C130.34 97.3652 128.768 95.4866 123.717 95.4866Z" stroke="black" stroke-width="0.604701" stroke-miterlimit="10"/>
<path d="M121.954 49.4512C113.464 49.4493 105.165 51.9649 98.1057 56.6799C91.0462 61.3949 85.5435 68.0974 82.2935 75.9399C79.0435 83.7824 78.1922 92.4126 79.8472 100.739C81.5022 109.065 85.5892 116.714 91.5913 122.717C97.5934 128.721 105.241 132.809 113.567 134.466C121.893 136.123 130.523 135.274 138.367 132.026C146.21 128.777 152.914 123.276 157.63 116.218C162.347 109.159 164.864 100.861 164.864 92.3715C164.864 80.99 160.344 70.0745 152.297 62.0256C144.25 53.9768 133.335 49.4537 121.954 49.4512V49.4512ZM121.954 129.004C114.713 129.006 107.635 126.861 101.614 122.839C95.5929 118.818 90.8998 113.101 88.1281 106.412C85.3564 99.7235 84.6308 92.3629 86.0428 85.2615C87.4549 78.1601 90.9413 71.637 96.061 66.5173C101.181 61.3976 107.704 57.9112 114.805 56.4991C121.907 55.087 129.267 55.8127 135.956 58.5844C142.645 61.3561 148.362 66.0492 152.383 72.0701C156.404 78.0911 158.55 85.1694 158.548 92.4098C158.525 102.105 154.661 111.395 147.802 118.247C140.943 125.099 131.648 128.953 121.954 128.966V129.004Z" stroke="black" stroke-width="0.604701" stroke-miterlimit="10"/>
<path d="M129.372 83.9849C129.372 80.429 127.81 78.6846 123.353 78.6846H120.343V89.4099H123.353C127.752 89.4099 129.372 87.5408 129.372 83.9849Z" stroke="black" stroke-width="0.604701" stroke-miterlimit="10"/>
<path d="M121.954 58.2883C115.212 58.2864 108.622 60.2838 103.015 64.0277C97.4091 67.7717 93.0391 73.0941 90.4579 79.3218C87.8768 85.5495 87.2004 92.4028 88.5145 99.015C89.8285 105.627 93.0738 111.701 97.8401 116.469C102.606 121.236 108.679 124.483 115.291 125.799C121.903 127.115 128.756 126.441 134.985 123.861C141.213 121.282 146.537 116.913 150.282 111.308C154.028 105.703 156.027 99.113 156.027 92.3715C156.017 83.3369 152.424 74.675 146.037 68.2857C139.649 61.8963 130.988 58.301 121.954 58.2883V58.2883ZM128.778 112.346V120.014H124.446V112.672H120.42V120.004H116.088V112.662H106.417V106.912H108.334C108.751 106.849 109.135 106.651 109.428 106.347C109.721 106.044 109.905 105.653 109.953 105.234V80.8891C109.905 80.4703 109.721 80.079 109.428 79.7758C109.135 79.4726 108.751 79.2743 108.334 79.2117H106.417V73.4609H116.069V66.0807H120.401V73.4609H124.426V66.1286H128.759V73.7964C135.593 74.7549 139.196 77.9561 139.196 83.5344C139.196 88.461 136.398 90.8667 131.251 91.9306V92.1511C137.232 93.052 140.538 95.985 140.538 101.276C140.538 107.659 136.11 111.32 128.759 112.346H128.778Z" stroke="black" stroke-width="0.604701" stroke-miterlimit="10"/>
</g>
<g opacity="0.2">
<path d="M404.645 79.6911V8.74512L437.357 61.854L404.645 79.6911Z" stroke="black" stroke-width="0.604701" stroke-miterlimit="10"/>
<path d="M404.644 79.6911L372.785 61.4226L404.644 8.74512" stroke="black" stroke-width="0.604701" stroke-miterlimit="10"/>
<path d="M372.785 61.4226L404.223 47.4098L437.357 61.8539" stroke="black" stroke-width="0.604701" stroke-miterlimit="10"/>
<path d="M373.724 67.0488L405.047 85.1064L437.031 66.6079L404.836 110.343L373.724 67.0488Z" stroke="black" stroke-width="0.604701" stroke-miterlimit="10"/>
<path d="M405.047 85.1064V110.343" stroke="black" stroke-width="0.604701" stroke-miterlimit="10"/>
<path d="M374.558 61.4226C374.558 61.0696 374.453 60.7246 374.257 60.4312C374.061 60.1378 373.782 59.9093 373.455 59.7747C373.129 59.64 372.77 59.6053 372.424 59.6749C372.078 59.7444 371.76 59.9152 371.511 60.1654C371.263 60.4157 371.093 60.7343 371.026 61.0807C370.958 61.4272 370.995 61.7859 371.131 62.1115C371.268 62.4371 371.498 62.7149 371.792 62.9096C372.086 63.1043 372.432 63.2073 372.785 63.2054C373.019 63.2054 373.25 63.1592 373.466 63.0695C373.682 62.9798 373.877 62.8483 374.042 62.6826C374.207 62.517 374.337 62.3204 374.426 62.1041C374.515 61.8879 374.559 61.6563 374.558 61.4226V61.4226Z" stroke="black" stroke-width="0.604701" stroke-miterlimit="10"/>
<path d="M406.389 79.0105C406.387 78.6602 406.282 78.3184 406.086 78.028C405.89 77.7377 405.612 77.5119 405.288 77.3792C404.964 77.2464 404.607 77.2127 404.264 77.2822C403.921 77.3517 403.606 77.5213 403.359 77.7697C403.112 78.018 402.944 78.334 402.876 78.6777C402.809 79.0214 402.844 79.3774 402.979 79.7009C403.113 80.0243 403.34 80.3007 403.632 80.4951C403.923 80.6895 404.266 80.7933 404.616 80.7933C404.85 80.7933 405.081 80.7471 405.297 80.6574C405.512 80.5677 405.708 80.4362 405.873 80.2706C406.038 80.1049 406.168 79.9083 406.257 79.692C406.345 79.4758 406.39 79.2442 406.389 79.0105V79.0105Z" stroke="black" stroke-width="0.604701" stroke-miterlimit="10"/>
<path d="M439.13 61.854C439.132 61.5006 439.029 61.1546 438.834 60.8599C438.639 60.5653 438.36 60.3353 438.034 60.1992C437.708 60.0631 437.349 60.027 437.002 60.0954C436.656 60.1639 436.337 60.3339 436.087 60.5838C435.837 60.8337 435.667 61.1522 435.599 61.4989C435.53 61.8457 435.566 62.2049 435.702 62.531C435.839 62.8572 436.069 63.1355 436.363 63.3307C436.658 63.5258 437.004 63.629 437.357 63.6271C437.828 63.6271 438.279 63.4403 438.611 63.1078C438.944 62.7752 439.13 62.3242 439.13 61.854V61.854Z" stroke="black" stroke-width="0.604701" stroke-miterlimit="10"/>
<path d="M406.284 9.20518C406.286 8.85218 406.183 8.50657 405.988 8.21214C405.793 7.91771 405.515 7.68772 405.19 7.55131C404.864 7.41491 404.506 7.37824 404.159 7.44594C403.813 7.51364 403.494 7.68267 403.244 7.93161C402.994 8.18054 402.823 8.49818 402.753 8.84426C402.684 9.19034 402.718 9.54928 402.853 9.8756C402.988 10.2019 403.216 10.4809 403.51 10.6772C403.803 10.8735 404.148 10.9783 404.501 10.9784C404.972 10.9784 405.424 10.7918 405.758 10.4596C406.092 10.1273 406.281 9.67633 406.284 9.20518V9.20518Z" stroke="black" stroke-width="0.604701" stroke-miterlimit="10"/>
<path d="M406.283 84.0137C406.283 83.6611 406.179 83.3164 405.983 83.0233C405.787 82.7301 405.509 82.5016 405.183 82.3667C404.857 82.2317 404.499 82.1964 404.153 82.2652C403.807 82.334 403.489 82.5038 403.24 82.7531C402.991 83.0024 402.821 83.3201 402.752 83.6659C402.683 84.0117 402.719 84.3702 402.854 84.6959C402.989 85.0217 403.217 85.3001 403.51 85.496C403.803 85.6919 404.148 85.7965 404.501 85.7965C404.735 85.7977 404.968 85.7525 405.184 85.6634C405.401 85.5742 405.598 85.4429 405.764 85.2771C405.93 85.1113 406.061 84.9143 406.15 84.6974C406.239 84.4806 406.285 84.2482 406.283 84.0137V84.0137Z" stroke="black" stroke-width="0.604701" stroke-miterlimit="10"/>
<path d="M406.283 47.544C406.283 47.1914 406.179 46.8467 405.983 46.5535C405.787 46.2604 405.509 46.0319 405.183 45.8969C404.857 45.762 404.499 45.7267 404.153 45.7955C403.807 45.8643 403.489 46.0341 403.24 46.2834C402.991 46.5327 402.821 46.8504 402.752 47.1962C402.683 47.542 402.719 47.9005 402.854 48.2262C402.989 48.552 403.217 48.8304 403.51 49.0263C403.803 49.2222 404.148 49.3267 404.501 49.3267C404.735 49.328 404.968 49.2828 405.184 49.1936C405.401 49.1045 405.598 48.9732 405.764 48.8074C405.93 48.6416 406.061 48.4446 406.15 48.2277C406.239 48.0108 406.285 47.7785 406.283 47.544V47.544Z" stroke="black" stroke-width="0.604701" stroke-miterlimit="10"/>
<path d="M438.776 66.3971C438.774 66.0449 438.668 65.7012 438.471 65.4093C438.274 65.1173 437.995 64.8903 437.669 64.7569C437.343 64.6234 436.985 64.5895 436.639 64.6593C436.294 64.7292 435.977 64.8997 435.729 65.1494C435.481 65.3991 435.312 65.7168 435.244 66.0624C435.176 66.4079 435.212 66.7659 435.347 67.0911C435.482 67.4163 435.711 67.6942 436.004 67.8896C436.297 68.0851 436.641 68.1894 436.993 68.1894C437.228 68.1894 437.461 68.143 437.678 68.0528C437.894 67.9626 438.091 67.8304 438.257 67.6639C438.423 67.4973 438.554 67.2997 438.643 67.0823C438.732 66.8648 438.777 66.632 438.776 66.3971Z" stroke="black" stroke-width="0.604701" stroke-miterlimit="10"/>
<path d="M406.619 110.362C406.621 110.009 406.518 109.663 406.323 109.368C406.127 109.073 405.849 108.843 405.523 108.707C405.197 108.571 404.838 108.535 404.491 108.604C404.144 108.672 403.826 108.842 403.576 109.092C403.326 109.342 403.156 109.66 403.087 110.007C403.019 110.354 403.055 110.713 403.191 111.039C403.327 111.365 403.557 111.644 403.852 111.839C404.146 112.034 404.492 112.137 404.846 112.135C405.316 112.135 405.767 111.948 406.1 111.616C406.432 111.283 406.619 110.832 406.619 110.362V110.362Z" stroke="black" stroke-width="0.604701" stroke-miterlimit="10"/>
<path d="M375.277 66.6079C375.275 66.2577 375.17 65.9158 374.974 65.6255C374.778 65.3351 374.5 65.1093 374.176 64.9766C373.852 64.8439 373.496 64.8101 373.152 64.8796C372.809 64.9491 372.494 65.1187 372.247 65.3671C372 65.6155 371.832 65.9314 371.764 66.2751C371.697 66.6188 371.732 66.9748 371.867 67.2983C372.001 67.6217 372.228 67.8981 372.52 68.0925C372.811 68.2869 373.154 68.3907 373.504 68.3907C373.738 68.3907 373.969 68.3445 374.185 68.2548C374.401 68.1651 374.596 68.0336 374.761 67.868C374.926 67.7023 375.056 67.5057 375.145 67.2895C375.233 67.0732 375.278 66.8416 375.277 66.6079V66.6079Z" stroke="black" stroke-width="0.604701" stroke-miterlimit="10"/>
</g>
<g opacity="0.2">
<path d="M24.1416 359.699V317.229L43.7231 349.021L24.1416 359.699Z" stroke="black" stroke-width="0.604701" stroke-miterlimit="10"/>
<path d="M24.1416 359.699L5.05841 348.762L24.1416 317.229" stroke="black" stroke-width="0.604701" stroke-miterlimit="10"/>
<path d="M5.05841 348.762L23.8828 340.366L43.7231 349.021" stroke="black" stroke-width="0.604701" stroke-miterlimit="10"/>
<path d="M5.62384 352.127L24.3811 362.938L43.5218 351.868L24.2469 378.044L5.62384 352.127Z" stroke="black" stroke-width="0.604701" stroke-miterlimit="10"/>
<path d="M24.381 362.938V378.044" stroke="black" stroke-width="0.604701" stroke-miterlimit="10"/>
<path d="M6.12237 348.762C6.12224 348.554 6.06069 348.35 5.94539 348.176C5.8301 348.002 5.66615 347.865 5.47397 347.784C5.28179 347.702 5.06987 347.679 4.86461 347.717C4.65935 347.755 4.46981 347.853 4.31961 347.998C4.16941 348.143 4.06517 348.329 4.01989 348.532C3.97462 348.736 3.99029 348.949 4.06497 349.144C4.13965 349.339 4.27002 349.507 4.43987 349.629C4.60971 349.75 4.81151 349.819 5.02013 349.826C5.16304 349.831 5.30551 349.808 5.43905 349.757C5.57259 349.705 5.69444 349.628 5.79733 349.529C5.90022 349.429 5.98203 349.31 6.03788 349.179C6.09373 349.047 6.12246 348.905 6.12237 348.762Z" stroke="black" stroke-width="0.604701" stroke-miterlimit="10"/>
<path d="M24.1225 360.36C24.7101 360.36 25.1864 359.884 25.1864 359.296C25.1864 358.709 24.7101 358.232 24.1225 358.232C23.5349 358.232 23.0586 358.709 23.0586 359.296C23.0586 359.884 23.5349 360.36 24.1225 360.36Z" stroke="black" stroke-width="0.604701" stroke-miterlimit="10"/>
<path d="M44.7869 349.021C44.7869 348.811 44.7245 348.605 44.6076 348.43C44.4907 348.255 44.3246 348.119 44.1302 348.038C43.9358 347.958 43.7218 347.937 43.5155 347.978C43.3091 348.019 43.1195 348.12 42.9707 348.269C42.8219 348.418 42.7206 348.607 42.6796 348.814C42.6385 349.02 42.6596 349.234 42.7401 349.428C42.8206 349.623 42.957 349.789 43.1319 349.906C43.3069 350.023 43.5126 350.085 43.723 350.085C44.0052 350.085 44.2758 349.973 44.4753 349.773C44.6748 349.574 44.7869 349.303 44.7869 349.021V349.021Z" stroke="black" stroke-width="0.604701" stroke-miterlimit="10"/>
<path d="M25.148 317.497C25.148 317.287 25.0856 317.081 24.9687 316.906C24.8518 316.731 24.6856 316.595 24.4912 316.514C24.2968 316.434 24.0829 316.413 23.8765 316.454C23.6702 316.495 23.4806 316.596 23.3318 316.745C23.183 316.894 23.0817 317.083 23.0406 317.29C22.9996 317.496 23.0207 317.71 23.1012 317.904C23.1817 318.099 23.3181 318.265 23.493 318.382C23.668 318.499 23.8737 318.561 24.0841 318.561C24.3663 318.561 24.6369 318.449 24.8364 318.249C25.0359 318.05 25.148 317.779 25.148 317.497V317.497Z" stroke="black" stroke-width="0.604701" stroke-miterlimit="10"/>
<path d="M25.1481 362.286C25.1387 362.079 25.0691 361.88 24.9479 361.712C24.8266 361.544 24.659 361.415 24.4656 361.341C24.2722 361.267 24.0614 361.251 23.8591 361.295C23.6567 361.339 23.4716 361.441 23.3265 361.589C23.1813 361.737 23.0824 361.923 23.0419 362.127C23.0014 362.33 23.0211 362.54 23.0985 362.732C23.1758 362.924 23.3076 363.09 23.4776 363.208C23.6476 363.326 23.8484 363.392 24.0554 363.398C24.2017 363.402 24.3472 363.376 24.4829 363.321C24.6186 363.267 24.7415 363.185 24.8441 363.08C24.9466 362.976 25.0265 362.852 25.0788 362.715C25.1311 362.578 25.1547 362.432 25.1481 362.286V362.286Z" stroke="black" stroke-width="0.604701" stroke-miterlimit="10"/>
<path d="M25.148 340.452C25.148 340.313 25.1205 340.174 25.067 340.045C25.0136 339.916 24.9352 339.799 24.8364 339.7C24.7376 339.601 24.6203 339.523 24.4912 339.47C24.3622 339.416 24.2238 339.389 24.0841 339.389C23.9444 339.389 23.806 339.416 23.677 339.47C23.5479 339.523 23.4306 339.601 23.3318 339.7C23.233 339.799 23.1547 339.916 23.1012 340.045C23.0477 340.174 23.0202 340.313 23.0202 340.452C23.0202 340.592 23.0477 340.73 23.1012 340.86C23.1547 340.989 23.233 341.106 23.3318 341.205C23.4306 341.304 23.5479 341.382 23.677 341.435C23.806 341.489 23.9444 341.516 24.0841 341.516C24.2238 341.516 24.3622 341.489 24.4912 341.435C24.6203 341.382 24.7376 341.304 24.8364 341.205C24.9352 341.106 25.0136 340.989 25.067 340.86C25.1205 340.73 25.148 340.592 25.148 340.452V340.452Z" stroke="black" stroke-width="0.604701" stroke-miterlimit="10"/>
<path d="M44.5666 351.734C44.5666 351.523 44.5042 351.318 44.3873 351.143C44.2704 350.968 44.1043 350.831 43.9099 350.751C43.7155 350.67 43.5016 350.649 43.2952 350.69C43.0888 350.731 42.8992 350.833 42.7505 350.981C42.6017 351.13 42.5003 351.32 42.4593 351.526C42.4182 351.733 42.4393 351.946 42.5198 352.141C42.6004 352.335 42.7367 352.501 42.9117 352.618C43.0866 352.735 43.2923 352.798 43.5027 352.798C43.6425 352.798 43.7808 352.77 43.9099 352.717C44.039 352.663 44.1562 352.585 44.255 352.486C44.3538 352.387 44.4322 352.27 44.4857 352.141C44.5391 352.012 44.5666 351.873 44.5666 351.734V351.734Z" stroke="black" stroke-width="0.604701" stroke-miterlimit="10"/>
<path d="M24.2471 379.108C24.8346 379.108 25.311 378.631 25.311 378.044C25.311 377.456 24.8346 376.98 24.2471 376.98C23.6595 376.98 23.1832 377.456 23.1832 378.044C23.1832 378.631 23.6595 379.108 24.2471 379.108Z" stroke="black" stroke-width="0.604701" stroke-miterlimit="10"/>
<path d="M6.55371 351.897C6.55371 351.686 6.49131 351.48 6.37441 351.305C6.2575 351.131 6.09134 350.994 5.89694 350.914C5.70254 350.833 5.48862 350.812 5.28225 350.853C5.07587 350.894 4.8863 350.995 4.73751 351.144C4.58872 351.293 4.4874 351.483 4.44635 351.689C4.4053 351.895 4.42636 352.109 4.50689 352.304C4.58741 352.498 4.72378 352.664 4.89873 352.781C5.07369 352.898 5.27939 352.96 5.48981 352.96C5.77197 352.96 6.04258 352.848 6.2421 352.649C6.44162 352.449 6.55371 352.179 6.55371 351.897Z" stroke="black" stroke-width="0.604701" stroke-miterlimit="10"/>
</g>
<path opacity="0.2" d="M421.341 185.036C419.424 184.883 417.508 184.663 416.051 183.532C415.305 182.955 414.721 182.196 414.355 181.328C413.989 180.46 413.854 179.512 413.961 178.576C414.089 177.643 414.45 176.756 415.012 175.999C415.573 175.242 416.316 174.638 417.172 174.244C418.763 173.525 420.565 173.592 422.29 173.362C425.341 172.962 428.194 171.629 430.459 169.547C432.724 167.464 434.291 164.733 434.946 161.726C435.601 158.72 435.311 155.584 434.117 152.748C432.923 149.912 430.883 147.514 428.274 145.881C425.666 144.249 422.618 143.461 419.545 143.626C416.473 143.79 413.526 144.9 411.107 146.802C408.689 148.705 406.916 151.307 406.033 154.255C405.149 157.202 405.196 160.35 406.169 163.27C406.811 165.186 407.846 167.008 408.392 169.02C408.939 171.033 408.881 173.286 407.559 174.838C405.469 177.254 401.415 176.564 398.865 174.637C396.316 172.71 394.562 169.893 392.022 167.928C390.221 166.618 388.135 165.754 385.936 165.408C383.736 165.061 381.486 165.242 379.37 165.934C367.744 169.701 365.05 185.88 375.479 192.771C378.386 194.587 381.818 195.377 385.227 195.013C388.635 194.65 391.824 193.156 394.284 190.768C395.923 189.1 397.159 187.049 398.904 185.487C400.648 183.925 403.169 182.87 405.325 183.771C407.789 184.787 408.728 187.883 408.469 190.538C408.21 193.193 407.079 195.695 406.696 198.33C406.359 200.908 406.713 203.529 407.724 205.925C408.735 208.32 410.365 210.403 412.447 211.96C414.568 213.464 417.039 214.4 419.624 214.68C422.209 214.961 424.823 214.575 427.217 213.56C430.115 212.243 432.535 210.063 434.148 207.318C435.76 204.573 436.486 201.398 436.226 198.225C435.823 195.062 434.42 192.11 432.222 189.8C430.024 187.49 427.145 185.942 424.006 185.381C423.163 185.171 422.252 185.123 421.341 185.036Z" stroke="black" stroke-width="0.604701" stroke-miterlimit="10"/>
<path opacity="0.2" d="M55.5315 37.5183C54.2201 37.5254 52.9338 37.1598 51.8222 36.464C51.3016 36.0597 50.894 35.528 50.6388 34.9202C50.3836 34.3124 50.2894 33.6491 50.3653 32.9943C50.4574 32.3402 50.7118 31.7194 51.1052 31.1887C51.4986 30.658 52.0186 30.2343 52.6177 29.956C53.7773 29.5816 54.9844 29.3751 56.2024 29.3426C58.3231 29.0223 60.2992 28.0741 61.876 26.6203C63.4528 25.1665 64.558 23.2737 65.0491 21.186C65.3936 19.6123 65.3699 17.9802 64.9797 16.4172C64.5895 14.8542 63.8435 13.4024 62.7999 12.1752C61.7562 10.948 60.4431 9.97857 58.963 9.34247C57.4829 8.70637 55.8759 8.42085 54.2673 8.50817C52.6587 8.5955 51.092 9.05331 49.6894 9.84589C48.2869 10.6385 47.0865 11.7444 46.1818 13.0774C45.2771 14.4103 44.6926 15.9343 44.474 17.5304C44.2553 19.1264 44.4084 20.7515 44.9212 22.2786C45.3717 23.6301 46.1001 24.8857 46.4835 26.2659C46.7182 26.9422 46.7876 27.665 46.6859 28.3736C46.5842 29.0823 46.3143 29.7563 45.8989 30.3394C44.442 32.0359 41.5953 31.547 39.8126 30.2052C38.0298 28.8633 36.7934 26.8793 35.0202 25.5278C33.7561 24.596 32.2874 23.9801 30.7367 23.7317C29.186 23.4833 27.5984 23.6094 26.1064 24.0997C17.969 26.7355 16.0808 38.0646 23.3844 42.8762C25.4225 44.1429 27.8254 44.6923 30.2114 44.437C32.5975 44.1818 34.8298 43.1365 36.5538 41.4672C37.7039 40.2979 38.5666 38.8697 39.7838 37.7675C41.0011 36.6653 42.803 35.9272 44.3174 36.5598C46.0426 37.2787 46.704 39.4352 46.5219 41.3522C46.3398 43.2691 45.5634 44.956 45.2758 46.8059C45.034 48.619 45.2815 50.4639 45.9927 52.1492C46.7039 53.8345 47.8529 55.2989 49.3206 56.3906C50.8132 57.4264 52.545 58.065 54.3527 58.2461C56.1604 58.4272 57.9845 58.1448 59.6529 57.4257C61.69 56.5048 63.3919 54.9756 64.5247 53.0482C65.6574 51.1208 66.1654 48.8899 65.9788 46.6621C65.6951 44.4475 64.712 42.3813 63.1725 40.7643C61.6331 39.1472 59.6176 38.0638 57.4197 37.6717C56.7775 37.5758 56.1641 37.5183 55.5315 37.5183Z" stroke="black" stroke-width="0.604701" stroke-miterlimit="10"/>
<path d="M354.478 0.463867H131.874V416.919H354.478V0.463867Z" fill="#22252E"/>
<path d="M349.466 118.749H136.896V234.57H349.466V118.749Z" fill="#22252E"/>
<path opacity="0.15" d="M349.466 118.749H136.896V234.57H349.466V118.749Z" fill="white"/>
<path d="M349.466 244.423H136.896V292.069H349.466V244.423Z" fill="#22252E"/>
<path opacity="0.15" d="M349.466 244.423H136.896V292.069H349.466V244.423Z" fill="white"/>
<path d="M349.466 301.922H136.896V349.567H349.466V301.922Z" fill="#22252E"/>
<path opacity="0.15" d="M349.466 301.922H136.896V349.567H349.466V301.922Z" fill="white"/>
<path d="M349.466 359.421H136.896V407.066H349.466V359.421Z" fill="#22252E"/>
<path opacity="0.15" d="M349.466 359.421H136.896V407.066H349.466V359.421Z" fill="white"/>
<path d="M354.478 0.463867H131.874V112.174H354.478V0.463867Z" fill="#10B981"/>
<path d="M235.302 183.206L230.04 182.65C230.191 181.22 230.265 179.784 230.261 178.346C230.248 167.397 225.893 156.899 218.15 149.157C210.407 141.414 199.91 137.059 188.96 137.046C187.265 137.045 185.572 137.151 183.89 137.362L183.238 132.11C185.146 131.875 187.067 131.757 188.989 131.755C201.342 131.768 213.185 136.681 221.92 145.415C230.655 154.15 235.568 165.993 235.58 178.346C235.57 179.97 235.477 181.592 235.302 183.206Z" fill="white"/>
<path d="M223.178 209.918L219.296 206.334C225.367 199.809 229.14 191.479 230.04 182.612L235.302 183.148C234.291 193.156 230.032 202.557 223.178 209.918Z" fill="#90949E"/>
<path d="M188.96 224.89C182.534 224.881 176.178 223.548 170.29 220.971C164.403 218.395 159.11 214.633 154.743 209.918L158.634 206.334C162.502 210.517 167.193 213.854 172.413 216.137C177.632 218.42 183.268 219.598 188.965 219.598C194.662 219.598 200.297 218.42 205.517 216.137C210.737 213.854 215.428 210.517 219.296 206.334L223.178 209.918C218.811 214.634 213.519 218.398 207.631 220.974C201.743 223.55 195.387 224.883 188.96 224.89Z" fill="#22252E"/>
<path d="M154.743 209.918C148.93 203.622 144.966 195.846 143.286 187.443C141.606 179.04 142.276 170.337 145.221 162.29C148.166 154.244 153.273 147.165 159.98 141.832C166.687 136.499 174.735 133.118 183.238 132.062L183.89 137.314C176.352 138.249 169.217 141.245 163.271 145.971C157.326 150.698 152.798 156.973 150.188 164.107C147.577 171.24 146.985 178.955 148.475 186.403C149.965 193.851 153.48 200.744 158.634 206.324L154.743 209.918Z" fill="#10B981"/>
<path d="M279.44 137.286C279.442 136.5 279.21 135.732 278.776 135.078C278.341 134.425 277.722 133.914 276.997 133.613C276.272 133.311 275.474 133.231 274.703 133.383C273.933 133.535 273.225 133.912 272.669 134.467C272.113 135.021 271.734 135.728 271.58 136.498C271.427 137.268 271.505 138.067 271.805 138.792C272.105 139.518 272.613 140.138 273.266 140.575C273.919 141.011 274.686 141.244 275.472 141.244C276.522 141.244 277.53 140.827 278.274 140.085C279.018 139.343 279.437 138.336 279.44 137.286Z" fill="#10B981"/>
<path d="M291.957 135.723V136.835H289.245V140.784H292.561V141.905H287.999V130.806H292.561V131.937H289.235V135.771L291.957 135.723Z" fill="white"/>
<path d="M295.341 141.905V131.937H293.29V130.806H298.619V131.937H296.577V141.905H295.341Z" fill="white"/>
<path d="M300.718 136.912V141.905H299.481V130.806H300.718V135.8H303.449V130.806H304.686V141.905H303.449V136.912H300.718Z" fill="white"/>
<path d="M185.28 267.091V268.203H182.567V272.152H185.893V273.302H181.379V262.174H185.941V263.295H182.615V267.129L185.28 267.091Z" fill="white"/>
<path d="M188.644 273.302V263.295H186.593V262.174H191.922V263.295H189.871V273.302H188.644Z" fill="white"/>
<path d="M193.992 268.28V273.302H192.756V262.174H193.992V267.168H196.714V262.174H197.941V273.302H196.714V268.308L193.992 268.28Z" fill="white"/>
<path d="M203.174 267.091V268.203H200.462V272.152H203.797V273.302H199.225V262.174H203.797V263.295H200.462V267.129L203.174 267.091Z" fill="white"/>
<path d="M207.411 262.174C209.165 262.174 209.893 263.056 209.893 264.704V265.663C209.893 266.88 209.462 267.647 208.513 267.944C209.529 268.251 209.903 269.075 209.903 270.264V271.989C209.875 272.438 209.954 272.888 210.133 273.302H208.887C208.709 272.875 208.636 272.411 208.676 271.95V270.206C208.676 268.96 208.091 268.557 207.056 268.557H206.184V273.35H204.947V262.174H207.411ZM207.094 267.407C208.053 267.407 208.666 267.091 208.666 265.883V264.819C208.666 263.861 208.302 263.295 207.382 263.295H206.174V267.407H207.094Z" fill="white"/>
<path d="M215.146 267.091V268.203H212.433V272.152H215.759V273.302H211.197V262.174H215.759V263.295H212.433V267.129L215.146 267.091Z" fill="white"/>
<path d="M218.079 270.657C218.079 271.615 218.481 272.257 219.382 272.257C220.283 272.257 220.666 271.653 220.666 270.657V262.174H221.826V270.589C221.826 272.276 221.05 273.398 219.334 273.398C217.619 273.398 216.861 272.276 216.861 270.589V262.174H218.079V270.657Z" fill="white"/>
<path d="M227.136 273.302H225.948L224.107 264.474V273.302H223.034V262.174H224.759L226.58 271.04L228.344 262.174H230.079V273.302H228.9V264.379L227.136 273.302Z" fill="white"/>
<path d="M287.127 262.222C288.478 262.414 289.092 263.458 289.092 264.944V265.251H287.941V264.867C287.941 263.909 287.539 263.286 286.657 263.286C285.775 263.286 285.382 263.89 285.382 264.867C285.382 267.359 289.111 267.369 289.111 270.503C289.111 271.989 288.478 273.053 287.127 273.244V274.078H286.111V273.244C284.731 273.053 284.117 272.008 284.117 270.503V269.813H285.277V270.58C285.277 271.538 285.689 272.152 286.571 272.152C287.453 272.152 287.874 271.577 287.874 270.58C287.874 268.107 284.165 268.069 284.165 264.944C284.165 263.42 284.779 262.423 286.082 262.222V261.331H287.098L287.127 262.222Z" fill="white"/>
<path d="M295.044 264.187C294.577 264.465 294.052 264.63 293.51 264.666V263.65C293.951 263.662 294.382 263.522 294.731 263.253C295.08 262.984 295.326 262.603 295.427 262.174H296.28V273.302H295.053L295.044 264.187Z" fill="white"/>
<path d="M299.385 266.689C299.542 266.39 299.78 266.141 300.072 265.972C300.363 265.802 300.697 265.718 301.034 265.73C302.462 265.73 303.095 266.784 303.095 268.366V270.542C303.095 272.238 302.28 273.35 300.583 273.35C298.887 273.35 298.091 272.238 298.091 270.542V269.794H299.27V270.618C299.27 271.577 299.682 272.219 300.574 272.219C301.465 272.219 301.877 271.615 301.877 270.618V268.51C301.877 267.551 301.465 266.909 300.574 266.909C300.413 266.903 300.252 266.928 300.101 266.985C299.951 267.042 299.813 267.128 299.696 267.239C299.579 267.349 299.485 267.482 299.42 267.63C299.355 267.777 299.321 267.936 299.318 268.097V268.356H298.159L298.465 262.184H302.845V263.296H299.558L299.385 266.689Z" fill="white"/>
<path d="M304.83 273.302H304.37V271.768H305.558V273.197L304.935 274.701H304.427L304.83 273.302Z" fill="white"/>
<path d="M311.807 264.839V265.04H310.648V264.752C310.648 263.794 310.235 263.171 309.334 263.171C308.434 263.171 307.983 263.775 307.983 264.963V267.455C308.11 267.088 308.355 266.773 308.678 266.558C309.002 266.344 309.388 266.241 309.775 266.267C311.203 266.267 311.836 267.292 311.836 268.893V270.58C311.836 272.276 310.993 273.388 309.296 273.388C307.6 273.388 306.747 272.276 306.747 270.58V264.915C306.747 263.152 307.542 262.04 309.296 262.04C311.05 262.04 311.807 263.142 311.807 264.839ZM307.973 268.989V270.657C307.973 271.615 308.386 272.257 309.287 272.257C310.188 272.257 310.609 271.653 310.609 270.657V268.989C310.609 268.03 310.178 267.388 309.287 267.388C308.395 267.388 307.983 267.992 307.983 268.989H307.973Z" fill="white"/>
<path d="M314.232 266.689C314.391 266.391 314.629 266.144 314.92 265.975C315.212 265.805 315.544 265.721 315.881 265.73C317.309 265.73 317.951 266.784 317.951 268.366V270.542C317.951 272.238 317.137 273.35 315.44 273.35C313.744 273.35 312.948 272.238 312.948 270.542V269.794H314.108V270.618C314.108 271.577 314.52 272.219 315.411 272.219C316.303 272.219 316.715 271.615 316.715 270.618V268.51C316.715 267.551 316.303 266.909 315.411 266.909C315.25 266.903 315.09 266.928 314.939 266.985C314.788 267.042 314.65 267.128 314.533 267.239C314.416 267.349 314.322 267.482 314.258 267.63C314.193 267.777 314.158 267.936 314.156 268.097V268.356H312.996L313.303 262.184H317.673V263.296H314.414L314.232 266.689Z" fill="white"/>
<path d="M324.133 264.868C324.133 268.213 320.376 269.42 320.357 271.97V272.152H324.009V273.302H319.14V272.344C319.14 268.759 322.897 268.059 322.897 264.935C322.897 263.794 322.513 263.19 321.603 263.19C320.692 263.19 320.299 263.842 320.299 264.82V265.778H319.14V264.877C319.14 263.181 319.916 262.002 321.632 262.002C323.347 262.002 324.133 263.171 324.133 264.868Z" fill="white"/>
<path d="M326.472 271.74V273.302H325.283V271.768L326.472 271.74Z" fill="white"/>
<path d="M332.673 264.848V265.136C332.727 265.611 332.625 266.092 332.381 266.503C332.137 266.915 331.765 267.236 331.322 267.417C331.766 267.601 332.139 267.926 332.383 268.341C332.627 268.756 332.729 269.239 332.673 269.717V270.58C332.673 272.276 331.878 273.388 330.172 273.388C328.465 273.388 327.68 272.276 327.68 270.58V269.813H328.839V270.657C328.839 271.615 329.251 272.257 330.133 272.257C331.015 272.257 331.437 271.673 331.437 270.551V269.689C331.437 268.596 330.977 268.069 330.037 268.04H329.376V266.928H330.104C330.297 266.93 330.487 266.89 330.663 266.812C330.838 266.733 330.995 266.618 331.121 266.473C331.248 266.328 331.342 266.157 331.396 265.973C331.451 265.789 331.464 265.594 331.437 265.404V264.896C331.437 263.756 331.044 263.171 330.133 263.171C329.223 263.171 328.839 263.794 328.839 264.791V265.356H327.68V264.848C327.68 263.152 328.465 262.059 330.172 262.059C331.878 262.059 332.673 263.152 332.673 264.848Z" fill="white"/>
<path d="M338.874 264.868C338.874 268.213 335.117 269.42 335.108 271.97V272.152H338.75V273.302H333.881V272.344C333.881 268.759 337.638 268.059 337.638 264.935C337.638 263.794 337.264 263.19 336.344 263.19C335.424 263.19 335.041 263.842 335.041 264.82V265.778H333.881V264.877C333.881 263.181 334.657 262.002 336.373 262.002C338.088 262.002 338.874 263.171 338.874 264.868Z" fill="white"/>
<path d="M322.034 133.49V133.777C322.087 134.253 321.984 134.732 321.74 135.144C321.496 135.555 321.125 135.876 320.683 136.059C321.129 136.242 321.502 136.566 321.746 136.981C321.99 137.397 322.091 137.88 322.034 138.359V139.212C322.034 140.908 321.239 142.02 319.533 142.02C317.827 142.02 317.041 140.908 317.041 139.212V138.455H318.2V139.289C318.2 140.247 318.613 140.899 319.494 140.899C320.376 140.899 320.798 140.305 320.798 139.183V138.321C320.798 137.228 320.338 136.71 319.398 136.672H318.737V135.57H319.466C319.658 135.572 319.848 135.532 320.024 135.454C320.199 135.375 320.356 135.259 320.482 135.114C320.609 134.97 320.703 134.799 320.757 134.615C320.812 134.43 320.826 134.236 320.798 134.046V133.538C320.798 132.397 320.405 131.803 319.494 131.803C318.584 131.803 318.2 132.426 318.2 133.423V133.998H317.041V133.49C317.041 131.793 317.827 130.691 319.533 130.691C321.239 130.691 322.034 131.793 322.034 133.49Z" fill="white"/>
<path d="M328.236 133.5C328.236 136.854 324.478 138.052 324.469 140.611V140.784H328.111V141.905H323.232V140.947C323.232 137.362 326.99 136.662 326.99 133.538C326.99 132.397 326.616 131.793 325.696 131.793C324.775 131.793 324.392 132.445 324.392 133.432V134.391H323.232V133.49C323.232 131.793 324.009 130.662 325.724 130.662C327.44 130.662 328.236 131.803 328.236 133.5Z" fill="white"/>
<path d="M332.491 132.531V136.039C332.491 137.123 331.983 137.832 330.91 137.832C329.836 137.832 329.319 137.123 329.319 136.039V132.531C329.319 131.477 329.827 130.739 330.91 130.739C331.993 130.739 332.491 131.448 332.491 132.531ZM330.114 132.531V136.155C330.114 136.758 330.335 137.113 330.91 137.113C331.485 137.113 331.696 136.72 331.696 136.155V132.531C331.696 131.937 331.466 131.525 330.91 131.525C330.354 131.525 330.114 131.889 330.114 132.484V132.531ZM336.153 130.854L331.782 141.953H331.034L335.414 130.854H336.153ZM337.954 136.72V140.209C337.954 141.292 337.456 142.001 336.363 142.001C335.271 142.001 334.782 141.292 334.782 140.209V136.72C334.782 135.656 335.29 134.947 336.363 134.947C337.437 134.947 337.954 135.608 337.954 136.672V136.72ZM335.568 136.72V140.324C335.568 140.928 335.807 141.34 336.363 141.34C336.919 141.34 337.159 140.928 337.159 140.324V136.624C337.159 136.03 336.919 135.666 336.363 135.666C335.807 135.666 335.568 136.03 335.568 136.624V136.72Z" fill="white"/>
<path d="M190.829 50.937C193.705 51.3491 195.046 53.5919 195.046 56.7932V57.4354H192.554V56.6207C192.554 54.5121 191.711 53.2181 189.804 53.2181C187.896 53.2181 187.129 54.4641 187.129 56.5728C187.129 61.9114 195.123 61.9498 195.123 68.6495C195.123 71.8508 193.762 74.1319 190.877 74.5345V76.3364H188.692V74.5345C185.74 74.1319 184.407 71.8795 184.407 68.6495V67.231H186.89V68.8603C186.89 71.0073 187.772 72.2246 189.679 72.2246C191.586 72.2246 192.468 71.0073 192.468 68.8603C192.468 63.5504 184.513 63.4833 184.513 56.7836C184.513 53.5152 185.835 51.3683 188.692 50.9274V49.02H190.877L190.829 50.937Z" fill="white"/>
<path d="M213.66 56.5728C213.66 63.7517 205.59 66.3396 205.561 71.8124V72.1863H213.382V74.6016H202.944V72.5601C202.944 64.8923 211.005 63.3779 211.005 56.6782C211.005 54.2245 210.19 52.9306 208.216 52.9306C206.241 52.9306 205.427 54.33 205.427 56.4386V58.5472H202.944V56.6303C202.944 52.9881 204.602 50.5728 208.283 50.5728C211.964 50.5728 213.66 52.9306 213.66 56.5728Z" fill="white"/>
<path d="M215.883 56.5439C215.883 52.9017 217.685 50.5535 221.328 50.5535C224.97 50.5535 226.81 52.9017 226.81 56.5439V68.8219C226.81 72.4641 225.008 74.8411 221.328 74.8411C217.647 74.8411 215.883 72.4641 215.883 68.8219V56.5439ZM218.5 69.004C218.5 71.1414 219.459 72.4353 221.328 72.4353C223.197 72.4353 224.203 71.1414 224.203 69.004V56.4001C224.203 54.2244 223.312 52.9305 221.328 52.9305C219.343 52.9305 218.5 54.2244 218.5 56.4001V69.004Z" fill="white"/>
<path d="M230.5 74.6016H229.542V71.3044H232.101V74.3715L230.769 77.6016H229.686L230.5 74.6016Z" fill="white"/>
<path d="M245.472 56.5439V68.6877C245.472 72.4641 243.775 74.8411 239.96 74.8411C236.318 74.8411 234.583 72.4928 234.583 68.8602V68.4098H237.066V69.0232C237.066 71.1702 238.024 72.4258 239.893 72.4258C241.762 72.4258 242.817 71.1318 242.817 68.5919V63.2724C242.535 64.0498 242.009 64.7153 241.318 65.1696C240.627 65.6239 239.808 65.8426 238.983 65.7931C235.925 65.7931 234.564 63.6174 234.564 60.1765V56.5439C234.564 52.9017 236.328 50.5535 240.008 50.5535C243.689 50.5535 245.472 52.9017 245.472 56.5439ZM237.171 56.4001V59.9752C237.171 62.1222 238.13 63.4161 240.047 63.4161C241.964 63.4161 242.865 62.1222 242.865 59.9752V56.4001C242.865 54.2244 241.983 52.9688 240.047 52.9688C238.111 52.9688 237.171 54.2244 237.171 56.4001Z" fill="white"/>
<path d="M252.89 55.1062C251.892 55.7148 250.76 56.0671 249.593 56.1318V53.956C252.181 53.8506 253.063 52.4608 253.676 50.7931H255.516V74.6015H252.89V55.1062Z" fill="white"/>
<path d="M270.21 56.5056V56.9465H267.727V56.3331C267.727 54.1957 266.845 52.9305 264.909 52.9305C262.973 52.9305 262.034 54.2245 262.034 56.7644V62.1127C262.309 61.3281 262.832 60.6542 263.523 60.1926C264.215 59.731 265.038 59.5067 265.868 59.5536C268.925 59.5536 270.286 61.7676 270.286 65.2085V68.8124C270.286 72.4546 268.484 74.8316 264.842 74.8316C261.2 74.8316 259.369 72.4546 259.369 68.8124V56.6877C259.369 52.9114 261.066 50.5631 264.842 50.5631C268.619 50.5631 270.21 52.8539 270.21 56.5056ZM262.015 65.4194V68.9945C262.015 71.1319 262.897 72.4258 264.833 72.4258C266.769 72.4258 267.641 71.1319 267.641 68.9945V65.4194C267.641 63.2724 266.683 61.9881 264.813 61.9881C262.944 61.9881 262.015 63.2724 262.015 65.4194Z" fill="white"/>
<path d="M275.309 71.3044V74.6016H272.759V71.3044H275.309Z" fill="white"/>
<path d="M288.727 56.5439V68.6877C288.727 72.4641 287.021 74.8411 283.216 74.8411C279.574 74.8411 277.839 72.4928 277.839 68.8602V68.4098H280.322V69.0232C280.322 71.1702 281.28 72.4258 283.139 72.4258C284.999 72.4258 286.072 71.1318 286.072 68.5919V63.2724C285.791 64.0498 285.265 64.7153 284.574 65.1696C283.883 65.6239 283.064 65.8426 282.238 65.7931C279.171 65.7931 277.81 63.6174 277.81 60.1765V56.5439C277.81 52.9017 279.583 50.5535 283.254 50.5535C286.925 50.5535 288.727 52.9017 288.727 56.5439ZM280.417 56.4001V59.9752C280.417 62.1222 281.376 63.4161 283.245 63.4161C285.114 63.4161 286.12 62.1222 286.12 59.9752V56.4001C286.12 54.2244 285.229 52.9688 283.245 52.9688C281.261 52.9688 280.417 54.2244 280.417 56.4001Z" fill="white"/>
<path d="M301.992 56.5728C301.992 63.7517 293.932 66.3396 293.893 71.8124V72.1863H301.724V74.6016H291.277V72.5601C291.277 64.8923 299.337 63.3779 299.337 56.6782C299.337 54.2245 298.523 52.9306 296.548 52.9306C294.574 52.9306 293.759 54.33 293.759 56.4386V58.5472H291.277V56.6303C291.277 52.9881 292.944 50.5728 296.615 50.5728C300.286 50.5728 301.992 52.9306 301.992 56.5728Z" fill="white"/>
<path d="M224.673 25.7771C226.398 25.7771 227.079 26.6014 227.079 28.2308V28.7579C227.079 29.9273 226.743 30.6749 225.775 30.9528C226.858 31.2596 227.27 32.1126 227.27 33.3298V34.2883C227.32 34.6359 227.289 34.9903 227.179 35.324C227.07 35.6577 226.886 35.9618 226.64 36.2128C226.395 36.4639 226.095 36.6551 225.764 36.7718C225.432 36.8885 225.079 36.9275 224.73 36.8858H222.181V25.7771H224.673ZM224.366 30.4832C225.325 30.4832 225.861 30.1669 225.861 29.0071V28.3554C225.861 27.3969 225.526 26.8985 224.634 26.8985H223.417V30.4832H224.366ZM224.73 35.7356C225.689 35.7356 226.043 35.266 226.043 34.2308V33.2723C226.043 32.0359 225.555 31.6238 224.491 31.6238H223.417V35.7548L224.73 35.7356Z" fill="white"/>
<path d="M229.647 34.6429L229.216 36.8761H228.075L230.203 25.7866H231.986L234.094 36.8665H232.858L232.446 34.6429H229.647ZM229.8 33.579H232.273L231.027 27.1764L229.8 33.579Z" fill="white"/>
<path d="M235.053 36.8666V25.7771H236.289V35.7356H239.452V36.8666H235.053Z" fill="white"/>
<path d="M241.676 34.6429L241.245 36.8761H240.104L242.222 25.7866H244.015L246.143 36.8761H244.906L244.475 34.6429H241.676ZM241.83 33.579H244.302L243.047 27.1764L241.83 33.579Z" fill="white"/>
<path d="M248.203 36.8666H247.091V25.7771H248.663L251.222 33.7899V25.7771H252.305V36.8666H251.031L248.155 27.8953L248.203 36.8666Z" fill="white"/>
<path d="M258.488 28.4511V29.4096H257.309V28.3553C257.309 27.3968 256.916 26.7547 256.015 26.7547C255.114 26.7547 254.711 27.3489 254.711 28.3553V34.2116C254.711 35.17 255.123 35.8122 256.015 35.8122C256.906 35.8122 257.309 35.2084 257.309 34.2116V32.7738H258.488V34.1445C258.488 35.8314 257.692 36.9336 255.976 36.9336C254.261 36.9336 253.494 35.8314 253.494 34.1445V28.3936C253.494 26.7163 254.289 25.6045 255.976 25.6045C257.663 25.6045 258.488 26.7738 258.488 28.4511Z" fill="white"/>
<path d="M263.558 30.6845V31.7675H260.846V35.7069H264.171V36.8378H259.609V25.7771H264.171V26.8985H260.846V30.6845H263.558Z" fill="white"/>
<path d="M224.05 91.9403V94.1736H223.168V91.9403H220.983V91.049H223.168V88.8445H224.05V91.049H226.235V91.9403H224.05Z" fill="white"/>
<path d="M234.794 88.6431C234.794 91.9882 231.037 93.1863 231.027 95.7358V95.9083H234.669V97.0393H229.8V96.0808C229.8 92.4962 233.558 91.7965 233.558 88.6815C233.558 87.5409 233.174 86.937 232.264 86.937C231.353 86.937 230.96 87.5888 230.96 88.5664V89.5249H229.8V88.5664C229.8 86.8795 230.577 85.7485 232.292 85.7485C234.008 85.7485 234.794 86.9466 234.794 88.6431Z" fill="white"/>
<path d="M237.171 90.4642C237.326 90.164 237.564 89.9143 237.856 89.7445C238.148 89.5747 238.482 89.4919 238.82 89.5057C240.248 89.5057 240.881 90.5505 240.881 92.132V94.3077C240.881 96.0042 240.075 97.1064 238.379 97.1064C236.682 97.1064 235.887 96.0042 235.887 94.3077V93.5601H237.047V94.3844C237.047 95.3428 237.459 95.985 238.341 95.985C239.222 95.985 239.644 95.3812 239.644 94.3844V92.2278C239.644 91.2693 239.232 90.6272 238.341 90.6272C238.18 90.6194 238.019 90.6443 237.868 90.7006C237.717 90.7568 237.579 90.8431 237.463 90.9543C237.346 91.0654 237.254 91.1991 237.19 91.3472C237.127 91.4952 237.094 91.6546 237.095 91.8157V92.1511H235.935L236.242 85.9882H240.612V87.0904H237.344L237.171 90.4642Z" fill="white"/>
<path d="M243.257 95.4962V97.0394H242.069V95.4962H243.257Z" fill="white"/>
<path d="M249.497 88.6239V94.2789C249.497 96.0425 248.711 97.1543 246.929 97.1543C245.146 97.1543 244.427 96.0617 244.427 94.3652V94.1639H245.596V94.4514C245.596 95.4099 246.028 96.0329 246.909 96.0329C247.791 96.0329 248.27 95.4291 248.27 94.2597V91.7677C248.143 92.1339 247.898 92.4479 247.574 92.661C247.25 92.8742 246.865 92.9745 246.478 92.9466C245.059 92.9466 244.427 91.9306 244.427 90.33V88.6335C244.427 86.937 245.251 85.8444 246.957 85.8444C248.663 85.8444 249.497 86.9274 249.497 88.6239ZM245.663 88.5664V90.2342C245.663 91.1926 246.085 91.8348 246.976 91.8348C247.868 91.8348 248.29 91.231 248.29 90.2342V88.576C248.29 87.56 247.877 86.9754 246.976 86.9754C246.075 86.9754 245.596 87.5504 245.596 88.5664H245.663Z" fill="white"/>
<path d="M255.612 88.624V88.9115C255.664 89.3856 255.561 89.8637 255.32 90.2747C255.078 90.6857 254.71 91.0077 254.27 91.1927C254.714 91.3773 255.086 91.702 255.328 92.1173C255.57 92.5326 255.67 93.0157 255.612 93.493V94.3461C255.612 96.0425 254.826 97.1448 253.11 97.1448C251.395 97.1448 250.628 96.0425 250.628 94.3461V93.5793H251.778V94.4227C251.778 95.3812 252.19 96.0234 253.082 96.0234C253.973 96.0234 254.385 95.4387 254.385 94.3077V93.4547C254.385 92.362 253.925 91.8444 252.986 91.8061H252.305V90.7039H253.034C253.226 90.7059 253.417 90.6662 253.592 90.5876C253.768 90.509 253.924 90.3933 254.051 90.2485C254.177 90.1037 254.271 89.9332 254.325 89.7488C254.38 89.5643 254.394 89.3702 254.366 89.1799V88.6719C254.366 87.5313 253.964 86.9467 253.063 86.9467C252.162 86.9467 251.759 87.5601 251.759 88.5665V89.132H250.609V88.624C250.609 86.9275 251.395 85.8348 253.091 85.8348C254.788 85.8348 255.612 86.9275 255.612 88.624Z" fill="white"/>
<path d="M259.973 87.675V91.1926C259.973 92.2757 259.465 92.9849 258.392 92.9849C257.318 92.9849 256.81 92.2757 256.81 91.1926V87.6942C256.81 86.6303 257.309 85.9019 258.392 85.9019C259.475 85.9019 259.973 86.6111 259.973 87.675ZM257.596 87.675V91.2885C257.596 91.8923 257.817 92.2469 258.392 92.2469C258.967 92.2469 259.178 91.854 259.178 91.2885V87.675C259.178 87.0712 258.948 86.659 258.392 86.659C257.836 86.659 257.548 87.0233 257.548 87.6271L257.596 87.675ZM263.635 85.9977L259.264 97.0872H258.516L262.849 85.9498L263.635 85.9977ZM265.427 91.854V95.3428C265.427 96.4163 264.929 97.1351 263.836 97.1351C262.743 97.1351 262.254 96.4163 262.254 95.3428V91.854C262.254 90.7996 262.762 90.0808 263.836 90.0808C264.909 90.0808 265.379 90.7517 265.379 91.806L265.427 91.854ZM263.05 91.854V95.4578C263.05 96.052 263.28 96.4642 263.836 96.4642C264.392 96.4642 264.631 96.052 264.631 95.4578V91.854C264.631 91.2597 264.392 90.8955 263.836 90.8955C263.28 90.8955 263.002 91.1926 263.002 91.7581L263.05 91.854Z" fill="white"/>
<path d="M145.388 8.58207C145.388 11.3616 142.264 12.3584 142.254 14.4767V14.63H145.283V15.5885H141.238V14.8025C141.238 11.8217 144.363 11.2466 144.363 8.64916C144.363 7.69069 144.046 7.20187 143.28 7.20187C142.513 7.20187 142.196 7.73861 142.196 8.5629V9.3776H141.238V8.62041C141.238 7.22104 141.89 6.28174 143.308 6.28174C144.727 6.28174 145.388 7.17312 145.388 8.58207Z" fill="white"/>
<path d="M150.43 8.57255V8.76424C150.479 9.16251 150.396 9.56583 150.193 9.91218C149.99 10.2585 149.68 10.5287 149.308 10.6812C149.679 10.835 149.988 11.1054 150.191 11.4514C150.393 11.7974 150.477 12.2001 150.43 12.5981V13.317C150.43 14.7259 149.768 15.6461 148.35 15.6461C146.931 15.6461 146.28 14.6876 146.28 13.317V12.694H147.238V13.3841C147.238 14.2179 147.574 14.7163 148.312 14.7163C149.05 14.7163 149.395 14.2275 149.395 13.2978V12.5981C149.395 11.6876 149.011 11.2563 148.235 11.2275H147.679V10.269H148.292C148.452 10.2708 148.61 10.2379 148.756 10.1726C148.901 10.1073 149.031 10.0112 149.136 9.89091C149.24 9.77062 149.318 9.629 149.363 9.47585C149.407 9.32269 149.418 9.16166 149.395 9.00386V8.58213C149.395 7.62366 149.069 7.14443 148.312 7.14443C147.554 7.14443 147.238 7.662 147.238 8.48629V8.96552H146.28V8.57255C146.28 7.1636 146.941 6.25305 148.35 6.25305C149.759 6.25305 150.43 7.1636 150.43 8.57255Z" fill="white"/>
<path d="M152.423 9.27222V10.547H151.465V9.27222H152.423ZM152.423 14.285V15.5598H151.465V14.285H152.423Z" fill="white"/>
<path d="M154.541 10.0964C154.675 9.85334 154.875 9.65265 155.117 9.51713C155.359 9.3816 155.635 9.31666 155.912 9.32966C157.091 9.32966 157.618 10.2019 157.618 11.515V13.3265C157.618 14.7354 156.947 15.6556 155.538 15.6556C154.129 15.6556 153.478 14.6971 153.478 13.3265V12.7035H154.436V13.384C154.436 14.2179 154.771 14.7163 155.509 14.7163C156.248 14.7163 156.593 14.2179 156.593 13.384V11.6396C156.593 10.8057 156.248 10.3073 155.509 10.3073C155.377 10.2967 155.244 10.3136 155.119 10.357C154.994 10.4004 154.879 10.4693 154.782 10.5594C154.684 10.6495 154.607 10.7588 154.554 10.8804C154.501 11.0019 154.474 11.1332 154.474 11.2658V11.4766H153.516L153.765 6.3584H157.398V7.31687H154.685L154.541 10.0964Z" fill="white"/>
<path d="M162.708 8.55338V8.76424H161.749V8.53421C161.749 7.70034 161.414 7.21152 160.656 7.21152C159.899 7.21152 159.545 7.70993 159.545 8.69715V10.7674C159.656 10.4687 159.86 10.2139 160.128 10.0412C160.396 9.86842 160.712 9.78696 161.03 9.80898C162.209 9.80898 162.736 10.662 162.736 11.9943V13.3937C162.736 14.8026 162.046 15.7227 160.637 15.7227C159.228 15.7227 158.509 14.7643 158.509 13.3937V8.62047C158.509 7.1636 159.171 6.25305 160.637 6.25305C162.104 6.25305 162.708 7.14443 162.708 8.55338ZM159.535 12.0039V13.3841C159.535 14.2179 159.87 14.7163 160.628 14.7163C161.385 14.7163 161.72 14.2179 161.72 13.3841V12.0039C161.72 11.1796 161.366 10.6812 160.628 10.6812C159.89 10.6812 159.535 11.1796 159.535 12.0039Z" fill="white"/>
<path d="M279.44 160.423C279.44 159.638 279.207 158.871 278.771 158.218C278.335 157.566 277.715 157.057 276.99 156.757C276.265 156.457 275.467 156.378 274.697 156.531C273.928 156.684 273.221 157.062 272.666 157.617C272.111 158.172 271.733 158.879 271.58 159.649C271.427 160.419 271.505 161.216 271.806 161.942C272.106 162.667 272.615 163.286 273.267 163.722C273.92 164.158 274.687 164.391 275.472 164.391C276.524 164.391 277.533 163.973 278.277 163.229C279.022 162.485 279.44 161.475 279.44 160.423Z" fill="#22252E"/>
<path d="M290.501 153.953C292.226 153.953 292.906 154.778 292.906 156.407V156.934C292.906 158.103 292.571 158.851 291.612 159.139C292.686 159.436 293.098 160.298 293.098 161.516V162.474C293.15 162.822 293.12 163.177 293.011 163.512C292.903 163.846 292.718 164.151 292.472 164.403C292.226 164.654 291.926 164.846 291.594 164.962C291.262 165.078 290.907 165.115 290.558 165.072H288.009V153.953H290.501ZM290.194 158.659C291.152 158.659 291.689 158.343 291.689 157.183V156.532C291.689 155.573 291.354 155.075 290.462 155.075H289.245V158.659H290.194ZM290.558 163.931C291.469 163.931 291.881 163.452 291.881 162.417V161.458C291.881 160.222 291.382 159.81 290.318 159.81H289.245V163.95L290.558 163.931Z" fill="white"/>
<path d="M295.849 165.052V155.075H293.798V153.953H299.127V155.075H297.085V165.052H295.849Z" fill="white"/>
<path d="M304.887 156.627V157.586H303.718V156.522C303.718 155.516 303.315 154.921 302.414 154.921C301.513 154.921 301.111 155.516 301.111 156.522V162.388C301.111 163.346 301.523 163.988 302.414 163.988C303.306 163.988 303.718 163.385 303.718 162.388V160.941H304.887V162.321C304.887 164.008 304.092 165.119 302.385 165.119C300.679 165.119 299.893 164.008 299.893 162.321V156.57C299.893 154.893 300.689 153.781 302.385 153.781C304.082 153.781 304.887 154.95 304.887 156.627Z" fill="white"/>
<path d="M322.101 156.647C322.101 159.992 318.334 161.199 318.325 163.749V163.931H321.967V165.052H317.098V164.094C317.098 160.509 320.865 159.81 320.865 156.685C320.865 155.544 320.481 154.94 319.561 154.94C318.641 154.94 318.258 155.592 318.258 156.57V157.528H317.098V156.627C317.098 154.931 317.874 153.8 319.59 153.8C321.306 153.8 322.101 154.95 322.101 156.647Z" fill="white"/>
<path d="M328.331 156.579V156.934C328.4 157.404 328.314 157.884 328.086 158.301C327.857 158.718 327.499 159.049 327.066 159.244C327.5 159.45 327.856 159.788 328.084 160.211C328.311 160.633 328.398 161.117 328.331 161.592V162.417C328.331 164.132 327.449 165.196 325.715 165.196C323.98 165.196 323.098 164.132 323.098 162.417V161.592C323.033 161.115 323.122 160.629 323.354 160.207C323.585 159.784 323.945 159.447 324.382 159.244C323.949 159.056 323.588 158.731 323.357 158.319C323.125 157.908 323.034 157.431 323.098 156.963V156.608C323.098 155.914 323.374 155.249 323.864 154.758C324.355 154.267 325.021 153.992 325.715 153.992C326.409 153.992 327.074 154.267 327.565 154.758C328.056 155.249 328.331 155.914 328.331 156.608V156.579ZM324.325 156.579V157.116C324.325 158.19 324.842 158.669 325.715 158.669C326.587 158.669 327.114 158.19 327.114 157.116V156.579C327.114 155.439 326.587 154.912 325.715 154.912C324.842 154.912 324.325 155.477 324.325 156.618V156.579ZM324.325 161.372V162.33C324.325 163.471 324.833 164.008 325.715 164.008C326.596 164.008 327.095 163.471 327.114 162.33V161.372C327.114 160.289 326.635 159.771 325.715 159.771C324.794 159.771 324.325 160.337 324.325 161.42V161.372Z" fill="white"/>
<path d="M332.568 155.679V159.187C332.568 160.26 332.06 160.979 330.986 160.979C329.913 160.979 329.405 160.26 329.405 159.187V155.679C329.405 154.615 329.903 153.886 330.986 153.886C332.069 153.886 332.568 154.615 332.568 155.679ZM330.191 155.631V159.244C330.191 159.848 330.411 160.25 330.986 160.25C331.561 160.25 331.782 159.848 331.782 159.244V155.631C331.782 155.027 331.542 154.615 330.986 154.615C330.43 154.615 330.191 155.027 330.191 155.631ZM336.239 153.953L331.858 165.052H331.111L335.491 153.953H336.239ZM338.031 159.819V163.308C338.031 164.391 337.533 165.1 336.44 165.1C335.347 165.1 334.858 164.391 334.858 163.308V159.819C334.858 158.755 335.366 158.046 336.44 158.046C337.513 158.046 338.031 158.755 338.031 159.819ZM335.654 159.819V163.423C335.654 164.027 335.884 164.439 336.44 164.439C336.996 164.439 337.235 164.027 337.235 163.423V159.819C337.235 159.215 336.996 158.861 336.44 158.861C335.884 158.861 335.692 159.167 335.692 159.771L335.654 159.819Z" fill="white"/>
<path d="M275.472 187.538C277.663 187.538 279.44 185.761 279.44 183.57C279.44 181.378 277.663 179.602 275.472 179.602C273.28 179.602 271.504 181.378 271.504 183.57C271.504 185.761 273.28 187.538 275.472 187.538Z" fill="#90949E"/>
<path d="M290.769 183.407L288.909 188.199H287.769L290.002 182.449L287.913 177.072H289.197L290.903 181.519L292.638 177.072H293.798L291.718 182.449L293.932 188.199H292.638L290.769 183.407Z" fill="white"/>
<path d="M297.354 177.091C299.098 177.091 299.826 177.982 299.826 179.631V180.532C299.826 181.759 299.405 182.516 298.446 182.822C299.462 183.12 299.846 183.944 299.846 185.132V186.867C299.812 187.323 299.888 187.779 300.066 188.2H298.81C298.643 187.77 298.574 187.308 298.609 186.848V185.123C298.609 183.867 298.025 183.474 296.989 183.474H296.117V188.267H294.881V177.091H297.354ZM297.037 182.324C297.996 182.324 298.609 182.008 298.609 180.8V179.746C298.609 178.787 298.245 178.222 297.325 178.222H296.117V182.324H297.037Z" fill="white"/>
<path d="M303.593 177.091C305.337 177.091 306.075 178.126 306.075 179.803V181.136C306.075 182.899 305.251 183.819 303.497 183.819H302.405V188.2H301.187V177.091H303.593ZM303.497 182.707C304.456 182.707 304.858 182.276 304.858 181.212V179.746C304.858 178.73 304.494 178.222 303.593 178.222H302.405V182.707H303.497Z" fill="white"/>
<path d="M319.398 179.104C318.933 179.392 318.402 179.557 317.855 179.583V178.567C318.296 178.579 318.727 178.438 319.076 178.169C319.425 177.901 319.671 177.52 319.772 177.091H320.625V188.2H319.398V179.104Z" fill="white"/>
<path d="M327.459 179.794C327.459 183.139 323.702 184.346 323.683 186.896V187.04H327.335V188.171H322.466V187.212C322.466 183.628 326.223 182.937 326.223 179.813C326.223 178.663 325.839 178.068 324.919 178.068C323.999 178.068 323.625 178.711 323.625 179.698V180.656H322.466V179.698C322.466 178.001 323.242 176.88 324.958 176.88C326.673 176.88 327.459 178.097 327.459 179.794Z" fill="white"/>
<path d="M331.715 178.826V182.324C331.715 183.407 331.207 184.116 330.133 184.116C329.06 184.116 328.542 183.407 328.542 182.324V178.826C328.542 177.762 329.05 177.033 330.133 177.033C331.216 177.033 331.715 177.762 331.715 178.826ZM329.338 178.778V182.391C329.338 182.995 329.558 183.35 330.133 183.35C330.708 183.35 330.919 182.957 330.919 182.391V178.778C330.919 178.174 330.689 177.762 330.133 177.762C329.577 177.762 329.338 178.174 329.338 178.778ZM335.376 177.091L331.005 188.199H330.258L334.638 177.091H335.376ZM337.168 182.966V186.455C337.168 187.528 336.68 188.247 335.587 188.247C334.494 188.247 333.996 187.528 333.996 186.455V182.966C333.996 181.902 334.504 181.183 335.587 181.183C336.67 181.183 337.168 181.902 337.168 182.966ZM334.791 182.918V186.512C334.791 187.116 335.031 187.528 335.587 187.528C336.143 187.528 336.382 187.116 336.382 186.512V182.918C336.382 182.314 336.143 181.96 335.587 181.96C335.031 181.96 334.791 182.314 334.791 182.918Z" fill="white"/>
<path d="M275.472 210.676C277.663 210.676 279.44 208.899 279.44 206.707C279.44 204.516 277.663 202.739 275.472 202.739C273.28 202.739 271.504 204.516 271.504 206.707C271.504 208.899 273.28 210.676 275.472 210.676Z" fill="white"/>
<path d="M288.009 211.337V200.238H289.245V210.215H292.418V211.337H288.009Z" fill="white"/>
<path d="M294.181 211.337V201.359H292.13V200.238H297.459V201.359H295.436V211.337H294.181Z" fill="white"/>
<path d="M303.219 202.921V203.88H302.05V202.854C302.05 201.896 301.657 201.254 300.747 201.254C299.836 201.254 299.453 201.858 299.453 202.854V208.72C299.453 209.679 299.865 210.321 300.747 210.321C301.628 210.321 302.05 209.717 302.05 208.72V207.283H303.219V208.663C303.219 210.34 302.434 211.452 300.718 211.452C299.002 211.452 298.226 210.34 298.226 208.663V202.912C298.226 201.225 299.021 200.113 300.718 200.113C302.414 200.113 303.219 201.235 303.219 202.921Z" fill="white"/>
<path d="M322.101 202.931C322.101 206.276 318.334 207.484 318.325 210.043V210.216H321.967V211.337H317.098V210.379C317.098 206.794 320.865 206.094 320.865 202.97C320.865 201.829 320.481 201.225 319.561 201.225C318.641 201.225 318.258 201.877 318.258 202.864V203.823H317.098V202.922C317.098 201.225 317.874 200.094 319.59 200.094C321.306 200.094 322.101 201.235 322.101 202.931Z" fill="white"/>
<path d="M328.331 202.874V203.219C328.395 203.685 328.306 204.159 328.078 204.57C327.85 204.981 327.495 205.307 327.066 205.5C327.5 205.705 327.856 206.044 328.084 206.466C328.311 206.889 328.398 207.373 328.331 207.848V208.672C328.331 210.388 327.449 211.452 325.715 211.452C323.98 211.452 323.098 210.388 323.098 208.672V207.848C323.033 207.371 323.122 206.885 323.354 206.462C323.585 206.04 323.945 205.702 324.382 205.5C323.949 205.312 323.588 204.987 323.357 204.575C323.125 204.163 323.034 203.687 323.098 203.219V202.874C323.098 202.18 323.374 201.514 323.864 201.023C324.355 200.533 325.021 200.257 325.715 200.257C326.409 200.257 327.074 200.533 327.565 201.023C328.056 201.514 328.331 202.18 328.331 202.874ZM324.325 202.874V203.41C324.325 204.493 324.842 204.963 325.715 204.963C326.587 204.963 327.114 204.493 327.114 203.41V202.874C327.114 201.733 326.587 201.206 325.715 201.206C324.842 201.206 324.325 201.762 324.325 202.902V202.874ZM324.325 207.666V208.624C324.325 209.765 324.833 210.302 325.715 210.302C326.596 210.302 327.095 209.765 327.114 208.624V207.666C327.114 206.592 326.635 206.065 325.715 206.065C324.794 206.065 324.325 206.631 324.325 207.704V207.666Z" fill="white"/>
<path d="M332.568 201.963V205.471C332.568 206.544 332.06 207.263 330.986 207.263C329.913 207.263 329.405 206.544 329.405 205.471V201.963C329.405 200.899 329.903 200.171 330.986 200.171C332.069 200.171 332.568 200.899 332.568 201.963ZM330.191 201.963V205.586C330.191 206.18 330.411 206.544 330.986 206.544C331.561 206.544 331.782 206.142 331.782 205.586V201.963C331.782 201.359 331.542 200.947 330.986 200.947C330.43 200.947 330.191 201.311 330.191 201.915V201.963ZM336.239 200.286L331.858 211.337H331.111L335.491 200.238L336.239 200.286ZM338.031 206.152V209.64C338.031 210.723 337.533 211.433 336.44 211.433C335.347 211.433 334.858 210.723 334.858 209.64V206.152C334.858 205.088 335.366 204.378 336.44 204.378C337.513 204.378 338.031 205.04 338.031 206.104V206.152ZM335.654 206.152V209.755C335.654 210.359 335.884 210.771 336.44 210.771C336.996 210.771 337.235 210.359 337.235 209.755V206.152C337.235 205.548 336.996 205.193 336.44 205.193C335.884 205.193 335.692 205.452 335.692 206.056L335.654 206.152Z" fill="white"/>
<path d="M301.647 8.96545H299.05V15.4735H301.647V8.96545Z" fill="white"/>
<path d="M305.117 7.66199H302.52V15.4735H305.117V7.66199Z" fill="white"/>
<path d="M308.587 6.7323H305.99V15.464H308.587V6.7323Z" fill="white"/>
<path d="M312.057 5.12207H309.459V15.464H312.057V5.12207Z" fill="white"/>
<path d="M344.319 15.2915H328.657V5.70679H344.319V15.2915ZM329.568 14.4193H343.36V6.61733H329.52L329.568 14.4193Z" fill="white"/>
<path d="M339.066 7.55652H330.823V13.4799H339.066V7.55652Z" fill="white"/>
<path d="M345.689 9.39685H343.724V11.6493H345.689V9.39685Z" fill="white"/>
<path d="M322.926 13.2115C322.822 13.2089 322.72 13.1827 322.628 13.1349C319.456 11.2179 317.357 12.9911 317.271 13.0678C317.154 13.1693 317.001 13.2203 316.847 13.2096C316.692 13.1988 316.548 13.1271 316.446 13.0103C316.395 12.9537 316.356 12.8874 316.331 12.8153C316.306 12.7432 316.296 12.6667 316.301 12.5906C316.307 12.5145 316.327 12.4403 316.362 12.3724C316.397 12.3045 316.445 12.2443 316.504 12.1956C316.609 12.0901 319.293 9.78979 323.213 12.1285C323.322 12.1951 323.406 12.2954 323.452 12.4142C323.498 12.5329 323.505 12.6635 323.47 12.7862C323.435 12.9088 323.361 13.0168 323.26 13.0935C323.158 13.1703 323.034 13.2118 322.906 13.2115H322.926Z" fill="white"/>
<path d="M324.104 11.2563C323.999 11.2547 323.897 11.2249 323.807 11.17C319.216 8.4384 316.139 11.0838 316.092 11.1029C315.976 11.2057 315.824 11.2583 315.669 11.2494C315.515 11.2404 315.37 11.1705 315.267 11.055C315.166 10.938 315.115 10.7855 315.125 10.631C315.136 10.4764 315.208 10.3325 315.325 10.2307C315.325 10.2307 319.082 7.01027 324.401 10.1732C324.509 10.2394 324.593 10.3389 324.64 10.4567C324.686 10.5745 324.693 10.7042 324.66 10.8264C324.626 10.9485 324.554 11.0565 324.454 11.134C324.354 11.2116 324.231 11.2545 324.104 11.2563Z" fill="white"/>
<path d="M325.149 8.98466C325.044 8.9831 324.942 8.95331 324.852 8.89839C319.034 5.43832 315.171 8.69712 315.009 8.84089C314.892 8.94247 314.739 8.99347 314.584 8.98269C314.43 8.9719 314.286 8.90022 314.184 8.78338C314.083 8.6664 314.032 8.51389 314.042 8.35934C314.053 8.20478 314.125 8.06083 314.242 7.95909C314.242 7.95909 318.881 3.99103 325.456 7.90159C325.587 7.9812 325.682 8.10926 325.719 8.25811C325.757 8.40696 325.735 8.56465 325.657 8.69712C325.604 8.78408 325.529 8.85606 325.44 8.90635C325.351 8.95663 325.251 8.98357 325.149 8.98466Z" fill="white"/>
<path d="M319.715 15.6557C320.525 15.6557 321.181 14.9991 321.181 14.1892C321.181 13.3793 320.525 12.7228 319.715 12.7228C318.905 12.7228 318.248 13.3793 318.248 14.1892C318.248 14.9991 318.905 15.6557 319.715 15.6557Z" fill="white"/>
<path d="M158.874 277.462C163.744 277.462 167.692 273.514 167.692 268.644C167.692 263.774 163.744 259.826 158.874 259.826C154.004 259.826 150.056 263.774 150.056 268.644C150.056 273.514 154.004 277.462 158.874 277.462Z" fill="#10B981"/>
<path d="M183.813 321.225C185.548 321.225 186.228 322.05 186.228 323.679V324.206C186.228 325.376 185.893 326.123 184.925 326.411C186.008 326.708 186.42 327.571 186.42 328.788V329.746C186.47 330.094 186.439 330.448 186.329 330.782C186.22 331.116 186.036 331.42 185.79 331.671C185.545 331.922 185.245 332.113 184.913 332.23C184.582 332.346 184.229 332.385 183.88 332.344H181.379V321.225H183.813ZM183.516 325.932C184.474 325.932 185.011 325.615 185.011 324.456V323.813C185.011 322.855 184.676 322.347 183.784 322.347H182.567V325.932H183.516ZM183.88 331.203C184.791 331.203 185.193 330.724 185.193 329.689V328.73C185.193 327.494 184.704 327.082 183.641 327.082H182.567V331.222L183.88 331.203Z" fill="white"/>
<path d="M188.787 321.225V332.344H187.551V321.225H188.787Z" fill="white"/>
<path d="M191.653 332.344V322.366H189.612V321.225H194.922V322.347H192.88V332.344H191.653Z" fill="white"/>
<path d="M200.673 323.919V324.925H199.494V323.861C199.494 322.903 199.101 322.261 198.2 322.261C197.299 322.261 196.896 322.865 196.896 323.861V329.727C196.896 330.686 197.308 331.328 198.2 331.328C199.091 331.328 199.494 330.724 199.494 329.727V328.28H200.673V329.66C200.673 331.347 199.877 332.459 198.162 332.459C196.446 332.459 195.679 331.347 195.679 329.66V323.909C195.679 322.232 196.465 321.12 198.162 321.12C199.858 321.12 200.673 322.242 200.673 323.919Z" fill="white"/>
<path d="M201.708 323.919C201.708 322.222 202.542 321.13 204.238 321.13C205.935 321.13 206.797 322.222 206.797 323.919V329.67C206.797 331.357 205.954 332.468 204.238 332.468C202.522 332.468 201.708 331.357 201.708 329.67V323.919ZM202.925 329.727C202.925 330.743 203.356 331.328 204.238 331.328C205.12 331.328 205.561 330.743 205.561 329.727V323.861C205.561 322.903 205.149 322.261 204.238 322.261C203.328 322.261 202.925 322.864 202.925 323.861V329.727Z" fill="white"/>
<path d="M209.174 321.225V332.344H207.938V321.225H209.174Z" fill="white"/>
<path d="M211.57 332.344H210.458V321.225H212.05L214.618 329.248V321.225H215.721V332.344H214.436L211.561 323.372L211.57 332.344Z" fill="white"/>
<path d="M286.811 321.292C288.152 321.484 288.727 322.529 288.727 324.015V324.321H287.568V323.938C287.568 322.979 287.175 322.356 286.283 322.356C285.392 322.356 285.018 322.96 285.018 323.938C285.018 326.43 288.737 326.439 288.737 329.574C288.737 331.059 288.104 332.123 286.763 332.315V333.149H285.852V332.315C284.472 332.123 283.849 331.078 283.849 329.574V328.893H285.009V329.66C285.009 330.618 285.421 331.232 286.312 331.232C287.204 331.232 287.606 330.657 287.606 329.66C287.606 327.187 283.897 327.149 283.897 324.024C283.897 322.5 284.52 321.503 285.814 321.302V320.411H286.811V321.292Z" fill="white"/>
<path d="M297.488 323.938C297.488 327.283 293.73 328.491 293.721 331.04V331.222H297.353V332.344H292.484V331.385C292.484 327.801 296.242 327.101 296.242 323.976C296.242 322.836 295.868 322.232 294.948 322.232C294.027 322.232 293.644 322.884 293.644 323.861V324.82H292.484V323.919C292.484 322.222 293.261 321.043 294.976 321.043C296.692 321.043 297.488 322.242 297.488 323.938Z" fill="white"/>
<path d="M303.574 323.919V324.206C303.628 324.682 303.526 325.162 303.282 325.574C303.038 325.986 302.666 326.307 302.223 326.488C302.666 326.673 303.038 326.998 303.282 327.413C303.525 327.827 303.628 328.31 303.574 328.788V329.651C303.574 331.347 302.779 332.459 301.063 332.459C299.347 332.459 298.571 331.347 298.571 329.651V328.893H299.731V329.737C299.731 330.695 300.143 331.337 301.034 331.337C301.926 331.337 302.328 330.753 302.328 329.631V328.769C302.328 327.676 301.868 327.149 300.938 327.12H300.229V326.018H300.958C301.15 326.02 301.34 325.98 301.516 325.902C301.691 325.823 301.848 325.707 301.974 325.563C302.101 325.418 302.195 325.247 302.249 325.063C302.304 324.878 302.317 324.684 302.29 324.494V323.986C302.29 322.845 301.897 322.261 300.996 322.261C300.095 322.261 299.692 322.884 299.692 323.881V324.446H298.533V323.938C298.533 322.242 299.328 321.149 301.025 321.149C302.721 321.149 303.574 322.184 303.574 323.919Z" fill="white"/>
<path d="M305.318 332.344H304.858V330.81H306.047V332.238L305.433 333.743H304.925L305.318 332.344Z" fill="white"/>
<path d="M311.827 330.11V332.344H310.619V330.11H307.034V328.979L310.475 321.245H311.827V328.979H312.689V330.11H311.827ZM308.175 328.979H310.619V323.555L308.175 328.979Z" fill="white"/>
<path d="M318.756 323.871V324.226C318.819 324.691 318.729 325.165 318.501 325.576C318.273 325.987 317.919 326.313 317.491 326.507C317.925 326.712 318.281 327.051 318.509 327.473C318.736 327.896 318.823 328.38 318.756 328.855V329.679C318.756 331.395 317.865 332.459 316.14 332.459C314.414 332.459 313.523 331.395 313.523 329.679V328.893C313.456 328.416 313.545 327.93 313.776 327.507C314.008 327.084 314.369 326.747 314.807 326.545C314.374 326.357 314.013 326.032 313.782 325.621C313.55 325.209 313.459 324.732 313.523 324.264V323.909C313.523 323.566 313.591 323.225 313.722 322.908C313.854 322.591 314.046 322.302 314.289 322.059C314.532 321.816 314.821 321.623 315.138 321.492C315.456 321.36 315.796 321.293 316.14 321.293C316.483 321.293 316.823 321.36 317.141 321.492C317.458 321.623 317.747 321.816 317.99 322.059C318.233 322.302 318.426 322.591 318.557 322.908C318.689 323.225 318.756 323.566 318.756 323.909V323.871ZM314.74 323.871V324.408C314.74 325.491 315.267 325.96 316.14 325.96C317.012 325.96 317.539 325.491 317.539 324.408V323.871C317.539 322.73 317.012 322.203 316.14 322.203C315.267 322.203 314.74 322.769 314.74 323.909V323.871ZM314.74 328.663V329.622C314.74 330.762 315.248 331.299 316.14 331.299C317.031 331.299 317.52 330.762 317.539 329.622V328.663C317.539 327.59 317.06 327.063 316.14 327.063C315.219 327.063 314.74 327.638 314.74 328.711V328.663Z" fill="white"/>
<path d="M324.871 323.909V324.101H323.712V323.823C323.712 322.816 323.299 322.232 322.389 322.232C321.478 322.232 321.047 322.836 321.047 324.024V326.516C321.174 326.149 321.419 325.834 321.742 325.619C322.066 325.404 322.452 325.302 322.839 325.328C324.267 325.328 324.9 326.353 324.9 327.954V329.641C324.9 331.337 324.057 332.449 322.36 332.449C320.664 332.449 319.811 331.337 319.811 329.641V323.976C319.811 322.213 320.596 321.101 322.36 321.101C324.124 321.101 324.871 322.184 324.871 323.909ZM321.037 328.059V329.727C321.037 330.686 321.45 331.328 322.35 331.328C323.251 331.328 323.664 330.724 323.664 329.727V328.059C323.664 327.101 323.242 326.459 322.35 326.459C321.459 326.459 321.047 327.063 321.047 328.059H321.037Z" fill="white"/>
<path d="M327.248 330.81V332.344H326.108V330.81H327.248Z" fill="white"/>
<path d="M329.76 325.759C329.916 325.46 330.154 325.212 330.446 325.042C330.737 324.873 331.071 324.789 331.408 324.801C332.836 324.801 333.469 325.855 333.469 327.436V329.612C333.469 331.309 332.654 332.42 330.958 332.42C329.261 332.42 328.466 331.309 328.466 329.612V328.893H329.625V329.718C329.625 330.676 330.037 331.318 330.929 331.318C331.82 331.318 332.232 330.714 332.232 329.718V327.561C332.232 326.603 331.82 325.96 330.929 325.96C330.768 325.954 330.607 325.98 330.456 326.036C330.306 326.093 330.168 326.179 330.051 326.29C329.934 326.401 329.84 326.534 329.775 326.681C329.71 326.829 329.676 326.988 329.673 327.149V327.408H328.514L328.82 321.235H333.2V322.347H329.942L329.76 325.759Z" fill="white"/>
<path d="M336.929 323.257C336.46 323.537 335.931 323.701 335.386 323.737V322.721C335.826 322.732 336.257 322.592 336.606 322.323C336.956 322.054 337.201 321.674 337.303 321.245H338.156V332.344H336.938L336.929 323.257Z" fill="white"/>
<path d="M160.269 336.437C165.076 335.655 168.339 331.125 167.557 326.318C166.775 321.511 162.244 318.248 157.438 319.03C152.631 319.812 149.368 324.343 150.15 329.15C150.932 333.957 155.463 337.219 160.269 336.437Z" fill="#22252E"/>
<path d="M293.127 380.363C294.478 380.555 295.091 381.6 295.091 383.085V383.392H293.941V383.008C293.941 382.05 293.539 381.427 292.657 381.427C291.775 381.427 291.382 382.031 291.382 383.008C291.382 385.5 295.111 385.52 295.111 388.644C295.111 390.13 294.478 391.194 293.127 391.385V392.229H292.111V391.385C290.73 391.194 290.117 390.149 290.117 388.644V387.954H291.277V388.721C291.277 389.679 291.689 390.293 292.571 390.293C293.452 390.293 293.874 389.718 293.874 388.721C293.874 386.248 290.165 386.21 290.165 383.085C290.165 381.561 290.778 380.564 292.082 380.363V379.472H293.098L293.127 380.363Z" fill="white"/>
<path d="M303.871 382.951V383.296C303.934 383.762 303.844 384.235 303.616 384.646C303.389 385.057 303.034 385.383 302.606 385.577C303.04 385.783 303.396 386.121 303.624 386.544C303.851 386.966 303.938 387.45 303.871 387.925V388.75C303.871 390.465 302.98 391.529 301.255 391.529C299.529 391.529 298.638 390.465 298.638 388.75V387.925C298.571 387.448 298.66 386.962 298.892 386.539C299.123 386.116 299.484 385.778 299.922 385.577C299.489 385.389 299.129 385.064 298.897 384.652C298.665 384.241 298.574 383.764 298.638 383.296V382.951C298.638 382.257 298.914 381.591 299.404 381.101C299.895 380.61 300.561 380.334 301.255 380.334C301.949 380.334 302.614 380.61 303.105 381.101C303.596 381.591 303.871 382.257 303.871 382.951ZM299.855 382.951V383.526C299.855 384.609 300.382 385.079 301.255 385.079C302.127 385.079 302.654 384.609 302.654 383.526V382.989C302.654 381.849 302.127 381.321 301.255 381.321C300.382 381.321 299.855 381.839 299.855 382.98V382.951ZM299.855 387.743V388.702C299.855 389.842 300.363 390.379 301.255 390.379C302.146 390.379 302.635 389.842 302.654 388.702V387.743C302.654 386.67 302.175 386.143 301.255 386.143C300.335 386.143 299.855 386.708 299.855 387.782V387.743Z" fill="white"/>
<path d="M305.539 391.414H305.079V389.881H306.267V391.309L305.654 392.814H305.146L305.539 391.414Z" fill="white"/>
<path d="M307.446 382.989C307.446 381.293 308.28 380.2 309.986 380.2C311.692 380.2 312.536 381.293 312.536 382.989V388.74C312.536 390.437 311.692 391.548 309.986 391.548C308.28 391.548 307.446 390.437 307.446 388.74V382.989ZM308.664 388.798C308.664 389.756 309.095 390.398 309.986 390.398C310.878 390.398 311.299 389.794 311.299 388.798V382.932C311.299 381.916 310.887 381.312 309.986 381.312C309.085 381.312 308.664 381.916 308.664 382.932V388.798Z" fill="white"/>
<path d="M313.647 382.989C313.647 381.293 314.491 380.2 316.187 380.2C317.884 380.2 318.737 381.293 318.737 382.989V388.74C318.737 390.437 317.893 391.548 316.187 391.548C314.481 391.548 313.647 390.437 313.647 388.74V382.989ZM314.865 388.798C314.865 389.756 315.296 390.398 316.187 390.398C317.079 390.398 317.501 389.794 317.501 388.798V382.932C317.501 381.916 317.088 381.312 316.187 381.312C315.286 381.312 314.865 381.916 314.865 382.932V388.798Z" fill="white"/>
<path d="M319.791 382.989C319.791 381.293 320.635 380.2 322.331 380.2C324.028 380.2 324.881 381.293 324.881 382.989V388.74C324.881 390.437 324.037 391.548 322.331 391.548C320.625 391.548 319.791 390.437 319.791 388.74V382.989ZM321.009 388.798C321.009 389.756 321.44 390.398 322.331 390.398C323.223 390.398 323.644 389.794 323.644 388.798V382.932C323.644 381.916 323.232 381.312 322.331 381.312C321.43 381.312 321.009 381.916 321.009 382.932V388.798Z" fill="white"/>
<path d="M327.248 389.881V391.414H326.108V389.881H327.248Z" fill="white"/>
<path d="M333.517 383.009C333.517 386.354 329.759 387.561 329.74 390.111V390.293H333.392V391.414H328.513V390.456C328.513 386.871 332.28 386.171 332.28 383.047C332.28 381.906 331.897 381.302 330.977 381.302C330.057 381.302 329.673 381.954 329.673 382.941V383.9H328.513V382.999C328.513 381.302 329.299 380.124 331.005 380.124C332.712 380.124 333.517 381.312 333.517 383.009Z" fill="white"/>
<path d="M336.929 382.328C336.46 382.608 335.931 382.772 335.386 382.807V381.791C335.826 381.803 336.257 381.663 336.606 381.394C336.956 381.125 337.201 380.744 337.303 380.315H338.156V391.414H336.938L336.929 382.328Z" fill="white"/>
<path d="M158.874 395.603C163.744 395.603 167.692 391.655 167.692 386.785C167.692 381.915 163.744 377.967 158.874 377.967C154.004 377.967 150.056 381.915 150.056 386.785C150.056 391.655 154.004 395.603 158.874 395.603Z" fill="#90949E"/>
<path d="M182.835 380.651C184.599 380.651 185.337 381.552 185.337 383.219V384.178C185.412 384.665 185.313 385.163 185.057 385.583C184.801 386.004 184.405 386.321 183.938 386.478C184.963 386.785 185.347 387.619 185.347 388.817V390.561C185.31 391.021 185.389 391.482 185.577 391.903H184.311C184.132 391.473 184.06 391.006 184.101 390.542V388.788C184.101 387.523 183.506 387.12 182.471 387.12H181.589V391.913H180.343V380.651H182.835ZM182.519 385.932C183.478 385.932 184.101 385.616 184.101 384.398V383.325C184.101 382.318 183.736 381.791 182.807 381.791H181.589V385.932H182.519Z" fill="white"/>
<path d="M187.896 380.651V391.855H186.65V380.651H187.896Z" fill="white"/>
<path d="M191.625 380.651C193.388 380.651 194.136 381.695 194.136 383.392V384.734C194.136 386.507 193.302 387.437 191.529 387.437H190.427V391.855H189.181V380.651H191.625ZM191.529 386.315C192.487 386.315 192.909 385.884 192.909 384.82V383.325C192.909 382.299 192.535 381.791 191.625 381.791H190.427V386.315H191.529Z" fill="white"/>
<path d="M197.567 380.651C199.321 380.651 200.079 381.695 200.079 383.392V384.734C200.079 386.507 199.245 387.437 197.471 387.437H196.36V391.855H195.114V380.651H197.567ZM197.471 386.315C198.43 386.315 198.842 385.884 198.842 384.82V383.325C198.842 382.299 198.478 381.791 197.567 381.791H196.36V386.315H197.471Z" fill="white"/>
<path d="M201.056 391.826V380.651H202.302V390.715H205.503V391.855L201.056 391.826Z" fill="white"/>
<path d="M210.43 385.587V386.708H207.698V390.686H211.091V391.826H206.49V380.651H211.091V381.791H207.736V385.625L210.43 385.587Z" fill="white"/>
<path d="M376.907 425.699H444" stroke="#263238" stroke-width="0.604701" stroke-linecap="round" stroke-linejoin="round"/>
<path d="M6.93726 425.699H367.322" stroke="#263238" stroke-width="0.604701" stroke-linecap="round" stroke-linejoin="round"/>
<path opacity="0.2" d="M81.2189 444.868C111.656 444.868 136.331 440.577 136.331 435.283C136.331 429.99 111.656 425.699 81.2189 425.699C50.7814 425.699 26.1069 429.99 26.1069 435.283C26.1069 440.577 50.7814 444.868 81.2189 444.868Z" fill="black"/>
<path d="M41.4423 170.65C41.0313 172.449 40.9792 174.312 41.289 176.132C41.8353 178.854 40.2347 186.599 40.2347 186.599L34.4263 222.8L27.4295 222.168C27.4295 222.168 28.2154 223.912 26.7681 226.423C25.3209 228.934 16.225 233.334 16.225 233.334C16.225 233.334 24.8512 241.893 29.1164 244.299C33.3816 246.704 37.618 246.637 40.3209 244.596C43.0238 242.554 47.6149 234.762 47.6149 234.762C47.6149 234.762 49.8769 195.139 48.7267 186.695C48.0431 181.589 46.6962 176.595 44.7203 171.838C44.4423 171.091 41.4423 170.65 41.4423 170.65Z" fill="white" stroke="#263238" stroke-width="0.604701" stroke-linecap="round" stroke-linejoin="round"/>
<path d="M57.487 409.558C57.487 409.558 53.1451 417.101 50.4422 418.894C47.7393 420.686 42.3335 424.769 39.1131 425.603C35.8926 426.437 33.1897 428.201 35.4613 430.146C37.7329 432.092 39.2377 432.571 47.4614 432.916C55.685 433.261 58.8672 430.721 64.5892 430.616C70.3113 430.51 75.8225 432.149 77.2698 429.389C78.7171 426.629 76.0142 415.156 76.0142 415.156C76.0142 415.156 63.9375 407.948 57.487 409.558Z" fill="white" stroke="#263238" stroke-width="0.604701" stroke-linecap="round" stroke-linejoin="round"/>
<path d="M77.2698 429.36C77.6631 428.229 77.8006 427.024 77.6723 425.833C74.2218 427.683 69.487 426.657 63.8703 426.657C57.7266 426.657 56.6722 429.82 45.9757 430.165C38.0204 430.434 35.5955 428.756 34.867 427.875C34.4453 428.555 34.5412 429.322 35.4613 430.117C37.7425 432.034 39.2377 432.542 47.4613 432.887C55.685 433.232 58.8671 430.692 64.5892 430.587C70.3113 430.482 75.8225 432.121 77.2698 429.36Z" fill="white" stroke="#263238" stroke-width="0.604701" stroke-linecap="round" stroke-linejoin="round"/>
<path d="M93.2572 418.865C92.7815 421.505 92.0792 424.099 91.1581 426.619C89.96 429.379 86.5958 436.204 84.3913 438.188C82.1868 440.172 80.4712 444.83 84.2859 445.664C96.1422 448.242 101.922 443.593 105.372 441.83C108.823 440.066 108.995 435.791 109.206 433.798C109.417 431.804 111.909 432.005 111.324 427.041C110.74 422.076 110.366 416.852 110.366 416.852C110.366 416.852 97.7716 420.772 93.2572 418.865Z" fill="white" stroke="#263238" stroke-width="0.604701" stroke-linecap="round" stroke-linejoin="round"/>
<path d="M105.094 439.29C102.458 441.571 96.6693 443.68 90.5351 443.68C85.8578 443.68 83.222 442.357 82.2252 441.763C81.7364 443.517 82.1101 445.223 84.2859 445.702C96.1422 448.28 101.922 443.632 105.372 441.868C108.823 440.105 108.995 435.83 109.206 433.836C109.417 431.843 111.909 432.044 111.324 427.079C111.267 426.638 111.219 426.207 111.171 425.775C110.51 426.935 109.714 428.363 109.129 429.542C107.903 431.919 107.72 437.009 105.094 439.29Z" fill="white" stroke="#263238" stroke-width="0.604701" stroke-linecap="round" stroke-linejoin="round"/>
<path d="M48.5349 245.689C48.5349 245.689 51.0844 303.638 51.4103 310.606C51.7361 317.574 54.7553 357.571 55.5413 359.814C56.3272 362.056 59.2889 401.804 59.3081 402.801C59.3272 403.798 59.3656 405.542 59.3656 405.542C59.3656 405.542 56.3943 406.587 56.4039 407.335C56.4135 408.082 55.9726 410.833 55.9726 410.833C55.9726 410.833 56.5285 413.804 63.5445 416.421C70.5605 419.037 77.9886 416.9 77.9886 416.9C77.9886 416.9 78.1708 413.162 78.142 411.667C78.1132 410.172 77.2602 404.22 77.241 403.472C77.2219 402.724 80.7011 374.785 80.4807 362.593C80.2602 350.401 78.9184 342.216 78.8225 336.494C78.7267 330.772 78.7171 289.701 78.7171 289.701L81.4966 291.887C81.4966 291.887 87.6117 354.772 88.4743 361.481C89.3369 368.191 93.7555 405.446 93.7938 407.68C93.8322 409.913 93.6405 412.913 93.6405 412.913L90.9472 415.453L91.0334 419.929C91.0334 419.929 95.289 421.597 100.551 423.236C105.813 424.875 110.95 420.063 110.95 420.063C111.32 418.759 111.545 417.419 111.621 416.066C111.621 414.581 111.516 410.095 111.516 410.095C111.516 410.095 115.177 378.916 114.526 370.462C113.874 362.008 111.899 335.421 111.899 335.421L115.896 281.583L113.471 244.04C113.471 244.04 103.014 243.982 86.8449 244.28C70.6755 244.577 48.6594 238.998 48.6594 238.998L48.5349 245.689Z" fill="#263238" stroke="#263238" stroke-width="0.604701" stroke-linecap="round" stroke-linejoin="round"/>
<path d="M61.1579 254.286C61.1579 254.286 72.5062 262.05 96.2858 255.887L96.1996 251.411C88.9084 252.092 81.5646 251.976 74.2985 251.065C63.8128 249.513 59.3176 248.593 59.3176 248.593L61.1579 254.286Z" fill="#828282" stroke="#263238" stroke-width="0.604701" stroke-linecap="round" stroke-linejoin="round"/>
<path d="M79.4493 253.288L71.8649 252.791L71.5389 257.764L79.1233 258.261L79.4493 253.288Z" fill="white" stroke="#263238" stroke-width="0.604701" stroke-linecap="round" stroke-linejoin="round"/>
<path d="M63.8321 250.759C63.8321 250.759 68.6245 256.644 97.9633 252.129L99.9089 156.896C99.9089 156.896 81.8897 151.25 80.6341 151.02C79.3785 150.79 60.2091 163.586 60.2091 163.586L58.2922 249.359L63.8321 250.759Z" fill="#10B981" stroke="#263238" stroke-width="0.604701" stroke-linecap="round" stroke-linejoin="round"/>
<path d="M72.9471 162.704L76.3209 168.867L68.4135 229.902L75.3816 243.465L82.8577 230.631L78.9567 168.714L85.5605 160.145L76.7522 157.432L72.9471 162.704Z" fill="#737373" stroke="#263238" stroke-width="0.604701" stroke-linecap="round" stroke-linejoin="round"/>
<path d="M76.3211 168.867L75.8994 172.116L79.0528 170.199L78.9569 168.714L85.5608 160.145L83.6534 159.551L74.3179 165.215L76.3211 168.867Z" fill="#263238"/>
<path d="M82.2826 221.497L68.4998 229.203L68.4135 229.902L71.2218 235.375L82.7522 228.934L82.2826 221.497Z" fill="#263238"/>
<path d="M80.1549 187.768L79.6756 180.196L74.4328 183.378L73.3306 191.899L80.1549 187.768Z" fill="#263238"/>
<path d="M70.5223 213.589L81.3435 206.516L80.8547 198.8L71.6629 204.819L70.5223 213.589Z" fill="#263238"/>
<path d="M68.6244 159.455V185.842C68.6244 185.842 66.9471 230.42 67.11 239.382C67.273 248.343 66.7746 262.04 65.1356 267.791C63.4966 273.542 53.2026 282.168 50.2505 283.989C47.2985 285.81 42.0844 286.864 42.0844 286.864C42.0844 286.864 45.9183 252.196 46.0141 242.487C46.11 232.778 44.7777 188.497 44.6818 183.263C44.586 178.03 39.9757 171.925 41.4422 169.404C42.9087 166.883 57.7362 160.653 58.9535 160.624C60.1707 160.595 67.8385 156.484 67.8385 156.484L68.6244 159.455Z" fill="white" stroke="#263238" stroke-width="0.604701" stroke-linecap="round" stroke-linejoin="round"/>
<path d="M67.8193 156.484C65.1049 157.979 62.3117 159.326 59.4518 160.519L57.8608 169.854L62.4327 175.001L58.3017 180.551C58.3017 180.551 60.5637 195.196 62.9215 201.637C64.1867 205.088 66.0749 211.404 67.5605 216.503C68.011 201.781 68.6052 185.832 68.6052 185.832V159.445L67.8193 156.484Z" fill="white" stroke="#263238" stroke-width="0.604701" stroke-linecap="round" stroke-linejoin="round"/>
<path d="M89.3082 144.378L95.8641 151.739C95.8641 151.739 95.7299 157.969 91.3114 161.535C88.896 163.514 86.3325 165.305 83.6436 166.893L78.5349 159.771L75.1803 159.512L72.4391 166.356L69.5637 159.186C69.5637 159.186 66.9566 152.477 72.3528 148.183C77.749 143.889 81.7171 143.036 83.2123 143.008C84.7075 142.979 89.3082 144.378 89.3082 144.378Z" fill="#10B981" stroke="#263238" stroke-width="0.604701" stroke-linecap="round" stroke-linejoin="round"/>
<path d="M52.4934 126.436C52.4934 126.436 53.4519 137.199 54.4104 138.896C55.3688 140.592 57.1995 143.985 57.1995 143.985C57.1995 143.985 57.2954 149.372 59.0494 151.298C60.8034 153.225 64.6468 162.704 67.8289 162.647C71.0111 162.589 75.1133 159.33 75.1133 159.33L76.6277 162.004C78.0765 160.352 79.6814 158.844 81.42 157.5C83.337 156.244 87.8801 149.305 88.5798 147.33C88.9639 146.389 89.1937 145.392 89.2603 144.378C89.2603 144.378 88.8674 136.059 88.0622 132.407C87.2571 128.755 87.1038 121.404 83.5862 115.097C80.0686 108.79 69.5254 109.48 63.6883 111.79C57.8513 114.1 51.88 119.841 51.6883 122.822C51.4966 125.803 52.4934 126.436 52.4934 126.436Z" fill="#BABABA" stroke="#263238" stroke-width="0.604701" stroke-linecap="round" stroke-linejoin="round"/>
<path d="M72.535 124.365C74.7683 126.033 72.6213 129.014 74.8354 129.464C76.7523 129.848 83.2124 127.452 86.682 123.666C86.1061 120.671 85.0784 117.782 83.6341 115.097C80.0878 108.8 69.5734 109.48 63.7363 111.79C57.8992 114.1 51.88 119.841 51.6883 122.822C51.4966 125.803 52.4934 126.474 52.4934 126.474C54.9715 127.169 57.5301 127.536 60.1037 127.567C63.7746 127.461 70.3018 122.688 72.535 124.365Z" fill="#263238" stroke="#263238" stroke-width="0.604701" stroke-linecap="round" stroke-linejoin="round"/>
<path d="M82.0528 135.944C82.0528 135.944 81.7173 130.806 84.6502 130.749C87.5831 130.691 88.1774 136.317 87.2477 139.03C87.0126 139.79 86.5739 140.472 85.9792 141C85.3845 141.529 84.6564 141.885 83.8739 142.03C83.8739 142.03 84.4298 145.691 83.7301 147.666" stroke="#263238" stroke-width="0.604701" stroke-linecap="round" stroke-linejoin="round"/>
<path d="M74.0302 150.052C71.567 149.094 67.6564 149.679 67.6564 149.679C67.4264 150.637 65.4807 151.433 65.4807 151.433L60.8321 151.27C60.8321 151.27 60.7842 152.381 60.7458 153.838C62.7203 157.318 65.5382 162.695 67.896 162.647C71.0782 162.589 75.1804 159.33 75.1804 159.33L75.2763 159.512C75.9409 158.812 76.7267 158.237 77.5958 157.816C78.5255 157.557 76.4456 150.982 74.0302 150.052Z" fill="#263238" stroke="#263238" stroke-width="0.604701" stroke-linecap="round" stroke-linejoin="round"/>
<path d="M63.5352 154.893C63.5352 154.893 69.4202 155.276 71.8163 152.295" stroke="#808080" stroke-width="0.604701" stroke-linecap="round" stroke-linejoin="round"/>
<path d="M56.6531 141.369C58.896 140.094 61.11 142.442 61.11 142.442C61.11 142.442 60.5158 150.052 60.7841 151.27C61.0525 152.487 64.7043 151.442 65.4327 151.432C66.1612 151.423 67.6276 150.618 67.6085 149.659L67.8385 148.701" fill="#BABABA"/>
<path d="M56.6531 141.369C58.896 140.094 61.11 142.442 61.11 142.442C61.11 142.442 60.5158 150.052 60.7841 151.27C61.0525 152.487 64.7043 151.442 65.4327 151.432C66.1612 151.423 67.6276 150.618 67.6085 149.659L67.8385 148.701" stroke="#263238" stroke-width="0.604701" stroke-linecap="round" stroke-linejoin="round"/>
<path d="M69.0176 143.41C69.2093 144.119 69.0176 144.8 68.4904 144.924C67.9633 145.049 67.4745 144.579 67.3211 143.908C67.1678 143.238 67.369 142.528 67.8483 142.404C68.3275 142.279 68.8355 142.71 69.0176 143.41Z" fill="#263238"/>
<path d="M60.2763 143.736C60.4584 144.445 60.2188 145.126 59.7396 145.25C59.2603 145.375 58.6948 144.867 58.5415 144.196C58.3881 143.525 58.5415 142.816 59.0686 142.691C59.5958 142.567 60.0846 143.036 60.2763 143.736Z" fill="#263238"/>
<path d="M64.369 140.813C64.369 140.813 66.0655 138.004 71.8355 138.522" stroke="#263238" stroke-width="0.604701" stroke-linecap="round" stroke-linejoin="round"/>
<path d="M95.8643 151.739C95.8643 151.739 91.647 166.25 87.8132 187.979C83.9793 209.708 85.139 259.96 85.7525 266.171C86.3659 272.382 90.9186 277.03 94.9538 279.695C98.9889 282.36 116.04 286.778 122.213 286.663C122.213 286.663 119.5 233.449 119.443 229.97C119.385 226.49 129.305 170.544 129.257 167.813C129.209 165.081 105.89 155.794 102.88 154.595C99.8707 153.397 95.8643 151.739 95.8643 151.739Z" fill="white" stroke="#263238" stroke-width="0.604701" stroke-linecap="round" stroke-linejoin="round"/>
<path d="M96.0177 173.89L103.906 169.519L102.88 154.596C99.8803 153.407 95.8643 151.72 95.8643 151.72C95.8643 151.72 91.6471 166.231 87.8132 187.96C86.4234 195.791 85.695 207.321 85.3499 219.168C85.3499 218.209 102.315 180.024 102.315 180.024L96.0177 173.89Z" fill="white" stroke="#263238" stroke-width="0.604701" stroke-linecap="round" stroke-linejoin="round"/>
<path d="M16.2058 233.334C16.2058 233.334 16.2058 231.494 19.6276 225.954C23.0493 220.414 27.4391 222.168 27.4391 222.168C27.4391 222.168 30.7458 225.608 26.0972 229.672C23.3707 232.081 19.8437 233.387 16.2058 233.334Z" fill="#263238" stroke="#263238" stroke-width="0.604701" stroke-linecap="round" stroke-linejoin="round"/>
<path d="M21.2186 232.088C22.6755 231.129 28.6564 229.989 28.4072 223.826C27.9663 223.068 27.4487 222.196 26.9407 221.401C25.6563 219.484 24.8896 217.96 24.8896 217.96C24.8896 217.96 18.6787 215.238 17.2218 218.247C17.736 221.54 18.4368 224.801 19.3209 228.014C19.8181 229.431 20.4538 230.795 21.2186 232.088Z" fill="#BABABA" stroke="#263238" stroke-width="0.604701" stroke-linecap="round" stroke-linejoin="round"/>
<path d="M19.6755 205.145L13.3208 184.107L26.7681 184.605L32.9311 208.893L19.6755 205.145Z" fill="#263238" stroke="#263238" stroke-width="0.604701" stroke-linecap="round" stroke-linejoin="round"/>
<path d="M21.0269 225.033C22.2332 224.745 23.3988 224.307 24.4966 223.73C25.7234 222.963 26.6531 219.206 26.6531 219.206C28.5405 218.616 30.3617 217.832 32.0877 216.867C34.7906 215.324 37.2634 213.992 36.9855 212.794C36.7075 211.596 34.4934 212.592 34.4934 212.592L35.1931 210.091L34.6564 207.608C34.6564 207.608 34.6564 206.65 34.6084 205.375C34.5605 204.1 32.8161 202.672 32.8161 202.672C32.9754 202.102 33.0497 201.511 33.0366 200.918C33.0366 199.96 32.4998 198.944 31.5126 199.001C30.5254 199.059 18.8895 202.96 18.8895 202.96L17.2889 197.017C17.2889 197.017 15.6787 204.263 15.7458 207.992C15.8128 211.72 18.4391 222.656 18.4391 223.404" fill="#BABABA"/>
<path d="M21.0269 225.033C22.2332 224.745 23.3988 224.307 24.4966 223.73C25.7234 222.963 26.6531 219.206 26.6531 219.206C28.5405 218.616 30.3617 217.832 32.0877 216.867C34.7906 215.324 37.2634 213.992 36.9855 212.794C36.7075 211.596 34.4934 212.592 34.4934 212.592L35.1931 210.091L34.6564 207.608C34.6564 207.608 34.6564 206.65 34.6084 205.375C34.5605 204.1 32.8161 202.672 32.8161 202.672C32.9754 202.102 33.0497 201.511 33.0366 200.918C33.0366 199.96 32.4998 198.944 31.5126 199.001C30.5254 199.059 18.8895 202.96 18.8895 202.96L17.2889 197.017C17.2889 197.017 15.6787 204.263 15.7458 207.992C15.8128 211.72 18.4391 222.656 18.4391 223.404" stroke="#263238" stroke-width="0.604701" stroke-linecap="round" stroke-linejoin="round"/>
<path d="M32.8161 202.672L22.6851 206.334" stroke="#263238" stroke-width="0.604701" stroke-linecap="round" stroke-linejoin="round"/>
<path d="M34.6563 207.608L23.7681 211.049" stroke="#263238" stroke-width="0.604701" stroke-linecap="round" stroke-linejoin="round"/>
<path d="M25.5893 215.746L34.4935 212.592" stroke="#263238" stroke-width="0.604701" stroke-linecap="round" stroke-linejoin="round"/>
<path d="M34.436 222.8C34.436 222.8 38.4424 224.219 39.7364 227.18" stroke="#263238" stroke-width="0.604701" stroke-linecap="round" stroke-linejoin="round"/>
<path d="M124.753 266.411C124.753 266.411 118.283 273.12 118.312 274.768C118.313 277.529 118.128 280.286 117.756 283.021C117.344 285.896 115.245 287.305 116.682 288.455C117.166 288.776 117.727 288.961 118.307 288.992C118.887 289.022 119.465 288.896 119.979 288.628C119.979 288.628 116.941 289.586 117.439 291.503C117.938 293.42 125.241 293.248 125.241 293.248L132.679 287.698C134.309 286.49 133.944 279.427 133.877 275.66C133.81 271.893 133.753 269.305 133.753 269.305L124.753 266.411Z" fill="#BABABA" stroke="#263238" stroke-width="0.604701" stroke-linecap="round" stroke-linejoin="round"/>
<path d="M119.979 288.628L121.695 283.721L122.088 279.043" stroke="#263238" stroke-width="0.604701" stroke-linecap="round" stroke-linejoin="round"/>
<path d="M119.788 180.675C119.788 180.675 116.136 199.164 116.184 201.647C116.232 204.129 124.226 233.363 124.226 233.363L120.392 269.276C122.598 270.354 124.86 271.314 127.168 272.152C128.912 272.612 135.679 274.73 135.679 274.73C135.679 274.73 142.571 243.494 143.759 240.484C144.948 237.474 143.5 225.8 143.462 224.065C143.424 222.331 133.091 173.477 133.072 172.73C133.053 171.982 132.21 166.27 130.705 165.551C129.2 164.832 123.459 163.941 123.459 163.941" fill="white"/>
<path d="M119.788 180.675C119.788 180.675 116.136 199.164 116.184 201.647C116.232 204.129 124.226 233.363 124.226 233.363L120.392 269.276C122.598 270.354 124.86 271.314 127.168 272.152C128.912 272.612 135.679 274.73 135.679 274.73C135.679 274.73 142.571 243.494 143.759 240.484C144.948 237.474 143.5 225.8 143.462 224.065C143.424 222.331 133.091 173.477 133.072 172.73C133.053 171.982 132.21 166.27 130.705 165.551C129.2 164.832 123.459 163.941 123.459 163.941" stroke="#263238" stroke-width="0.604701" stroke-linecap="round" stroke-linejoin="round"/>
</svg>
