<svg width="162" height="161" viewBox="0 0 162 161" fill="none" xmlns="http://www.w3.org/2000/svg">
<rect x="0.963806" y="0.463623" width="160.072" height="160.072" rx="5.33574" fill="#FAFAFB"/>
<path fill-rule="evenodd" clip-rule="evenodd" d="M130.802 42.7053C130.802 29.9356 120.45 19.5837 107.68 19.5837C94.9103 19.5837 84.5585 29.9356 84.5585 42.7053V83.168H96.1192V42.7053C96.1192 36.3205 101.295 31.1445 107.68 31.1445C114.065 31.1445 119.241 36.3205 119.241 42.7053V59.3054H130.802V42.7053Z" fill="#111217"/>
<rect x="74.331" y="62.7136" width="44.4645" height="78.7022" rx="3.55716" fill="#10B981"/>
<mask id="mask0_1_16832" style="mask-type:alpha" maskUnits="userSpaceOnUse" x="74" y="62" width="45" height="80">
<rect x="74.3305" y="62.7136" width="44.4645" height="78.7022" rx="3.55716" fill="url(#paint0_linear_1_16832)"/>
</mask>
<g mask="url(#mask0_1_16832)">
<circle cx="73.6671" cy="63.8278" r="0.670061" fill="#111217"/>
<circle cx="73.6671" cy="66.4962" r="0.670061" fill="#111217"/>
<circle cx="73.6671" cy="69.164" r="0.670061" fill="#111217"/>
<circle cx="73.6671" cy="71.8312" r="0.670061" fill="#111217"/>
<circle cx="73.6671" cy="74.4989" r="0.670061" fill="#111217"/>
<circle cx="73.6671" cy="77.1679" r="0.670061" fill="#111217"/>
<circle cx="73.6671" cy="79.8356" r="0.670061" fill="#111217"/>
<circle cx="73.6671" cy="82.5036" r="0.670061" fill="#111217"/>
<circle cx="73.6671" cy="85.1715" r="0.670061" fill="#111217"/>
<circle cx="73.6671" cy="87.8388" r="0.670061" fill="#111217"/>
<circle cx="73.6671" cy="90.5075" r="0.670061" fill="#111217"/>
<circle cx="73.6671" cy="93.1747" r="0.670061" fill="#111217"/>
<circle cx="73.6671" cy="95.8424" r="0.670061" fill="#111217"/>
<circle cx="73.6671" cy="98.5094" r="0.670061" fill="#111217"/>
<circle cx="73.6671" cy="101.178" r="0.670061" fill="#111217"/>
<circle cx="73.6671" cy="103.847" r="0.670061" fill="#111217"/>
<circle cx="73.6671" cy="106.514" r="0.670061" fill="#111217"/>
<circle cx="73.6671" cy="109.183" r="0.670061" fill="#111217"/>
<circle cx="73.6671" cy="111.849" r="0.670061" fill="#111217"/>
<circle cx="73.6671" cy="114.517" r="0.670061" fill="#111217"/>
<circle cx="73.6671" cy="117.186" r="0.670061" fill="#111217"/>
<circle cx="73.6671" cy="119.853" r="0.670061" fill="#111217"/>
<circle cx="73.6671" cy="122.521" r="0.670061" fill="#111217"/>
<circle cx="73.6671" cy="125.189" r="0.670061" fill="#111217"/>
<circle cx="73.6671" cy="127.858" r="0.670061" fill="#111217"/>
<circle cx="73.6671" cy="130.526" r="0.670061" fill="#111217"/>
<circle cx="73.6671" cy="133.193" r="0.670061" fill="#111217"/>
<circle cx="73.6671" cy="135.86" r="0.670061" fill="#111217"/>
<circle cx="73.6671" cy="138.528" r="0.670061" fill="#111217"/>
<circle cx="73.6671" cy="141.196" r="0.670061" fill="#111217"/>
<circle cx="76.3332" cy="63.8278" r="0.670061" fill="#111217"/>
<circle cx="76.3332" cy="66.4962" r="0.670061" fill="#111217"/>
<circle cx="76.3332" cy="69.164" r="0.670061" fill="#111217"/>
<circle cx="76.3332" cy="71.8312" r="0.670061" fill="#111217"/>
<circle cx="76.3332" cy="74.4989" r="0.670061" fill="#111217"/>
<circle cx="76.3332" cy="77.1679" r="0.670061" fill="#111217"/>
<circle cx="76.3332" cy="79.8356" r="0.670061" fill="#111217"/>
<circle cx="76.3332" cy="82.5036" r="0.670061" fill="#111217"/>
<circle cx="76.3332" cy="85.1715" r="0.670061" fill="#111217"/>
<circle cx="76.3332" cy="87.8388" r="0.670061" fill="#111217"/>
<circle cx="76.3332" cy="90.5075" r="0.670061" fill="#111217"/>
<circle cx="76.3332" cy="93.1747" r="0.670061" fill="#111217"/>
<circle cx="76.3332" cy="95.8424" r="0.670061" fill="#111217"/>
<circle cx="76.3332" cy="98.5094" r="0.670061" fill="#111217"/>
<circle cx="76.3332" cy="101.178" r="0.670061" fill="#111217"/>
<circle cx="76.3332" cy="103.847" r="0.670061" fill="#111217"/>
<circle cx="76.3332" cy="106.514" r="0.670061" fill="#111217"/>
<circle cx="76.3332" cy="109.183" r="0.670061" fill="#111217"/>
<circle cx="76.3332" cy="111.849" r="0.670061" fill="#111217"/>
<circle cx="76.3332" cy="114.517" r="0.670061" fill="#111217"/>
<circle cx="76.3332" cy="117.186" r="0.670061" fill="#111217"/>
<circle cx="76.3332" cy="119.853" r="0.670061" fill="#111217"/>
<circle cx="76.3332" cy="122.521" r="0.670061" fill="#111217"/>
<circle cx="76.3332" cy="125.189" r="0.670061" fill="#111217"/>
<circle cx="76.3332" cy="127.858" r="0.670061" fill="#111217"/>
<circle cx="76.3332" cy="130.526" r="0.670061" fill="#111217"/>
<circle cx="76.3332" cy="133.193" r="0.670061" fill="#111217"/>
<circle cx="76.3332" cy="135.86" r="0.670061" fill="#111217"/>
<circle cx="76.3332" cy="138.528" r="0.670061" fill="#111217"/>
<circle cx="76.3332" cy="141.196" r="0.670061" fill="#111217"/>
<circle cx="79.0012" cy="63.8278" r="0.670061" fill="#111217"/>
<circle cx="79.0012" cy="66.4962" r="0.670061" fill="#111217"/>
<circle cx="79.0012" cy="69.164" r="0.670061" fill="#111217"/>
<circle cx="79.0012" cy="71.8312" r="0.670061" fill="#111217"/>
<circle cx="79.0012" cy="74.4989" r="0.670061" fill="#111217"/>
<circle cx="79.0012" cy="77.1679" r="0.670061" fill="#111217"/>
<circle cx="79.0012" cy="79.8356" r="0.670061" fill="#111217"/>
<circle cx="79.0012" cy="82.5036" r="0.670061" fill="#111217"/>
<circle cx="79.0012" cy="85.1715" r="0.670061" fill="#111217"/>
<circle cx="79.0012" cy="87.8388" r="0.670061" fill="#111217"/>
<circle cx="79.0012" cy="90.5075" r="0.670061" fill="#111217"/>
<circle cx="79.0012" cy="93.1747" r="0.670061" fill="#111217"/>
<circle cx="79.0012" cy="95.8424" r="0.670061" fill="#111217"/>
<circle cx="79.0012" cy="98.5094" r="0.670061" fill="#111217"/>
<circle cx="79.0012" cy="101.178" r="0.670061" fill="#111217"/>
<circle cx="79.0012" cy="103.847" r="0.670061" fill="#111217"/>
<circle cx="79.0012" cy="106.514" r="0.670061" fill="#111217"/>
<circle cx="79.0012" cy="109.183" r="0.670061" fill="#111217"/>
<circle cx="79.0012" cy="111.849" r="0.670061" fill="#111217"/>
<circle cx="79.0012" cy="114.517" r="0.670061" fill="#111217"/>
<circle cx="79.0012" cy="117.186" r="0.670061" fill="#111217"/>
<circle cx="79.0012" cy="119.853" r="0.670061" fill="#111217"/>
<circle cx="79.0012" cy="122.521" r="0.670061" fill="#111217"/>
<circle cx="79.0012" cy="125.189" r="0.670061" fill="#111217"/>
<circle cx="79.0012" cy="127.858" r="0.670061" fill="#111217"/>
<circle cx="79.0012" cy="130.526" r="0.670061" fill="#111217"/>
<circle cx="79.0012" cy="133.193" r="0.670061" fill="#111217"/>
<circle cx="79.0012" cy="135.86" r="0.670061" fill="#111217"/>
<circle cx="79.0012" cy="138.528" r="0.670061" fill="#111217"/>
<circle cx="79.0012" cy="141.196" r="0.670061" fill="#111217"/>
<circle cx="81.6693" cy="63.8278" r="0.670061" fill="#111217"/>
<circle cx="81.6693" cy="66.4962" r="0.670061" fill="#111217"/>
<circle cx="81.6693" cy="69.164" r="0.670061" fill="#111217"/>
<circle cx="81.6693" cy="71.8312" r="0.670061" fill="#111217"/>
<circle cx="81.6693" cy="74.4989" r="0.670061" fill="#111217"/>
<circle cx="81.6693" cy="77.1679" r="0.670061" fill="#111217"/>
<circle cx="81.6693" cy="79.8356" r="0.670061" fill="#111217"/>
<circle cx="81.6693" cy="82.5036" r="0.670061" fill="#111217"/>
<circle cx="81.6693" cy="85.1715" r="0.670061" fill="#111217"/>
<circle cx="81.6693" cy="87.8388" r="0.670061" fill="#111217"/>
<circle cx="81.6693" cy="90.5075" r="0.670061" fill="#111217"/>
<circle cx="81.6693" cy="93.1747" r="0.670061" fill="#111217"/>
<circle cx="81.6693" cy="95.8424" r="0.670061" fill="#111217"/>
<circle cx="81.6693" cy="98.5094" r="0.670061" fill="#111217"/>
<circle cx="81.6693" cy="101.178" r="0.670061" fill="#111217"/>
<circle cx="81.6693" cy="103.847" r="0.670061" fill="#111217"/>
<circle cx="81.6693" cy="106.514" r="0.670061" fill="#111217"/>
<circle cx="81.6693" cy="109.183" r="0.670061" fill="#111217"/>
<circle cx="81.6693" cy="111.849" r="0.670061" fill="#111217"/>
<circle cx="81.6693" cy="114.517" r="0.670061" fill="#111217"/>
<circle cx="81.6693" cy="117.186" r="0.670061" fill="#111217"/>
<circle cx="81.6693" cy="119.853" r="0.670061" fill="#111217"/>
<circle cx="81.6693" cy="122.521" r="0.670061" fill="#111217"/>
<circle cx="81.6693" cy="125.189" r="0.670061" fill="#111217"/>
<circle cx="81.6693" cy="127.858" r="0.670061" fill="#111217"/>
<circle cx="81.6693" cy="130.526" r="0.670061" fill="#111217"/>
<circle cx="81.6693" cy="133.193" r="0.670061" fill="#111217"/>
<circle cx="81.6693" cy="135.86" r="0.670061" fill="#111217"/>
<circle cx="81.6693" cy="138.528" r="0.670061" fill="#111217"/>
<circle cx="81.6693" cy="141.196" r="0.670061" fill="#111217"/>
<circle cx="84.3388" cy="63.8278" r="0.670061" fill="#111217"/>
<circle cx="84.3388" cy="66.4962" r="0.670061" fill="#111217"/>
<circle cx="84.3388" cy="69.164" r="0.670061" fill="#111217"/>
<circle cx="84.3388" cy="71.8312" r="0.670061" fill="#111217"/>
<circle cx="84.3388" cy="74.4989" r="0.670061" fill="#111217"/>
<circle cx="84.3388" cy="77.1679" r="0.670061" fill="#111217"/>
<circle cx="84.3388" cy="79.8356" r="0.670061" fill="#111217"/>
<circle cx="84.3388" cy="82.5036" r="0.670061" fill="#111217"/>
<circle cx="84.3388" cy="85.1715" r="0.670061" fill="#111217"/>
<circle cx="84.3388" cy="87.8388" r="0.670061" fill="#111217"/>
<circle cx="84.3388" cy="90.5075" r="0.670061" fill="#111217"/>
<circle cx="84.3388" cy="93.1747" r="0.670061" fill="#111217"/>
<circle cx="84.3388" cy="95.8424" r="0.670061" fill="#111217"/>
<circle cx="84.3388" cy="98.5094" r="0.670061" fill="#111217"/>
<circle cx="84.3388" cy="101.178" r="0.670061" fill="#111217"/>
<circle cx="84.3388" cy="103.847" r="0.670061" fill="#111217"/>
<circle cx="84.3388" cy="106.514" r="0.670061" fill="#111217"/>
<circle cx="84.3388" cy="109.183" r="0.670061" fill="#111217"/>
<circle cx="84.3388" cy="111.849" r="0.670061" fill="#111217"/>
<circle cx="84.3388" cy="114.517" r="0.670061" fill="#111217"/>
<circle cx="84.3388" cy="117.186" r="0.670061" fill="#111217"/>
<circle cx="84.3388" cy="119.853" r="0.670061" fill="#111217"/>
<circle cx="84.3388" cy="122.521" r="0.670061" fill="#111217"/>
<circle cx="84.3388" cy="125.189" r="0.670061" fill="#111217"/>
<circle cx="84.3388" cy="127.858" r="0.670061" fill="#111217"/>
<circle cx="84.3388" cy="130.526" r="0.670061" fill="#111217"/>
<circle cx="84.3388" cy="133.193" r="0.670061" fill="#111217"/>
<circle cx="84.3388" cy="135.86" r="0.670061" fill="#111217"/>
<circle cx="84.3388" cy="138.528" r="0.670061" fill="#111217"/>
<circle cx="84.3388" cy="141.196" r="0.670061" fill="#111217"/>
<circle cx="87.0073" cy="63.8278" r="0.670061" fill="#111217"/>
<circle cx="87.0073" cy="66.4962" r="0.670061" fill="#111217"/>
<circle cx="87.0073" cy="69.164" r="0.670061" fill="#111217"/>
<circle cx="87.0073" cy="71.8312" r="0.670061" fill="#111217"/>
<circle cx="87.0073" cy="74.4989" r="0.670061" fill="#111217"/>
<circle cx="87.0073" cy="77.1679" r="0.670061" fill="#111217"/>
<circle cx="87.0073" cy="79.8356" r="0.670061" fill="#111217"/>
<circle cx="87.0073" cy="82.5036" r="0.670061" fill="#111217"/>
<circle cx="87.0073" cy="85.1715" r="0.670061" fill="#111217"/>
<circle cx="87.0073" cy="87.8388" r="0.670061" fill="#111217"/>
<circle cx="87.0073" cy="90.5075" r="0.670061" fill="#111217"/>
<circle cx="87.0073" cy="93.1747" r="0.670061" fill="#111217"/>
<circle cx="87.0073" cy="95.8424" r="0.670061" fill="#111217"/>
<circle cx="87.0073" cy="98.5094" r="0.670061" fill="#111217"/>
<circle cx="87.0073" cy="101.178" r="0.670061" fill="#111217"/>
<circle cx="87.0073" cy="103.847" r="0.670061" fill="#111217"/>
<circle cx="87.0073" cy="106.514" r="0.670061" fill="#111217"/>
<circle cx="87.0073" cy="109.183" r="0.670061" fill="#111217"/>
<circle cx="87.0073" cy="111.849" r="0.670061" fill="#111217"/>
<circle cx="87.0073" cy="114.517" r="0.670061" fill="#111217"/>
<circle cx="87.0073" cy="117.186" r="0.670061" fill="#111217"/>
<circle cx="87.0073" cy="119.853" r="0.670061" fill="#111217"/>
<circle cx="87.0073" cy="122.521" r="0.670061" fill="#111217"/>
<circle cx="87.0073" cy="125.189" r="0.670061" fill="#111217"/>
<circle cx="87.0073" cy="127.858" r="0.670061" fill="#111217"/>
<circle cx="87.0073" cy="130.526" r="0.670061" fill="#111217"/>
<circle cx="87.0073" cy="133.193" r="0.670061" fill="#111217"/>
<circle cx="87.0073" cy="135.86" r="0.670061" fill="#111217"/>
<circle cx="87.0073" cy="138.528" r="0.670061" fill="#111217"/>
<circle cx="87.0073" cy="141.196" r="0.670061" fill="#111217"/>
<circle cx="89.6725" cy="63.8278" r="0.670061" fill="#111217"/>
<circle cx="89.6725" cy="66.4962" r="0.670061" fill="#111217"/>
<circle cx="89.6725" cy="69.164" r="0.670061" fill="#111217"/>
<circle cx="89.6725" cy="71.8312" r="0.670061" fill="#111217"/>
<circle cx="89.6725" cy="74.4989" r="0.670061" fill="#111217"/>
<circle cx="89.6725" cy="77.1679" r="0.670061" fill="#111217"/>
<circle cx="89.6725" cy="79.8356" r="0.670061" fill="#111217"/>
<circle cx="89.6725" cy="82.5036" r="0.670061" fill="#111217"/>
<circle cx="89.6725" cy="85.1715" r="0.670061" fill="#111217"/>
<circle cx="89.6725" cy="87.8388" r="0.670061" fill="#111217"/>
<circle cx="89.6725" cy="90.5075" r="0.670061" fill="#111217"/>
<circle cx="89.6725" cy="93.1747" r="0.670061" fill="#111217"/>
<circle cx="89.6725" cy="95.8424" r="0.670061" fill="#111217"/>
<circle cx="89.6725" cy="98.5094" r="0.670061" fill="#111217"/>
<circle cx="89.6725" cy="101.178" r="0.670061" fill="#111217"/>
<circle cx="89.6725" cy="103.847" r="0.670061" fill="#111217"/>
<circle cx="89.6725" cy="106.514" r="0.670061" fill="#111217"/>
<circle cx="89.6725" cy="109.183" r="0.670061" fill="#111217"/>
<circle cx="89.6725" cy="111.849" r="0.670061" fill="#111217"/>
<circle cx="89.6725" cy="114.517" r="0.670061" fill="#111217"/>
<circle cx="89.6725" cy="117.186" r="0.670061" fill="#111217"/>
<circle cx="89.6725" cy="119.853" r="0.670061" fill="#111217"/>
<circle cx="89.6725" cy="122.521" r="0.670061" fill="#111217"/>
<circle cx="89.6725" cy="125.189" r="0.670061" fill="#111217"/>
<circle cx="89.6725" cy="127.858" r="0.670061" fill="#111217"/>
<circle cx="89.6725" cy="130.526" r="0.670061" fill="#111217"/>
<circle cx="89.6725" cy="133.193" r="0.670061" fill="#111217"/>
<circle cx="89.6725" cy="135.86" r="0.670061" fill="#111217"/>
<circle cx="89.6725" cy="138.528" r="0.670061" fill="#111217"/>
<circle cx="89.6725" cy="141.196" r="0.670061" fill="#111217"/>
<circle cx="92.342" cy="63.8278" r="0.670061" fill="#111217"/>
<circle cx="92.342" cy="66.4962" r="0.670061" fill="#111217"/>
<circle cx="92.342" cy="69.164" r="0.670061" fill="#111217"/>
<circle cx="92.342" cy="71.8312" r="0.670061" fill="#111217"/>
<circle cx="92.342" cy="74.4989" r="0.670061" fill="#111217"/>
<circle cx="92.342" cy="77.1679" r="0.670061" fill="#111217"/>
<circle cx="92.342" cy="79.8356" r="0.670061" fill="#111217"/>
<circle cx="92.342" cy="82.5036" r="0.670061" fill="#111217"/>
<circle cx="92.342" cy="85.1715" r="0.670061" fill="#111217"/>
<circle cx="92.342" cy="87.8388" r="0.670061" fill="#111217"/>
<circle cx="92.342" cy="90.5075" r="0.670061" fill="#111217"/>
<circle cx="92.342" cy="93.1747" r="0.670061" fill="#111217"/>
<circle cx="92.342" cy="95.8424" r="0.670061" fill="#111217"/>
<circle cx="92.342" cy="98.5094" r="0.670061" fill="#111217"/>
<circle cx="92.342" cy="101.178" r="0.670061" fill="#111217"/>
<circle cx="92.342" cy="103.847" r="0.670061" fill="#111217"/>
<circle cx="92.342" cy="106.514" r="0.670061" fill="#111217"/>
<circle cx="92.342" cy="109.183" r="0.670061" fill="#111217"/>
<circle cx="92.342" cy="111.849" r="0.670061" fill="#111217"/>
<circle cx="92.342" cy="114.517" r="0.670061" fill="#111217"/>
<circle cx="92.342" cy="117.186" r="0.670061" fill="#111217"/>
<circle cx="92.342" cy="119.853" r="0.670061" fill="#111217"/>
<circle cx="92.342" cy="122.521" r="0.670061" fill="#111217"/>
<circle cx="92.342" cy="125.189" r="0.670061" fill="#111217"/>
<circle cx="92.342" cy="127.858" r="0.670061" fill="#111217"/>
<circle cx="92.342" cy="130.526" r="0.670061" fill="#111217"/>
<circle cx="92.342" cy="133.193" r="0.670061" fill="#111217"/>
<circle cx="92.342" cy="135.86" r="0.670061" fill="#111217"/>
<circle cx="92.342" cy="138.528" r="0.670061" fill="#111217"/>
<circle cx="92.342" cy="141.196" r="0.670061" fill="#111217"/>
<circle cx="95.0101" cy="63.8278" r="0.670061" fill="#111217"/>
<circle cx="95.0101" cy="66.4962" r="0.670061" fill="#111217"/>
<circle cx="95.0101" cy="69.164" r="0.670061" fill="#111217"/>
<circle cx="95.0101" cy="71.8312" r="0.670061" fill="#111217"/>
<circle cx="95.0101" cy="74.4989" r="0.670061" fill="#111217"/>
<circle cx="95.0101" cy="77.1679" r="0.670061" fill="#111217"/>
<circle cx="95.0101" cy="79.8356" r="0.670061" fill="#111217"/>
<circle cx="95.0101" cy="82.5036" r="0.670061" fill="#111217"/>
<circle cx="95.0101" cy="85.1715" r="0.670061" fill="#111217"/>
<circle cx="95.0101" cy="87.8388" r="0.670061" fill="#111217"/>
<circle cx="95.0101" cy="90.5075" r="0.670061" fill="#111217"/>
<circle cx="95.0101" cy="93.1747" r="0.670061" fill="#111217"/>
<circle cx="95.0101" cy="95.8424" r="0.670061" fill="#111217"/>
<circle cx="95.0101" cy="98.5094" r="0.670061" fill="#111217"/>
<circle cx="95.0101" cy="101.178" r="0.670061" fill="#111217"/>
<circle cx="95.0101" cy="103.847" r="0.670061" fill="#111217"/>
<circle cx="95.0101" cy="106.514" r="0.670061" fill="#111217"/>
<circle cx="95.0101" cy="109.183" r="0.670061" fill="#111217"/>
<circle cx="95.0101" cy="111.849" r="0.670061" fill="#111217"/>
<circle cx="95.0101" cy="114.517" r="0.670061" fill="#111217"/>
<circle cx="95.0101" cy="117.186" r="0.670061" fill="#111217"/>
<circle cx="95.0101" cy="119.853" r="0.670061" fill="#111217"/>
<circle cx="95.0101" cy="122.521" r="0.670061" fill="#111217"/>
<circle cx="95.0101" cy="125.189" r="0.670061" fill="#111217"/>
<circle cx="95.0101" cy="127.858" r="0.670061" fill="#111217"/>
<circle cx="95.0101" cy="130.526" r="0.670061" fill="#111217"/>
<circle cx="95.0101" cy="133.193" r="0.670061" fill="#111217"/>
<circle cx="95.0101" cy="135.86" r="0.670061" fill="#111217"/>
<circle cx="95.0101" cy="138.528" r="0.670061" fill="#111217"/>
<circle cx="95.0101" cy="141.196" r="0.670061" fill="#111217"/>
<circle cx="97.6776" cy="63.8278" r="0.670061" fill="#111217"/>
<circle cx="97.6776" cy="66.4962" r="0.670061" fill="#111217"/>
<circle cx="97.6776" cy="69.164" r="0.670061" fill="#111217"/>
<circle cx="97.6776" cy="71.8312" r="0.670061" fill="#111217"/>
<circle cx="97.6776" cy="74.4989" r="0.670061" fill="#111217"/>
<circle cx="97.6776" cy="77.1679" r="0.670061" fill="#111217"/>
<circle cx="97.6776" cy="79.8356" r="0.670061" fill="#111217"/>
<circle cx="97.6776" cy="82.5036" r="0.670061" fill="#111217"/>
<circle cx="97.6776" cy="85.1715" r="0.670061" fill="#111217"/>
<circle cx="97.6776" cy="87.8388" r="0.670061" fill="#111217"/>
<circle cx="97.6776" cy="90.5075" r="0.670061" fill="#111217"/>
<circle cx="97.6776" cy="93.1747" r="0.670061" fill="#111217"/>
<circle cx="97.6776" cy="95.8424" r="0.670061" fill="#111217"/>
<circle cx="97.6776" cy="98.5094" r="0.670061" fill="#111217"/>
<circle cx="97.6776" cy="101.178" r="0.670061" fill="#111217"/>
<circle cx="97.6776" cy="103.847" r="0.670061" fill="#111217"/>
<circle cx="97.6776" cy="106.514" r="0.670061" fill="#111217"/>
<circle cx="97.6776" cy="109.183" r="0.670061" fill="#111217"/>
<circle cx="97.6776" cy="111.849" r="0.670061" fill="#111217"/>
<circle cx="97.6776" cy="114.517" r="0.670061" fill="#111217"/>
<circle cx="97.6776" cy="117.186" r="0.670061" fill="#111217"/>
<circle cx="97.6776" cy="119.853" r="0.670061" fill="#111217"/>
<circle cx="97.6776" cy="122.521" r="0.670061" fill="#111217"/>
<circle cx="97.6776" cy="125.189" r="0.670061" fill="#111217"/>
<circle cx="97.6776" cy="127.858" r="0.670061" fill="#111217"/>
<circle cx="97.6776" cy="130.526" r="0.670061" fill="#111217"/>
<circle cx="97.6776" cy="133.193" r="0.670061" fill="#111217"/>
<circle cx="97.6776" cy="135.86" r="0.670061" fill="#111217"/>
<circle cx="97.6776" cy="138.528" r="0.670061" fill="#111217"/>
<circle cx="97.6776" cy="141.196" r="0.670061" fill="#111217"/>
<circle cx="100.346" cy="63.8278" r="0.670061" fill="#111217"/>
<circle cx="100.346" cy="66.4962" r="0.670061" fill="#111217"/>
<circle cx="100.346" cy="69.164" r="0.670061" fill="#111217"/>
<circle cx="100.346" cy="71.8312" r="0.670061" fill="#111217"/>
<circle cx="100.346" cy="74.4989" r="0.670061" fill="#111217"/>
<circle cx="100.346" cy="77.1679" r="0.670061" fill="#111217"/>
<circle cx="100.346" cy="79.8356" r="0.670061" fill="#111217"/>
<circle cx="100.346" cy="82.5036" r="0.670061" fill="#111217"/>
<circle cx="100.346" cy="85.1715" r="0.670061" fill="#111217"/>
<circle cx="100.346" cy="87.8388" r="0.670061" fill="#111217"/>
<circle cx="100.346" cy="90.5075" r="0.670061" fill="#111217"/>
<circle cx="100.346" cy="93.1747" r="0.670061" fill="#111217"/>
<circle cx="100.346" cy="95.8424" r="0.670061" fill="#111217"/>
<circle cx="100.346" cy="98.5094" r="0.670061" fill="#111217"/>
<circle cx="100.346" cy="101.178" r="0.670061" fill="#111217"/>
<circle cx="100.346" cy="103.847" r="0.670061" fill="#111217"/>
<circle cx="100.346" cy="106.514" r="0.670061" fill="#111217"/>
<circle cx="100.346" cy="109.183" r="0.670061" fill="#111217"/>
<circle cx="100.346" cy="111.849" r="0.670061" fill="#111217"/>
<circle cx="100.346" cy="114.517" r="0.670061" fill="#111217"/>
<circle cx="100.346" cy="117.186" r="0.670061" fill="#111217"/>
<circle cx="100.346" cy="119.853" r="0.670061" fill="#111217"/>
<circle cx="100.346" cy="122.521" r="0.670061" fill="#111217"/>
<circle cx="100.346" cy="125.189" r="0.670061" fill="#111217"/>
<circle cx="100.346" cy="127.858" r="0.670061" fill="#111217"/>
<circle cx="100.346" cy="130.526" r="0.670061" fill="#111217"/>
<circle cx="100.346" cy="133.193" r="0.670061" fill="#111217"/>
<circle cx="100.346" cy="135.86" r="0.670061" fill="#111217"/>
<circle cx="100.346" cy="138.528" r="0.670061" fill="#111217"/>
<circle cx="100.346" cy="141.196" r="0.670061" fill="#111217"/>
<circle cx="103.013" cy="63.8278" r="0.670061" fill="#111217"/>
<circle cx="103.013" cy="66.4962" r="0.670061" fill="#111217"/>
<circle cx="103.013" cy="69.164" r="0.670061" fill="#111217"/>
<circle cx="103.013" cy="71.8312" r="0.670061" fill="#111217"/>
<circle cx="103.013" cy="74.4989" r="0.670061" fill="#111217"/>
<circle cx="103.013" cy="77.1679" r="0.670061" fill="#111217"/>
<circle cx="103.013" cy="79.8356" r="0.670061" fill="#111217"/>
<circle cx="103.013" cy="82.5036" r="0.670061" fill="#111217"/>
<circle cx="103.013" cy="85.1715" r="0.670061" fill="#111217"/>
<circle cx="103.013" cy="87.8388" r="0.670061" fill="#111217"/>
<circle cx="103.013" cy="90.5075" r="0.670061" fill="#111217"/>
<circle cx="103.013" cy="93.1747" r="0.670061" fill="#111217"/>
<circle cx="103.013" cy="95.8424" r="0.670061" fill="#111217"/>
<circle cx="103.013" cy="98.5094" r="0.670061" fill="#111217"/>
<circle cx="103.013" cy="101.178" r="0.670061" fill="#111217"/>
<circle cx="103.013" cy="103.847" r="0.670061" fill="#111217"/>
<circle cx="103.013" cy="106.514" r="0.670061" fill="#111217"/>
<circle cx="103.013" cy="109.183" r="0.670061" fill="#111217"/>
<circle cx="103.013" cy="111.849" r="0.670061" fill="#111217"/>
<circle cx="103.013" cy="114.517" r="0.670061" fill="#111217"/>
<circle cx="103.013" cy="117.186" r="0.670061" fill="#111217"/>
<circle cx="103.013" cy="119.853" r="0.670061" fill="#111217"/>
<circle cx="103.013" cy="122.521" r="0.670061" fill="#111217"/>
<circle cx="103.013" cy="125.189" r="0.670061" fill="#111217"/>
<circle cx="103.013" cy="127.858" r="0.670061" fill="#111217"/>
<circle cx="103.013" cy="130.526" r="0.670061" fill="#111217"/>
<circle cx="103.013" cy="133.193" r="0.670061" fill="#111217"/>
<circle cx="103.013" cy="135.86" r="0.670061" fill="#111217"/>
<circle cx="103.013" cy="138.528" r="0.670061" fill="#111217"/>
<circle cx="103.013" cy="141.196" r="0.670061" fill="#111217"/>
<circle cx="105.68" cy="63.8278" r="0.670061" fill="#111217"/>
<circle cx="105.68" cy="66.4962" r="0.670061" fill="#111217"/>
<circle cx="105.68" cy="69.164" r="0.670061" fill="#111217"/>
<circle cx="105.68" cy="71.8312" r="0.670061" fill="#111217"/>
<circle cx="105.68" cy="74.4989" r="0.670061" fill="#111217"/>
<circle cx="105.68" cy="77.1679" r="0.670061" fill="#111217"/>
<circle cx="105.68" cy="79.8356" r="0.670061" fill="#111217"/>
<circle cx="105.68" cy="82.5036" r="0.670061" fill="#111217"/>
<circle cx="105.68" cy="85.1715" r="0.670061" fill="#111217"/>
<circle cx="105.68" cy="87.8388" r="0.670061" fill="#111217"/>
<circle cx="105.68" cy="90.5075" r="0.670061" fill="#111217"/>
<circle cx="105.68" cy="93.1747" r="0.670061" fill="#111217"/>
<circle cx="105.68" cy="95.8424" r="0.670061" fill="#111217"/>
<circle cx="105.68" cy="98.5094" r="0.670061" fill="#111217"/>
<circle cx="105.68" cy="101.178" r="0.670061" fill="#111217"/>
<circle cx="105.68" cy="103.847" r="0.670061" fill="#111217"/>
<circle cx="105.68" cy="106.514" r="0.670061" fill="#111217"/>
<circle cx="105.68" cy="109.183" r="0.670061" fill="#111217"/>
<circle cx="105.68" cy="111.849" r="0.670061" fill="#111217"/>
<circle cx="105.68" cy="114.517" r="0.670061" fill="#111217"/>
<circle cx="105.68" cy="117.186" r="0.670061" fill="#111217"/>
<circle cx="105.68" cy="119.853" r="0.670061" fill="#111217"/>
<circle cx="105.68" cy="122.521" r="0.670061" fill="#111217"/>
<circle cx="105.68" cy="125.189" r="0.670061" fill="#111217"/>
<circle cx="105.68" cy="127.858" r="0.670061" fill="#111217"/>
<circle cx="105.68" cy="130.526" r="0.670061" fill="#111217"/>
<circle cx="105.68" cy="133.193" r="0.670061" fill="#111217"/>
<circle cx="105.68" cy="135.86" r="0.670061" fill="#111217"/>
<circle cx="105.68" cy="138.528" r="0.670061" fill="#111217"/>
<circle cx="105.68" cy="141.196" r="0.670061" fill="#111217"/>
<circle cx="108.349" cy="63.8278" r="0.670061" fill="#111217"/>
<circle cx="108.349" cy="66.4962" r="0.670061" fill="#111217"/>
<circle cx="108.349" cy="69.164" r="0.670061" fill="#111217"/>
<circle cx="108.349" cy="71.8312" r="0.670061" fill="#111217"/>
<circle cx="108.349" cy="74.4989" r="0.670061" fill="#111217"/>
<circle cx="108.349" cy="77.1679" r="0.670061" fill="#111217"/>
<circle cx="108.349" cy="79.8356" r="0.670061" fill="#111217"/>
<circle cx="108.349" cy="82.5036" r="0.670061" fill="#111217"/>
<circle cx="108.349" cy="85.1715" r="0.670061" fill="#111217"/>
<circle cx="108.349" cy="87.8388" r="0.670061" fill="#111217"/>
<circle cx="108.349" cy="90.5075" r="0.670061" fill="#111217"/>
<circle cx="108.349" cy="93.1747" r="0.670061" fill="#111217"/>
<circle cx="108.349" cy="95.8424" r="0.670061" fill="#111217"/>
<circle cx="108.349" cy="98.5094" r="0.670061" fill="#111217"/>
<circle cx="108.349" cy="101.178" r="0.670061" fill="#111217"/>
<circle cx="108.349" cy="103.847" r="0.670061" fill="#111217"/>
<circle cx="108.349" cy="106.514" r="0.670061" fill="#111217"/>
<circle cx="108.349" cy="109.183" r="0.670061" fill="#111217"/>
<circle cx="108.349" cy="111.849" r="0.670061" fill="#111217"/>
<circle cx="108.349" cy="114.517" r="0.670061" fill="#111217"/>
<circle cx="108.349" cy="117.186" r="0.670061" fill="#111217"/>
<circle cx="108.349" cy="119.853" r="0.670061" fill="#111217"/>
<circle cx="108.349" cy="122.521" r="0.670061" fill="#111217"/>
<circle cx="108.349" cy="125.189" r="0.670061" fill="#111217"/>
<circle cx="108.349" cy="127.858" r="0.670061" fill="#111217"/>
<circle cx="108.349" cy="130.526" r="0.670061" fill="#111217"/>
<circle cx="108.349" cy="133.193" r="0.670061" fill="#111217"/>
<circle cx="108.349" cy="135.86" r="0.670061" fill="#111217"/>
<circle cx="108.349" cy="138.528" r="0.670061" fill="#111217"/>
<circle cx="108.349" cy="141.196" r="0.670061" fill="#111217"/>
<circle cx="111.018" cy="63.8278" r="0.670061" fill="#111217"/>
<circle cx="111.018" cy="66.4962" r="0.670061" fill="#111217"/>
<circle cx="111.018" cy="69.164" r="0.670061" fill="#111217"/>
<circle cx="111.018" cy="71.8312" r="0.670061" fill="#111217"/>
<circle cx="111.018" cy="74.4989" r="0.670061" fill="#111217"/>
<circle cx="111.018" cy="77.1679" r="0.670061" fill="#111217"/>
<circle cx="111.018" cy="79.8356" r="0.670061" fill="#111217"/>
<circle cx="111.018" cy="82.5036" r="0.670061" fill="#111217"/>
<circle cx="111.018" cy="85.1715" r="0.670061" fill="#111217"/>
<circle cx="111.018" cy="87.8388" r="0.670061" fill="#111217"/>
<circle cx="111.018" cy="90.5075" r="0.670061" fill="#111217"/>
<circle cx="111.018" cy="93.1747" r="0.670061" fill="#111217"/>
<circle cx="111.018" cy="95.8424" r="0.670061" fill="#111217"/>
<circle cx="111.018" cy="98.5094" r="0.670061" fill="#111217"/>
<circle cx="111.018" cy="101.178" r="0.670061" fill="#111217"/>
<circle cx="111.018" cy="103.847" r="0.670061" fill="#111217"/>
<circle cx="111.018" cy="106.514" r="0.670061" fill="#111217"/>
<circle cx="111.018" cy="109.183" r="0.670061" fill="#111217"/>
<circle cx="111.018" cy="111.849" r="0.670061" fill="#111217"/>
<circle cx="111.018" cy="114.517" r="0.670061" fill="#111217"/>
<circle cx="111.018" cy="117.186" r="0.670061" fill="#111217"/>
<circle cx="111.018" cy="119.853" r="0.670061" fill="#111217"/>
<circle cx="111.018" cy="122.521" r="0.670061" fill="#111217"/>
<circle cx="111.018" cy="125.189" r="0.670061" fill="#111217"/>
<circle cx="111.018" cy="127.858" r="0.670061" fill="#111217"/>
<circle cx="111.018" cy="130.526" r="0.670061" fill="#111217"/>
<circle cx="111.018" cy="133.193" r="0.670061" fill="#111217"/>
<circle cx="111.018" cy="135.86" r="0.670061" fill="#111217"/>
<circle cx="111.018" cy="138.528" r="0.670061" fill="#111217"/>
<circle cx="111.018" cy="141.196" r="0.670061" fill="#111217"/>
<circle cx="113.685" cy="63.8278" r="0.670061" fill="#111217"/>
<circle cx="113.685" cy="66.4962" r="0.670061" fill="#111217"/>
<circle cx="113.685" cy="69.164" r="0.670061" fill="#111217"/>
<circle cx="113.685" cy="71.8312" r="0.670061" fill="#111217"/>
<circle cx="113.685" cy="74.4989" r="0.670061" fill="#111217"/>
<circle cx="113.685" cy="77.1679" r="0.670061" fill="#111217"/>
<circle cx="113.685" cy="79.8356" r="0.670061" fill="#111217"/>
<circle cx="113.685" cy="82.5036" r="0.670061" fill="#111217"/>
<circle cx="113.685" cy="85.1715" r="0.670061" fill="#111217"/>
<circle cx="113.685" cy="87.8388" r="0.670061" fill="#111217"/>
<circle cx="113.685" cy="90.5075" r="0.670061" fill="#111217"/>
<circle cx="113.685" cy="93.1747" r="0.670061" fill="#111217"/>
<circle cx="113.685" cy="95.8424" r="0.670061" fill="#111217"/>
<circle cx="113.685" cy="98.5094" r="0.670061" fill="#111217"/>
<circle cx="113.685" cy="101.178" r="0.670061" fill="#111217"/>
<circle cx="113.685" cy="103.847" r="0.670061" fill="#111217"/>
<circle cx="113.685" cy="106.514" r="0.670061" fill="#111217"/>
<circle cx="113.685" cy="109.183" r="0.670061" fill="#111217"/>
<circle cx="113.685" cy="111.849" r="0.670061" fill="#111217"/>
<circle cx="113.685" cy="114.517" r="0.670061" fill="#111217"/>
<circle cx="113.685" cy="117.186" r="0.670061" fill="#111217"/>
<circle cx="113.685" cy="119.853" r="0.670061" fill="#111217"/>
<circle cx="113.685" cy="122.521" r="0.670061" fill="#111217"/>
<circle cx="113.685" cy="125.189" r="0.670061" fill="#111217"/>
<circle cx="113.685" cy="127.858" r="0.670061" fill="#111217"/>
<circle cx="113.685" cy="130.526" r="0.670061" fill="#111217"/>
<circle cx="113.685" cy="133.193" r="0.670061" fill="#111217"/>
<circle cx="113.685" cy="135.86" r="0.670061" fill="#111217"/>
<circle cx="113.685" cy="138.528" r="0.670061" fill="#111217"/>
<circle cx="113.685" cy="141.196" r="0.670061" fill="#111217"/>
<circle cx="116.354" cy="63.8278" r="0.670061" fill="#111217"/>
<circle cx="116.354" cy="66.4962" r="0.670061" fill="#111217"/>
<circle cx="116.354" cy="69.164" r="0.670061" fill="#111217"/>
<circle cx="116.354" cy="71.8312" r="0.670061" fill="#111217"/>
<circle cx="116.354" cy="74.4989" r="0.670061" fill="#111217"/>
<circle cx="116.354" cy="77.1679" r="0.670061" fill="#111217"/>
<circle cx="116.354" cy="79.8356" r="0.670061" fill="#111217"/>
<circle cx="116.354" cy="82.5036" r="0.670061" fill="#111217"/>
<circle cx="116.354" cy="85.1715" r="0.670061" fill="#111217"/>
<circle cx="116.354" cy="87.8388" r="0.670061" fill="#111217"/>
<circle cx="116.354" cy="90.5075" r="0.670061" fill="#111217"/>
<circle cx="116.354" cy="93.1747" r="0.670061" fill="#111217"/>
<circle cx="116.354" cy="95.8424" r="0.670061" fill="#111217"/>
<circle cx="116.354" cy="98.5094" r="0.670061" fill="#111217"/>
<circle cx="116.354" cy="101.178" r="0.670061" fill="#111217"/>
<circle cx="116.354" cy="103.847" r="0.670061" fill="#111217"/>
<circle cx="116.354" cy="106.514" r="0.670061" fill="#111217"/>
<circle cx="116.354" cy="109.183" r="0.670061" fill="#111217"/>
<circle cx="116.354" cy="111.849" r="0.670061" fill="#111217"/>
<circle cx="116.354" cy="114.517" r="0.670061" fill="#111217"/>
<circle cx="116.354" cy="117.186" r="0.670061" fill="#111217"/>
<circle cx="116.354" cy="119.853" r="0.670061" fill="#111217"/>
<circle cx="116.354" cy="122.521" r="0.670061" fill="#111217"/>
<circle cx="116.354" cy="125.189" r="0.670061" fill="#111217"/>
<circle cx="116.354" cy="127.858" r="0.670061" fill="#111217"/>
<circle cx="116.354" cy="130.526" r="0.670061" fill="#111217"/>
<circle cx="116.354" cy="133.193" r="0.670061" fill="#111217"/>
<circle cx="116.354" cy="135.86" r="0.670061" fill="#111217"/>
<circle cx="116.354" cy="138.528" r="0.670061" fill="#111217"/>
<circle cx="116.354" cy="141.196" r="0.670061" fill="#111217"/>
<circle cx="119.02" cy="63.8278" r="0.670061" fill="#111217"/>
<circle cx="119.02" cy="66.4962" r="0.670061" fill="#111217"/>
<circle cx="119.02" cy="69.164" r="0.670061" fill="#111217"/>
<circle cx="119.02" cy="71.8312" r="0.670061" fill="#111217"/>
<circle cx="119.02" cy="74.4989" r="0.670061" fill="#111217"/>
<circle cx="119.02" cy="77.1679" r="0.670061" fill="#111217"/>
<circle cx="119.02" cy="79.8356" r="0.670061" fill="#111217"/>
<circle cx="119.02" cy="82.5036" r="0.670061" fill="#111217"/>
<circle cx="119.02" cy="85.1715" r="0.670061" fill="#111217"/>
<circle cx="119.02" cy="87.8388" r="0.670061" fill="#111217"/>
<circle cx="119.02" cy="90.5075" r="0.670061" fill="#111217"/>
<circle cx="119.02" cy="93.1747" r="0.670061" fill="#111217"/>
<circle cx="119.02" cy="95.8424" r="0.670061" fill="#111217"/>
<circle cx="119.02" cy="98.5094" r="0.670061" fill="#111217"/>
<circle cx="119.02" cy="101.178" r="0.670061" fill="#111217"/>
<circle cx="119.02" cy="103.847" r="0.670061" fill="#111217"/>
<circle cx="119.02" cy="106.514" r="0.670061" fill="#111217"/>
<circle cx="119.02" cy="109.183" r="0.670061" fill="#111217"/>
<circle cx="119.02" cy="111.849" r="0.670061" fill="#111217"/>
<circle cx="119.02" cy="114.517" r="0.670061" fill="#111217"/>
<circle cx="119.02" cy="117.186" r="0.670061" fill="#111217"/>
<circle cx="119.02" cy="119.853" r="0.670061" fill="#111217"/>
<circle cx="119.02" cy="122.521" r="0.670061" fill="#111217"/>
<circle cx="119.02" cy="125.189" r="0.670061" fill="#111217"/>
<circle cx="119.02" cy="127.858" r="0.670061" fill="#111217"/>
<circle cx="119.02" cy="130.526" r="0.670061" fill="#111217"/>
<circle cx="119.02" cy="133.193" r="0.670061" fill="#111217"/>
<circle cx="119.02" cy="135.86" r="0.670061" fill="#111217"/>
<circle cx="119.02" cy="138.528" r="0.670061" fill="#111217"/>
<circle cx="119.02" cy="141.196" r="0.670061" fill="#111217"/>
</g>
<path d="M54.7694 80.4994L74.1115 62.7136H104.125C106.09 62.7136 107.682 64.3062 107.682 66.2708V137.859C107.682 139.823 106.09 141.416 104.125 141.416H40.5407C38.5762 141.416 36.9836 139.823 36.9836 137.859V96.9513L54.7694 80.4994Z" fill="#10B981"/>
<circle cx="73.8886" cy="96.5071" r="7.11432" fill="#111217"/>
<rect x="70.7742" y="100.509" width="7.11432" height="17.7858" fill="#111217"/>
<path d="M55.6588 78.2762L64.9964 68.9387L71.2214 62.7136H74.3339V96.9513H36.9837L55.6588 78.2762Z" fill="#111217"/>
<rect x="54.3231" y="87.614" width="3.11914" height="3.11914" fill="white"/>
<rect x="66.327" y="84.5024" width="3.11914" height="3.11914" fill="#7FF4CD"/>
<rect x="46.319" y="65.8271" width="3.11914" height="3.11914" fill="#111217"/>
<rect x="58.7672" y="65.8271" width="3.11914" height="3.11914" fill="#111217"/>
<rect x="33.8689" y="90.7263" width="3.11914" height="3.11914" fill="#7FF4CD"/>
<rect x="27.6445" y="99.6184" width="3.11914" height="3.11914" fill="#7FF4CD"/>
<rect x="74.3311" y="59.6011" width="3.11914" height="3.11914" fill="#7FF4CD"/>
<rect x="40.0942" y="72.051" width="3.11914" height="3.11914" fill="#111217"/>
<rect x="55.6557" y="62.7136" width="3.11914" height="3.11914" fill="#111217"/>
<rect x="36.9837" y="87.614" width="3.11914" height="3.11914" fill="#111217"/>
<rect x="33.8689" y="84.5024" width="3.11914" height="3.11914" fill="#111217"/>
<rect x="30.757" y="81.3889" width="3.11914" height="3.11914" fill="#7FF4CD"/>
<rect x="36.9837" y="68.9387" width="3.11914" height="3.11914" fill="#111217"/>
<rect x="61.881" y="56.4885" width="3.11914" height="3.11914" fill="#111217"/>
<rect x="58.7672" y="59.6011" width="3.11914" height="3.11914" fill="#7FF4CD"/>
<rect x="40.0942" y="65.8271" width="3.11914" height="3.11914" fill="#7FF4CD"/>
<rect x="36.9837" y="75.1643" width="3.11914" height="3.11914" fill="#7FF4CD"/>
<rect x="66.327" y="75.6082" width="3.11914" height="3.11914" fill="white"/>
<rect x="57.436" y="90.7263" width="3.11914" height="3.11914" fill="#7FF4CD"/>
<rect x="54.3231" y="93.8391" width="3.11914" height="3.11914" fill="white"/>
<rect x="69.4408" y="72.4966" width="3.11914" height="3.11914" fill="white"/>
<rect x="60.1017" y="81.3889" width="6.22658" height="6.22658" fill="white"/>
<rect x="49.4329" y="68.9387" width="6.22658" height="6.22658" fill="#7FF4CD"/>
<rect x="40.0942" y="78.2769" width="6.22658" height="6.22658" fill="#111217"/>
<rect x="24.5292" y="84.5024" width="6.22658" height="6.22658" fill="#111217"/>
<rect x="36.9837" y="93.8391" width="3.11914" height="3.11914" fill="#111217"/>
<rect x="33.8689" y="93.8391" width="3.11914" height="3.11914" fill="#111217"/>
<rect x="30.757" y="96.5076" width="3.11914" height="3.11914" fill="#111217"/>
<rect x="55.6557" y="75.1643" width="3.11914" height="3.11914" fill="#111217"/>
<rect x="40.0942" y="90.7263" width="3.11914" height="3.11914" fill="#111217"/>
<rect x="58.7672" y="72.051" width="3.11914" height="3.11914" fill="#111217"/>
<rect x="43.2075" y="87.614" width="3.11914" height="3.11914" fill="#111217"/>
<rect x="61.881" y="68.9387" width="3.11914" height="3.11914" fill="#111217"/>
<rect x="46.319" y="84.5024" width="3.11914" height="3.11914" fill="#111217"/>
<rect x="64.9924" y="65.8271" width="3.11914" height="3.11914" fill="#111217"/>
<rect x="49.4329" y="81.3889" width="3.11914" height="3.11914" fill="#111217"/>
<rect x="68.1044" y="62.7136" width="3.11914" height="3.11914" fill="#111217"/>
<rect x="77.4431" y="56.4885" width="3.11914" height="3.11914" fill="#111217"/>
<rect x="52.5433" y="78.2769" width="3.11914" height="3.11914" fill="#111217"/>
<rect x="49.4329" y="84.5024" width="3.11914" height="3.11914" fill="white"/>
<rect x="68.1044" y="65.8271" width="3.11914" height="3.11914" fill="white"/>
<rect x="58.7672" y="75.1643" width="3.11914" height="3.11914" fill="#7FF4CD"/>
<rect x="43.2075" y="90.7263" width="3.11914" height="3.11914" fill="white"/>
<path d="M66.7725 96.9508C66.7725 95.9581 66.968 94.9752 67.3479 94.0581C67.7278 93.141 68.2846 92.3077 68.9865 91.6058C69.6884 90.9039 70.5217 90.3471 71.4388 89.9672C72.3559 89.5873 73.3388 89.3918 74.3315 89.3918L74.3315 96.9508L66.7725 96.9508Z" fill="white"/>
<defs>
<linearGradient id="paint0_linear_1_16832" x1="74.9314" y1="102.065" x2="118.795" y2="102.065" gradientUnits="userSpaceOnUse">
<stop stop-color="#8000FF"/>
<stop offset="1" stop-color="#FF53F8"/>
</linearGradient>
</defs>
</svg>
