<svg width="96" height="65" viewBox="0 0 96 65" fill="none" xmlns="http://www.w3.org/2000/svg">
<path d="M36.1828 10.136C35.5223 10.136 34.9996 10.6523 34.9996 11.2977C34.9995 11.452 35.0303 11.6049 35.09 11.7472C35.1497 11.8896 35.2372 12.0186 35.3474 12.1268C35.4576 12.235 35.5882 12.3201 35.7316 12.3772C35.875 12.4343 36.0284 12.4622 36.1828 12.4593C36.8497 12.4593 37.3767 11.943 37.3767 11.2977C37.3767 10.6523 36.8497 10.136 36.1828 10.136ZM44.3683 10.1575C40.7542 10.1575 38.4954 12.6207 38.4954 16.536C38.4954 20.4835 40.7542 22.936 44.3683 22.936C47.9609 22.936 50.2305 20.4835 50.2305 16.536C50.2305 12.6207 47.9609 10.1575 44.3683 10.1575ZM56.0281 10.1575C53.3391 10.1575 51.4244 11.6419 51.4244 13.8469C51.4244 15.6002 52.5108 16.6973 54.7912 17.2244L56.3939 17.6116C57.9535 17.9666 58.5881 18.4829 58.5881 19.3756C58.5881 20.4083 57.5448 21.1397 56.0604 21.1397C54.5438 21.1397 53.4036 20.3975 53.2853 19.2573H51.134C51.2201 21.5377 53.0917 22.936 55.9313 22.936C58.9323 22.936 60.8147 21.4624 60.8147 19.1175C60.8147 17.2782 59.7391 16.2348 57.2436 15.6647L55.813 15.342C54.2964 14.9763 53.6725 14.4923 53.6725 13.6748C53.6725 12.6422 54.6191 11.9538 56.0174 11.9538C57.4265 11.9538 58.3945 12.653 58.5021 13.8039H60.6103C60.5565 11.6311 58.7602 10.1575 56.0281 10.1575ZM44.3683 12.0399C46.5626 12.0399 47.9717 13.7931 47.9717 16.536C47.9717 19.3004 46.5626 21.0536 44.3683 21.0536C42.1525 21.0536 40.7542 19.3004 40.7542 16.536C40.7542 13.7931 42.1525 12.0399 44.3683 12.0399ZM35.119 13.6425V22.7316H37.2584V13.6425H35.1179H35.119Z" fill="#111217"/>
<path d="M18.7273 58.5359V49.8086H20.0682V58.5359H18.7273ZM19.4091 48.3541C19.1477 48.3541 18.9223 48.2651 18.733 48.087C18.5473 47.909 18.4545 47.695 18.4545 47.445C18.4545 47.195 18.5473 46.981 18.733 46.8029C18.9223 46.6249 19.1477 46.5359 19.4091 46.5359C19.6705 46.5359 19.8939 46.6249 20.0795 46.8029C20.2689 46.981 20.3636 47.195 20.3636 47.445C20.3636 47.695 20.2689 47.909 20.0795 48.087C19.8939 48.2651 19.6705 48.3541 19.4091 48.3541ZM32.5241 52.7177C32.5241 53.945 32.3026 55.0056 31.8594 55.8995C31.4162 56.7935 30.8082 57.4829 30.0355 57.9677C29.2628 58.4526 28.3802 58.695 27.3878 58.695C26.3954 58.695 25.5128 58.4526 24.7401 57.9677C23.9673 57.4829 23.3594 56.7935 22.9162 55.8995C22.473 55.0056 22.2514 53.945 22.2514 52.7177C22.2514 51.4904 22.473 50.4298 22.9162 49.5359C23.3594 48.6419 23.9673 47.9526 24.7401 47.4677C25.5128 46.9829 26.3954 46.7404 27.3878 46.7404C28.3802 46.7404 29.2628 46.9829 30.0355 47.4677C30.8082 47.9526 31.4162 48.6419 31.8594 49.5359C32.3026 50.4298 32.5241 51.4904 32.5241 52.7177ZM31.1605 52.7177C31.1605 51.7101 30.992 50.8598 30.6548 50.1666C30.3215 49.4734 29.8688 48.9488 29.2969 48.5927C28.7287 48.2366 28.0923 48.0586 27.3878 48.0586C26.6832 48.0586 26.045 48.2366 25.473 48.5927C24.9048 48.9488 24.4522 49.4734 24.1151 50.1666C23.7817 50.8598 23.6151 51.7101 23.6151 52.7177C23.6151 53.7253 23.7817 54.5757 24.1151 55.2688C24.4522 55.962 24.9048 56.4866 25.473 56.8427C26.045 57.1988 26.6832 57.3768 27.3878 57.3768C28.0923 57.3768 28.7287 57.1988 29.2969 56.8427C29.8688 56.4866 30.3215 55.962 30.6548 55.2688C30.992 54.5757 31.1605 53.7253 31.1605 52.7177ZM41.2571 49.8086C41.1889 49.2329 40.9124 48.7859 40.4276 48.4677C39.9427 48.1495 39.348 47.9904 38.6435 47.9904C38.1283 47.9904 37.6776 48.0738 37.2912 48.2404C36.9086 48.4071 36.6094 48.6363 36.3935 48.9279C36.1813 49.2196 36.0753 49.551 36.0753 49.9223C36.0753 50.2329 36.1491 50.4999 36.2969 50.7234C36.4484 50.9431 36.6416 51.1268 36.8764 51.2745C37.1113 51.4185 37.3575 51.5378 37.6151 51.6325C37.8726 51.7234 38.1094 51.7973 38.3253 51.8541L39.5071 52.1723C39.8101 52.2518 40.1473 52.3616 40.5185 52.5018C40.8935 52.6419 41.2514 52.8332 41.5923 53.0757C41.937 53.3143 42.2211 53.6211 42.4446 53.9961C42.6681 54.3711 42.7798 54.8313 42.7798 55.3768C42.7798 56.0056 42.6151 56.5738 42.2855 57.0813C41.9598 57.5889 41.4825 57.9923 40.8537 58.2916C40.2287 58.5908 39.4692 58.7404 38.5753 58.7404C37.742 58.7404 37.0204 58.606 36.4105 58.337C35.8045 58.0681 35.3272 57.6931 34.9787 57.212C34.634 56.731 34.4389 56.1723 34.3935 55.5359H35.848C35.8859 55.9753 36.0336 56.3389 36.2912 56.6268C36.5526 56.9109 36.8821 57.123 37.2798 57.2632C37.6813 57.3995 38.1132 57.4677 38.5753 57.4677C39.1132 57.4677 39.5961 57.3806 40.0241 57.2063C40.4522 57.0283 40.7912 56.7821 41.0412 56.4677C41.2912 56.1495 41.4162 55.7783 41.4162 55.3541C41.4162 54.9677 41.3082 54.6533 41.0923 54.4109C40.8764 54.1685 40.5923 53.9715 40.2401 53.82C39.8878 53.6685 39.5071 53.5359 39.098 53.4223L37.6662 53.0132C36.7571 52.7518 36.0374 52.3787 35.5071 51.8938C34.9768 51.409 34.7116 50.7745 34.7116 49.9904C34.7116 49.3389 34.8878 48.7707 35.2401 48.2859C35.5961 47.7973 36.0734 47.4185 36.6719 47.1495C37.2741 46.8768 37.9465 46.7404 38.6889 46.7404C39.4389 46.7404 40.1056 46.8749 40.6889 47.1438C41.2723 47.409 41.7344 47.7726 42.0753 48.2348C42.42 48.6969 42.6018 49.2215 42.6207 49.8086H41.2571ZM50.0739 58.5359H48.5966L52.8693 46.8995H54.3239L58.5966 58.5359H57.1193L53.642 48.7404H53.5511L50.0739 58.5359ZM50.6193 53.9904H56.5739V55.2404H50.6193V53.9904ZM60.2273 61.8086V49.8086H61.5227V51.195H61.6818C61.7803 51.0435 61.9167 50.8503 62.0909 50.6154C62.2689 50.3768 62.5227 50.1647 62.8523 49.9791C63.1856 49.7897 63.6364 49.695 64.2045 49.695C64.9394 49.695 65.5871 49.8787 66.1477 50.2461C66.7083 50.6135 67.1458 51.1344 67.4602 51.8086C67.7746 52.4829 67.9318 53.2783 67.9318 54.195C67.9318 55.1192 67.7746 55.9204 67.4602 56.5984C67.1458 57.2726 66.7102 57.7954 66.1534 58.1666C65.5966 58.534 64.9545 58.7177 64.2273 58.7177C63.6667 58.7177 63.2178 58.6249 62.8807 58.4393C62.5436 58.2499 62.2841 58.0359 62.1023 57.7973C61.9205 57.5548 61.7803 57.3541 61.6818 57.195H61.5682V61.8086H60.2273ZM61.5455 54.1723C61.5455 54.8313 61.642 55.4128 61.8352 55.9166C62.0284 56.4166 62.3106 56.8086 62.6818 57.0927C63.053 57.373 63.5076 57.5132 64.0455 57.5132C64.6061 57.5132 65.0739 57.3654 65.4489 57.07C65.8277 56.7707 66.1117 56.3692 66.3011 55.8654C66.4943 55.3579 66.5909 54.7935 66.5909 54.1723C66.5909 53.5586 66.4962 53.0056 66.3068 52.5132C66.1212 52.0169 65.839 51.6249 65.4602 51.337C65.0852 51.0454 64.6136 50.8995 64.0455 50.8995C63.5 50.8995 63.0417 51.0378 62.6705 51.3143C62.2992 51.587 62.0189 51.9696 61.8295 52.462C61.6402 52.9507 61.5455 53.5207 61.5455 54.1723ZM69.9773 61.8086V49.8086H71.2727V51.195H71.4318C71.5303 51.0435 71.6667 50.8503 71.8409 50.6154C72.0189 50.3768 72.2727 50.1647 72.6023 49.9791C72.9356 49.7897 73.3864 49.695 73.9545 49.695C74.6894 49.695 75.3371 49.8787 75.8977 50.2461C76.4583 50.6135 76.8958 51.1344 77.2102 51.8086C77.5246 52.4829 77.6818 53.2783 77.6818 54.195C77.6818 55.1192 77.5246 55.9204 77.2102 56.5984C76.8958 57.2726 76.4602 57.7954 75.9034 58.1666C75.3466 58.534 74.7045 58.7177 73.9773 58.7177C73.4167 58.7177 72.9678 58.6249 72.6307 58.4393C72.2936 58.2499 72.0341 58.0359 71.8523 57.7973C71.6705 57.5548 71.5303 57.3541 71.4318 57.195H71.3182V61.8086H69.9773ZM71.2955 54.1723C71.2955 54.8313 71.392 55.4128 71.5852 55.9166C71.7784 56.4166 72.0606 56.8086 72.4318 57.0927C72.803 57.373 73.2576 57.5132 73.7955 57.5132C74.3561 57.5132 74.8239 57.3654 75.1989 57.07C75.5777 56.7707 75.8617 56.3692 76.0511 55.8654C76.2443 55.3579 76.3409 54.7935 76.3409 54.1723C76.3409 53.5586 76.2462 53.0056 76.0568 52.5132C75.8712 52.0169 75.589 51.6249 75.2102 51.337C74.8352 51.0454 74.3636 50.8995 73.7955 50.8995C73.25 50.8995 72.7917 51.0378 72.4205 51.3143C72.0492 51.587 71.7689 51.9696 71.5795 52.462C71.3902 52.9507 71.2955 53.5207 71.2955 54.1723Z" fill="#111217"/>
</svg>
