<svg width="96" height="65" viewBox="0 0 96 65" fill="none" xmlns="http://www.w3.org/2000/svg">
<path d="M48.5804 3.99512C48.4171 3.99512 48.2486 4.00354 48.0759 4.01724C43.6239 4.36796 44.8045 9.08011 44.7371 10.6505C44.656 11.8017 44.4212 12.7085 43.6302 13.8323C42.6981 14.9392 41.39 16.7287 40.7696 18.5939C40.4768 19.4702 40.3378 20.3676 40.4673 21.2154C40.4189 21.2542 40.3791 21.3026 40.3504 21.3576C40.0766 21.6399 39.8775 21.9906 39.6532 22.2413C39.4436 22.4509 39.1424 22.5225 38.8138 22.6626C38.4841 22.8058 38.1207 22.9459 37.9038 23.3798C37.809 23.5778 37.7605 23.7937 37.7648 24.0128C37.7648 24.2224 37.7932 24.4352 37.8227 24.5774C37.8838 24.9976 37.9449 25.3452 37.8638 25.599C37.6026 26.3152 37.5699 26.806 37.7532 27.163C37.9364 27.5148 38.3166 27.657 38.7421 27.796C39.5963 28.0067 40.7538 27.9382 41.6649 28.4269C42.6402 28.9188 43.6302 29.1336 44.4201 28.9219C44.9741 28.8008 45.4417 28.4343 45.6924 27.9266C46.3107 27.9235 46.9879 27.6433 48.0727 27.5748C48.8089 27.5138 49.7305 27.8561 50.7879 27.7844C50.8143 27.9266 50.8543 27.994 50.908 28.1362L50.9112 28.1394C51.323 28.9588 52.0834 29.3316 52.8955 29.2674C53.7075 29.2042 54.5722 28.7029 55.2726 27.8919C55.9372 27.0861 57.0452 26.7502 57.7772 26.3089C58.1437 26.0993 58.4397 25.8149 58.4607 25.4105C58.485 24.9892 58.2511 24.5552 57.7087 23.9602V23.858L57.7056 23.8548C57.5265 23.6442 57.4423 23.2914 57.3496 22.8795C57.2601 22.4572 57.1579 22.0517 56.8314 21.7779H56.8282C56.7661 21.721 56.6987 21.7073 56.6302 21.6357C56.5713 21.5946 56.5019 21.5712 56.4301 21.5683C56.884 20.2222 56.7082 18.8825 56.2479 17.6776C55.6865 16.1926 54.7049 14.8992 53.9571 14.0092C53.1187 12.9507 52.2972 11.9481 52.313 10.4609C52.3415 8.19435 52.5626 4.00144 48.5804 3.99512V3.99512ZM49.1375 7.58137H49.1512C49.3756 7.58137 49.5683 7.64667 49.7663 7.78991C49.9675 7.93209 50.1139 8.13958 50.2287 8.35128C50.3393 8.62407 50.3951 8.83471 50.4035 9.11382C50.4035 9.09275 50.4098 9.07169 50.4098 9.05168V9.16121C50.4075 9.15405 50.4061 9.14662 50.4056 9.1391L50.4014 9.11382C50.3993 9.36978 50.3456 9.62269 50.2434 9.8574C50.1942 9.98945 50.1178 10.1097 50.0191 10.2102C49.9892 10.1934 49.9583 10.1786 49.9264 10.166C49.8158 10.1186 49.7168 10.0986 49.6262 10.0259C49.5515 9.99607 49.4743 9.97282 49.3956 9.9564C49.4472 9.89426 49.5483 9.81632 49.5873 9.74786C49.6431 9.61305 49.6736 9.46981 49.6799 9.32446V9.30445C49.6823 9.16141 49.6606 9.01899 49.6157 8.88316C49.5683 8.74097 49.5093 8.67146 49.423 8.53138C49.3345 8.46187 49.2471 8.39236 49.1417 8.39236H49.1249C49.0269 8.39236 48.9395 8.42395 48.849 8.53138C48.7489 8.62893 48.6747 8.74981 48.633 8.88316C48.5771 9.01698 48.545 9.15957 48.5382 9.30445V9.32446C48.5404 9.4182 48.5467 9.51299 48.5593 9.60568C48.356 9.53511 48.098 9.46349 47.92 9.39292C47.9094 9.32351 47.9031 9.25352 47.901 9.18333V9.16227C47.8926 8.88388 47.9466 8.60714 48.059 8.35233C48.1454 8.12168 48.3034 7.92472 48.5119 7.79096C48.6921 7.65488 48.9117 7.58129 49.1375 7.58137ZM46.0179 7.64351H46.0558C46.2053 7.64351 46.3402 7.69406 46.476 7.78569C46.6298 7.92156 46.7541 8.08903 46.8383 8.27545C46.9331 8.48504 46.9868 8.69779 46.9995 8.97795V8.98216C47.0069 9.1233 47.0058 9.19386 46.9974 9.26232V9.34658C46.9658 9.35396 46.9384 9.36554 46.91 9.37186C46.7499 9.42979 46.6214 9.51405 46.496 9.58251C46.5087 9.48877 46.5097 9.39398 46.4992 9.30129V9.2855C46.4866 9.14542 46.4581 9.0759 46.4128 8.93477C46.38 8.82743 46.3197 8.7305 46.238 8.65356C46.212 8.62995 46.1816 8.61182 46.1485 8.60024C46.1154 8.58866 46.0803 8.58387 46.0452 8.58615H46.0231C45.9484 8.59247 45.8862 8.62933 45.8272 8.72518C45.76 8.80672 45.7164 8.90503 45.7008 9.00955C45.6722 9.12341 45.664 9.24144 45.6766 9.35817V9.37291C45.6893 9.5151 45.7156 9.58461 45.7619 9.72469C45.8093 9.86583 45.8641 9.93534 45.9357 10.007C45.9473 10.0164 45.9578 10.0259 45.9715 10.0322C45.8978 10.0923 45.8483 10.106 45.7862 10.1755C45.7467 10.2103 45.6993 10.2349 45.6482 10.2471C45.5387 10.1153 45.4417 9.97351 45.3585 9.8237C45.259 9.60237 45.2035 9.36375 45.1953 9.12119C45.1779 8.88344 45.2065 8.64455 45.2796 8.41763C45.3376 8.21069 45.4392 8.01856 45.5776 7.85415C45.7124 7.71408 45.8515 7.64351 46.0179 7.64351ZM47.4618 9.44032C47.8105 9.44032 48.2328 9.50878 48.7415 9.86056C49.0501 10.0712 49.2924 10.1439 49.8506 10.3535H49.8537C50.1223 10.4967 50.2803 10.6336 50.3572 10.7737V10.6357C50.395 10.7123 50.416 10.7961 50.4189 10.8814C50.4218 10.9668 50.4065 11.0518 50.374 11.1308C50.2445 11.4583 49.8306 11.809 49.2534 12.0186V12.0207C48.9711 12.1629 48.7257 12.3715 48.4371 12.5105C48.1464 12.6527 47.8178 12.818 47.3713 12.7917C47.2108 12.8 47.0504 12.776 46.8994 12.7211C46.7828 12.6577 46.6696 12.5881 46.5603 12.5126C46.3549 12.3704 46.178 12.1629 45.9157 12.0228V12.0176H45.9104C45.4891 11.7585 45.2616 11.4783 45.1879 11.2687C45.1152 10.9865 45.1827 10.7748 45.3912 10.6368C45.6271 10.4946 45.7914 10.3514 45.8999 10.2829C46.0094 10.205 46.0505 10.1755 46.0853 10.1449H46.0874V10.1418C46.2654 9.92902 46.5466 9.64781 46.971 9.50878C47.1174 9.47086 47.2807 9.44032 47.4618 9.44032ZM50.4098 11.6974C50.7879 13.1898 51.6706 15.3574 52.2382 16.4085C52.5395 16.9709 53.1388 18.1558 53.3989 19.5935C53.5632 19.5882 53.7454 19.6124 53.9392 19.6609C54.6196 17.9009 53.3642 16.0093 52.7922 15.4838C52.5595 15.2721 52.5479 15.1309 52.6627 15.1309C53.2831 15.6934 54.1004 16.7866 54.3963 18.0347C54.5322 18.5982 54.5638 19.1974 54.4184 19.7936C54.489 19.8231 54.5606 19.8578 54.6343 19.8641C55.7213 20.4266 56.1226 20.8521 55.9298 21.483V21.4377C55.8656 21.4345 55.8034 21.4377 55.7392 21.4377H55.7234C55.8824 20.9458 55.5317 20.5688 54.6017 20.1485C53.638 19.7272 52.8681 19.7946 52.7364 20.6383C52.7291 20.6836 52.7238 20.7078 52.7185 20.7805C52.6469 20.8047 52.5721 20.8363 52.4984 20.8479C52.0455 21.1301 51.8012 21.5525 51.6632 22.098C51.5263 22.6594 51.4841 23.3156 51.4473 24.0665V24.0697C51.4252 24.4215 51.2672 24.9523 51.1113 25.4926C49.5314 26.6217 47.3407 27.1125 45.4776 25.8444C45.3607 25.6401 45.2184 25.4515 45.0542 25.283C44.9757 25.1519 44.8781 25.0334 44.7645 24.9312C44.9562 24.9312 45.1205 24.9007 45.2543 24.8607C45.4057 24.7904 45.5242 24.6644 45.585 24.5089C45.6987 24.2277 45.585 23.7748 45.2216 23.284C44.8583 22.7921 44.2411 22.236 43.3384 21.682C42.6749 21.2618 42.3 20.7657 42.1272 20.2117C41.9534 19.6493 41.9766 19.069 42.1114 18.4791C42.3695 17.3522 43.0309 16.2568 43.4532 15.5691C43.5659 15.5006 43.4922 15.7113 43.0235 16.5949C42.6065 17.3859 41.8218 19.2248 42.895 20.6541C42.9356 19.6113 43.1665 18.5847 43.5765 17.625C44.1705 16.2789 45.4123 13.9345 45.5102 12.0766C45.5608 12.1145 45.7388 12.2187 45.8146 12.2893C46.0442 12.4294 46.2148 12.64 46.436 12.7791C46.6582 12.9908 46.9384 13.1319 47.3586 13.1319C47.3997 13.1351 47.4376 13.1382 47.4755 13.1382C47.9084 13.1382 48.2433 12.9971 48.5246 12.8559C48.83 12.7148 49.0733 12.5042 49.3039 12.4347H49.3092C49.8011 12.2925 50.1897 12.0113 50.4098 11.6974ZM52.7122 21.1322C52.7512 21.7652 53.0735 22.4435 53.6412 22.5825C54.2605 22.7237 55.1515 22.2318 55.5275 21.7768L55.7497 21.7673C56.0815 21.7589 56.3574 21.7779 56.6418 22.0485L56.645 22.0517C56.864 22.2613 56.9662 22.611 57.0568 22.9743C57.1463 23.3967 57.219 23.7959 57.4875 24.0971C57.9994 24.6521 58.1669 25.0513 58.1574 25.2978L58.1606 25.2914V25.3104L58.1574 25.2978C58.1416 25.5737 57.9626 25.7148 57.6329 25.9244C56.9694 26.3468 55.794 26.6743 55.0451 27.578C54.3942 28.3542 53.6011 28.7776 52.9007 28.8324C52.2014 28.8882 51.5979 28.6218 51.2429 27.8866L51.2377 27.8834C51.0165 27.4611 51.1113 26.8039 51.2967 26.1035C51.482 25.3999 51.7474 24.6869 51.7843 24.1045C51.8233 23.3524 51.8644 22.6984 51.9897 22.1939C52.1161 21.7041 52.3141 21.3545 52.6648 21.1575L52.7122 21.1343V21.1322ZM41.3215 21.1838H41.332C41.3879 21.1838 41.4426 21.1891 41.4974 21.1986C41.8934 21.2565 42.241 21.5493 42.5749 21.9906L43.5333 23.7432L43.5365 23.7464C43.7924 24.3077 44.3306 24.867 44.7887 25.4715C45.2458 26.1014 45.5997 26.6628 45.5566 27.1251V27.1314C45.4965 27.915 45.0521 28.3405 44.3717 28.4943C43.6923 28.6365 42.7708 28.4964 41.8492 28.0056C40.8297 27.4411 39.6184 27.5117 38.8401 27.3716C38.4515 27.3021 38.1966 27.1599 38.0786 26.9492C37.9617 26.7396 37.9596 26.3162 38.2082 25.6538V25.6506L38.2103 25.6474C38.3335 25.2957 38.2419 24.8544 38.1818 24.4689C38.1239 24.0465 38.0944 23.7221 38.2271 23.4788C38.3956 23.1271 38.6442 23.0586 38.9528 22.9175C39.2635 22.7753 39.6279 22.7047 39.9176 22.4235H39.9197V22.4203C40.1893 22.1381 40.3883 21.7873 40.6232 21.5377C40.8233 21.326 41.0234 21.1838 41.3215 21.1838ZM48.8616 11.6268C48.4034 11.8385 47.8663 12.1903 47.2944 12.1903C46.7235 12.1903 46.2727 11.9091 45.9473 11.6995C45.784 11.5584 45.6524 11.4172 45.5534 11.3467C45.3807 11.2055 45.4017 10.9949 45.4755 10.9949C45.5903 11.0117 45.6113 11.1371 45.685 11.2066C45.7862 11.2761 45.9115 11.4162 46.0653 11.5573C46.3718 11.768 46.7815 12.0492 47.2933 12.0492C47.8041 12.0492 48.4024 11.768 48.7657 11.5584C48.9711 11.4162 49.2344 11.2066 49.4482 11.0665C49.6125 10.9222 49.6052 10.7842 49.7421 10.7842C49.878 10.8011 49.7779 10.9254 49.5873 11.135C49.3536 11.3116 49.1111 11.4762 48.8605 11.6279V11.6268H48.8616ZM47.722 9.95851V9.93534C47.7157 9.91533 47.7357 9.8911 47.7525 9.88268C47.8305 9.83739 47.9421 9.85424 48.0264 9.88689C48.0927 9.88689 48.1949 9.95746 48.1844 10.0291C48.178 10.0807 48.0948 10.0986 48.0422 10.0986C47.9842 10.0986 47.9453 10.0533 47.8937 10.027C47.8389 10.008 47.7399 10.0185 47.722 9.95851ZM47.1417 9.95851C47.1206 10.0196 47.0226 10.0101 46.9668 10.028C46.9173 10.0544 46.8762 10.0996 46.8204 10.0996C46.7667 10.0996 46.6825 10.0796 46.6761 10.028C46.6667 9.95851 46.7688 9.88794 46.8341 9.88794C46.9194 9.85529 47.0279 9.83844 47.1069 9.88268C47.1269 9.89216 47.1448 9.91427 47.1385 9.93534V9.95746H47.1417V9.95851Z" fill="#111217"/>
<path d="M28.9091 58.5359V46.8995H30.3182V57.2859H35.7273V58.5359H28.9091ZM37.7273 58.5359V49.8086H39.0682V58.5359H37.7273ZM38.4091 48.3541C38.1477 48.3541 37.9223 48.2651 37.733 48.087C37.5473 47.909 37.4545 47.695 37.4545 47.445C37.4545 47.195 37.5473 46.981 37.733 46.8029C37.9223 46.6249 38.1477 46.5359 38.4091 46.5359C38.6705 46.5359 38.8939 46.6249 39.0795 46.8029C39.2689 46.981 39.3636 47.195 39.3636 47.445C39.3636 47.695 39.2689 47.909 39.0795 48.087C38.8939 48.2651 38.6705 48.3541 38.4091 48.3541ZM42.8651 53.2859V58.5359H41.5241V49.8086H42.8196V51.1723H42.9332C43.1378 50.7291 43.4484 50.373 43.8651 50.1041C44.2817 49.8313 44.8196 49.695 45.4787 49.695C46.0696 49.695 46.5866 49.8162 47.0298 50.0586C47.473 50.2973 47.8177 50.6609 48.0639 51.1495C48.3101 51.6344 48.4332 52.248 48.4332 52.9904V58.5359H47.0923V53.0813C47.0923 52.3957 46.9143 51.8616 46.5582 51.4791C46.2022 51.0927 45.7135 50.8995 45.0923 50.8995C44.6643 50.8995 44.2817 50.9923 43.9446 51.1779C43.6113 51.3635 43.348 51.6344 43.1548 51.9904C42.9616 52.3465 42.8651 52.7783 42.8651 53.2859ZM56.3835 54.9677V49.8086H57.7244V58.5359H56.3835V57.0586H56.2926C56.0881 57.5018 55.7699 57.8787 55.3381 58.1893C54.9063 58.4961 54.3608 58.6495 53.7017 58.6495C53.1562 58.6495 52.6714 58.5302 52.2472 58.2916C51.8229 58.0491 51.4896 57.6855 51.2472 57.2007C51.0047 56.712 50.8835 56.0965 50.8835 55.3541V49.8086H52.2244V55.2632C52.2244 55.8995 52.4025 56.4071 52.7585 56.7859C53.1184 57.1647 53.5767 57.3541 54.1335 57.3541C54.4669 57.3541 54.8059 57.2688 55.1506 57.0984C55.4991 56.9279 55.7907 56.6666 56.0256 56.3143C56.2642 55.962 56.3835 55.5132 56.3835 54.9677ZM61.1804 49.8086L63.2713 53.3768L65.3622 49.8086H66.9077L64.0895 54.1723L66.9077 58.5359H65.3622L63.2713 55.1495L61.1804 58.5359H59.6349L62.4077 54.1723L59.6349 49.8086H61.1804Z" fill="#111217"/>
</svg>
