<svg width="162" height="161" viewBox="0 0 162 161" fill="none" xmlns="http://www.w3.org/2000/svg">
<rect x="0.963867" y="0.463623" width="160.072" height="160.072" rx="5.33574" fill="#FAFAFB"/>
<path d="M30.3104 36.0349H96.1758L109.457 48.485V116.071H43.6498V48.485L30.3104 36.0349Z" fill="#DFDFDF"/>
<path d="M30.5318 36.0349C23.2875 36.0349 17.4148 41.609 17.4148 48.485H43.6489C43.6489 41.609 37.7762 36.0349 30.5318 36.0349Z" fill="#111217"/>
<path d="M96.3418 36.0349C89.0974 36.0349 83.2247 41.609 83.2247 48.485H109.459C109.459 41.609 103.586 36.0349 96.3418 36.0349Z" fill="#DFDFDF"/>
<mask id="mask0_1_19150" style="mask-type:alpha" maskUnits="userSpaceOnUse" x="51" y="48" width="53" height="5">
<rect x="51.2094" y="48.4841" width="52.0235" height="4.44645" fill="black"/>
</mask>
<g mask="url(#mask0_1_19150)">
<circle cx="83.8944" cy="49.5993" r="0.670061" fill="#111217"/>
<circle cx="81.2265" cy="49.5993" r="0.670061" fill="#111217"/>
<circle cx="78.5579" cy="49.5993" r="0.670061" fill="#111217"/>
<circle cx="75.8878" cy="49.5993" r="0.670061" fill="#111217"/>
<circle cx="73.2227" cy="49.5993" r="0.670061" fill="#111217"/>
<circle cx="70.5542" cy="49.5993" r="0.670061" fill="#111217"/>
<circle cx="67.8876" cy="49.5993" r="0.670061" fill="#111217"/>
<circle cx="65.2195" cy="49.5993" r="0.670061" fill="#111217"/>
<circle cx="62.5491" cy="49.5993" r="0.670061" fill="#111217"/>
<circle cx="59.8825" cy="49.5993" r="0.670061" fill="#111217"/>
<circle cx="57.2154" cy="49.5993" r="0.670061" fill="#111217"/>
<circle cx="54.5468" cy="49.5993" r="0.670061" fill="#111217"/>
<circle cx="51.8793" cy="49.5993" r="0.670061" fill="#111217"/>
<circle cx="83.8944" cy="52.2677" r="0.670061" fill="#111217"/>
<circle cx="81.2265" cy="52.2677" r="0.670061" fill="#111217"/>
<circle cx="78.5579" cy="52.2677" r="0.670061" fill="#111217"/>
<circle cx="75.8878" cy="52.2677" r="0.670061" fill="#111217"/>
<circle cx="73.2227" cy="52.2677" r="0.670061" fill="#111217"/>
<circle cx="70.5542" cy="52.2677" r="0.670061" fill="#111217"/>
<circle cx="67.8876" cy="52.2677" r="0.670061" fill="#111217"/>
<circle cx="65.2195" cy="52.2677" r="0.670061" fill="#111217"/>
<circle cx="62.5491" cy="52.2677" r="0.670061" fill="#111217"/>
<circle cx="59.8825" cy="52.2677" r="0.670061" fill="#111217"/>
<circle cx="57.2154" cy="52.2677" r="0.670061" fill="#111217"/>
<circle cx="54.5468" cy="52.2677" r="0.670061" fill="#111217"/>
<circle cx="51.8793" cy="52.2677" r="0.670061" fill="#111217"/>
<circle cx="86.5615" cy="49.5993" r="0.670061" fill="#111217"/>
<circle cx="86.5615" cy="52.2677" r="0.670061" fill="#111217"/>
<circle cx="89.2296" cy="49.5993" r="0.670061" fill="#111217"/>
<circle cx="89.2296" cy="52.2677" r="0.670061" fill="#111217"/>
<circle cx="91.8952" cy="49.5993" r="0.670061" fill="#111217"/>
<circle cx="91.8952" cy="52.2677" r="0.670061" fill="#111217"/>
<circle cx="94.5647" cy="49.5993" r="0.670061" fill="#111217"/>
<circle cx="94.5647" cy="52.2677" r="0.670061" fill="#111217"/>
<circle cx="97.2328" cy="49.5993" r="0.670061" fill="#111217"/>
<circle cx="97.2328" cy="52.2677" r="0.670061" fill="#111217"/>
<circle cx="99.8993" cy="49.5993" r="0.670061" fill="#111217"/>
<circle cx="99.8993" cy="52.2677" r="0.670061" fill="#111217"/>
<circle cx="102.569" cy="49.5993" r="0.670061" fill="#111217"/>
<circle cx="102.569" cy="52.2677" r="0.670061" fill="#111217"/>
</g>
<mask id="mask1_1_19150" style="mask-type:alpha" maskUnits="userSpaceOnUse" x="51" y="62" width="53" height="6">
<rect x="51.2092" y="62.7136" width="52.0235" height="4.44645" fill="black"/>
</mask>
<g mask="url(#mask1_1_19150)">
<circle cx="83.8943" cy="63.828" r="0.670061" fill="#111217"/>
<circle cx="81.2262" cy="63.828" r="0.670061" fill="#111217"/>
<circle cx="78.5578" cy="63.828" r="0.670061" fill="#111217"/>
<circle cx="75.8877" cy="63.828" r="0.670061" fill="#111217"/>
<circle cx="73.2225" cy="63.828" r="0.670061" fill="#111217"/>
<circle cx="70.5541" cy="63.828" r="0.670061" fill="#111217"/>
<circle cx="67.8875" cy="63.828" r="0.670061" fill="#111217"/>
<circle cx="65.2194" cy="63.828" r="0.670061" fill="#111217"/>
<circle cx="62.549" cy="63.828" r="0.670061" fill="#111217"/>
<circle cx="59.8823" cy="63.828" r="0.670061" fill="#111217"/>
<circle cx="57.2152" cy="63.828" r="0.670061" fill="#111217"/>
<circle cx="54.5466" cy="63.828" r="0.670061" fill="#111217"/>
<circle cx="51.8792" cy="63.828" r="0.670061" fill="#111217"/>
<circle cx="83.8943" cy="66.4972" r="0.670061" fill="#111217"/>
<circle cx="81.2262" cy="66.4972" r="0.670061" fill="#111217"/>
<circle cx="78.5578" cy="66.4972" r="0.670061" fill="#111217"/>
<circle cx="75.8877" cy="66.4972" r="0.670061" fill="#111217"/>
<circle cx="73.2225" cy="66.4972" r="0.670061" fill="#111217"/>
<circle cx="70.5541" cy="66.4972" r="0.670061" fill="#111217"/>
<circle cx="67.8875" cy="66.4972" r="0.670061" fill="#111217"/>
<circle cx="65.2194" cy="66.4972" r="0.670061" fill="#111217"/>
<circle cx="62.549" cy="66.4972" r="0.670061" fill="#111217"/>
<circle cx="59.8823" cy="66.4972" r="0.670061" fill="#111217"/>
<circle cx="57.2152" cy="66.4972" r="0.670061" fill="#111217"/>
<circle cx="54.5466" cy="66.4972" r="0.670061" fill="#111217"/>
<circle cx="51.8792" cy="66.4972" r="0.670061" fill="#111217"/>
<circle cx="86.5614" cy="63.828" r="0.670061" fill="#111217"/>
<circle cx="86.5614" cy="66.4972" r="0.670061" fill="#111217"/>
<circle cx="89.2295" cy="63.828" r="0.670061" fill="#111217"/>
<circle cx="89.2295" cy="66.4972" r="0.670061" fill="#111217"/>
<circle cx="91.895" cy="63.828" r="0.670061" fill="#111217"/>
<circle cx="91.895" cy="66.4972" r="0.670061" fill="#111217"/>
<circle cx="94.5646" cy="63.828" r="0.670061" fill="#111217"/>
<circle cx="94.5646" cy="66.4972" r="0.670061" fill="#111217"/>
<circle cx="97.2327" cy="63.828" r="0.670061" fill="#111217"/>
<circle cx="97.2327" cy="66.4972" r="0.670061" fill="#111217"/>
<circle cx="99.8993" cy="63.828" r="0.670061" fill="#111217"/>
<circle cx="99.8993" cy="66.4972" r="0.670061" fill="#111217"/>
<circle cx="102.569" cy="63.828" r="0.670061" fill="#111217"/>
<circle cx="102.569" cy="66.4972" r="0.670061" fill="#111217"/>
</g>
<mask id="mask2_1_19150" style="mask-type:alpha" maskUnits="userSpaceOnUse" x="51" y="76" width="53" height="6">
<rect x="51.2092" y="76.9417" width="52.0235" height="4.44645" fill="black"/>
</mask>
<g mask="url(#mask2_1_19150)">
<circle cx="83.8943" cy="78.0575" r="0.670061" fill="#111217"/>
<circle cx="81.2262" cy="78.0575" r="0.670061" fill="#111217"/>
<circle cx="78.5578" cy="78.0575" r="0.670061" fill="#111217"/>
<circle cx="75.8877" cy="78.0575" r="0.670061" fill="#111217"/>
<circle cx="73.2225" cy="78.0575" r="0.670061" fill="#111217"/>
<circle cx="70.5541" cy="78.0575" r="0.670061" fill="#111217"/>
<circle cx="67.8875" cy="78.0575" r="0.670061" fill="#111217"/>
<circle cx="65.2194" cy="78.0575" r="0.670061" fill="#111217"/>
<circle cx="62.549" cy="78.0575" r="0.670061" fill="#111217"/>
<circle cx="59.8823" cy="78.0575" r="0.670061" fill="#111217"/>
<circle cx="57.2152" cy="78.0575" r="0.670061" fill="#111217"/>
<circle cx="54.5466" cy="78.0575" r="0.670061" fill="#111217"/>
<circle cx="51.8792" cy="78.0575" r="0.670061" fill="#111217"/>
<circle cx="83.8943" cy="80.7247" r="0.670061" fill="#111217"/>
<circle cx="81.2262" cy="80.7247" r="0.670061" fill="#111217"/>
<circle cx="78.5578" cy="80.7247" r="0.670061" fill="#111217"/>
<circle cx="75.8877" cy="80.7247" r="0.670061" fill="#111217"/>
<circle cx="73.2225" cy="80.7247" r="0.670061" fill="#111217"/>
<circle cx="70.5541" cy="80.7247" r="0.670061" fill="#111217"/>
<circle cx="67.8875" cy="80.7247" r="0.670061" fill="#111217"/>
<circle cx="65.2194" cy="80.7247" r="0.670061" fill="#111217"/>
<circle cx="62.549" cy="80.7247" r="0.670061" fill="#111217"/>
<circle cx="59.8823" cy="80.7247" r="0.670061" fill="#111217"/>
<circle cx="57.2152" cy="80.7247" r="0.670061" fill="#111217"/>
<circle cx="54.5466" cy="80.7247" r="0.670061" fill="#111217"/>
<circle cx="51.8792" cy="80.7247" r="0.670061" fill="#111217"/>
<circle cx="86.5614" cy="78.0575" r="0.670061" fill="#111217"/>
<circle cx="86.5614" cy="80.7247" r="0.670061" fill="#111217"/>
<circle cx="89.2295" cy="78.0575" r="0.670061" fill="#111217"/>
<circle cx="89.2295" cy="80.7247" r="0.670061" fill="#111217"/>
<circle cx="91.895" cy="78.0575" r="0.670061" fill="#111217"/>
<circle cx="91.895" cy="80.7247" r="0.670061" fill="#111217"/>
<circle cx="94.5646" cy="78.0575" r="0.670061" fill="#111217"/>
<circle cx="94.5646" cy="80.7247" r="0.670061" fill="#111217"/>
<circle cx="97.2327" cy="78.0575" r="0.670061" fill="#111217"/>
<circle cx="97.2327" cy="80.7247" r="0.670061" fill="#111217"/>
<circle cx="99.8993" cy="78.0575" r="0.670061" fill="#111217"/>
<circle cx="99.8993" cy="80.7247" r="0.670061" fill="#111217"/>
<circle cx="102.569" cy="78.0575" r="0.670061" fill="#111217"/>
<circle cx="102.569" cy="80.7247" r="0.670061" fill="#111217"/>
</g>
<mask id="mask3_1_19150" style="mask-type:alpha" maskUnits="userSpaceOnUse" x="51" y="55" width="53" height="6">
<rect x="51.2092" y="55.5996" width="52.0235" height="4.44645" fill="black"/>
</mask>
<g mask="url(#mask3_1_19150)">
<circle cx="83.8943" cy="56.714" r="0.670061" fill="#111217"/>
<circle cx="81.2262" cy="56.714" r="0.670061" fill="#111217"/>
<circle cx="78.5578" cy="56.714" r="0.670061" fill="#111217"/>
<circle cx="75.8877" cy="56.714" r="0.670061" fill="#111217"/>
<circle cx="73.2225" cy="56.714" r="0.670061" fill="#111217"/>
<circle cx="70.5541" cy="56.714" r="0.670061" fill="#111217"/>
<circle cx="67.8875" cy="56.714" r="0.670061" fill="#111217"/>
<circle cx="65.2194" cy="56.714" r="0.670061" fill="#111217"/>
<circle cx="62.549" cy="56.714" r="0.670061" fill="#111217"/>
<circle cx="59.8823" cy="56.714" r="0.670061" fill="#111217"/>
<circle cx="57.2152" cy="56.714" r="0.670061" fill="#111217"/>
<circle cx="54.5466" cy="56.714" r="0.670061" fill="#111217"/>
<circle cx="51.8792" cy="56.714" r="0.670061" fill="#111217"/>
<circle cx="83.8943" cy="59.382" r="0.670061" fill="#111217"/>
<circle cx="81.2262" cy="59.382" r="0.670061" fill="#111217"/>
<circle cx="78.5578" cy="59.382" r="0.670061" fill="#111217"/>
<circle cx="75.8877" cy="59.382" r="0.670061" fill="#111217"/>
<circle cx="73.2225" cy="59.382" r="0.670061" fill="#111217"/>
<circle cx="70.5541" cy="59.382" r="0.670061" fill="#111217"/>
<circle cx="67.8875" cy="59.382" r="0.670061" fill="#111217"/>
<circle cx="65.2194" cy="59.382" r="0.670061" fill="#111217"/>
<circle cx="62.549" cy="59.382" r="0.670061" fill="#111217"/>
<circle cx="59.8823" cy="59.382" r="0.670061" fill="#111217"/>
<circle cx="57.2152" cy="59.382" r="0.670061" fill="#111217"/>
<circle cx="54.5466" cy="59.382" r="0.670061" fill="#111217"/>
<circle cx="51.8792" cy="59.382" r="0.670061" fill="#111217"/>
<circle cx="86.5614" cy="56.714" r="0.670061" fill="#111217"/>
<circle cx="86.5614" cy="59.382" r="0.670061" fill="#111217"/>
<circle cx="89.2295" cy="56.714" r="0.670061" fill="#111217"/>
<circle cx="89.2295" cy="59.382" r="0.670061" fill="#111217"/>
<circle cx="91.895" cy="56.714" r="0.670061" fill="#111217"/>
<circle cx="91.895" cy="59.382" r="0.670061" fill="#111217"/>
<circle cx="94.5646" cy="56.714" r="0.670061" fill="#111217"/>
<circle cx="94.5646" cy="59.382" r="0.670061" fill="#111217"/>
<circle cx="97.2327" cy="56.714" r="0.670061" fill="#111217"/>
<circle cx="97.2327" cy="59.382" r="0.670061" fill="#111217"/>
<circle cx="99.8993" cy="56.714" r="0.670061" fill="#111217"/>
<circle cx="99.8993" cy="59.382" r="0.670061" fill="#111217"/>
<circle cx="102.569" cy="56.714" r="0.670061" fill="#111217"/>
<circle cx="102.569" cy="59.382" r="0.670061" fill="#111217"/>
</g>
<mask id="mask4_1_19150" style="mask-type:alpha" maskUnits="userSpaceOnUse" x="51" y="69" width="53" height="6">
<rect x="51.2092" y="69.8276" width="52.0235" height="4.44645" fill="black"/>
</mask>
<g mask="url(#mask4_1_19150)">
<circle cx="83.8943" cy="70.9423" r="0.670061" fill="#111217"/>
<circle cx="81.2262" cy="70.9423" r="0.670061" fill="#111217"/>
<circle cx="78.5578" cy="70.9423" r="0.670061" fill="#111217"/>
<circle cx="75.8877" cy="70.9423" r="0.670061" fill="#111217"/>
<circle cx="73.2225" cy="70.9423" r="0.670061" fill="#111217"/>
<circle cx="70.5541" cy="70.9423" r="0.670061" fill="#111217"/>
<circle cx="67.8875" cy="70.9423" r="0.670061" fill="#111217"/>
<circle cx="65.2194" cy="70.9423" r="0.670061" fill="#111217"/>
<circle cx="62.549" cy="70.9423" r="0.670061" fill="#111217"/>
<circle cx="59.8823" cy="70.9423" r="0.670061" fill="#111217"/>
<circle cx="57.2152" cy="70.9423" r="0.670061" fill="#111217"/>
<circle cx="54.5466" cy="70.9423" r="0.670061" fill="#111217"/>
<circle cx="51.8792" cy="70.9423" r="0.670061" fill="#111217"/>
<circle cx="83.8943" cy="73.6105" r="0.670061" fill="#111217"/>
<circle cx="81.2262" cy="73.6105" r="0.670061" fill="#111217"/>
<circle cx="78.5578" cy="73.6105" r="0.670061" fill="#111217"/>
<circle cx="75.8877" cy="73.6105" r="0.670061" fill="#111217"/>
<circle cx="73.2225" cy="73.6105" r="0.670061" fill="#111217"/>
<circle cx="70.5541" cy="73.6105" r="0.670061" fill="#111217"/>
<circle cx="67.8875" cy="73.6105" r="0.670061" fill="#111217"/>
<circle cx="65.2194" cy="73.6105" r="0.670061" fill="#111217"/>
<circle cx="62.549" cy="73.6105" r="0.670061" fill="#111217"/>
<circle cx="59.8823" cy="73.6105" r="0.670061" fill="#111217"/>
<circle cx="57.2152" cy="73.6105" r="0.670061" fill="#111217"/>
<circle cx="54.5466" cy="73.6105" r="0.670061" fill="#111217"/>
<circle cx="51.8792" cy="73.6105" r="0.670061" fill="#111217"/>
<circle cx="86.5614" cy="70.9423" r="0.670061" fill="#111217"/>
<circle cx="86.5614" cy="73.6105" r="0.670061" fill="#111217"/>
<circle cx="89.2295" cy="70.9423" r="0.670061" fill="#111217"/>
<circle cx="89.2295" cy="73.6105" r="0.670061" fill="#111217"/>
<circle cx="91.895" cy="70.9423" r="0.670061" fill="#111217"/>
<circle cx="91.895" cy="73.6105" r="0.670061" fill="#111217"/>
<circle cx="94.5646" cy="70.9423" r="0.670061" fill="#111217"/>
<circle cx="94.5646" cy="73.6105" r="0.670061" fill="#111217"/>
<circle cx="97.2327" cy="70.9423" r="0.670061" fill="#111217"/>
<circle cx="97.2327" cy="73.6105" r="0.670061" fill="#111217"/>
<circle cx="99.8993" cy="70.9423" r="0.670061" fill="#111217"/>
<circle cx="99.8993" cy="73.6105" r="0.670061" fill="#111217"/>
<circle cx="102.569" cy="70.9423" r="0.670061" fill="#111217"/>
<circle cx="102.569" cy="73.6105" r="0.670061" fill="#111217"/>
</g>
<path fill-rule="evenodd" clip-rule="evenodd" d="M90.4256 95.183C90.4256 94.933 90.6283 94.7303 90.8784 94.7303C91.1284 94.7303 91.3311 94.933 91.3311 95.183C91.3311 95.433 91.1284 95.6357 90.8784 95.6357C90.6283 95.6357 90.4256 95.433 90.4256 95.183ZM89.6482 95.7249L79.6676 95.7249L79.6676 118.738H102.682V110.418C102.682 110.397 102.683 110.376 102.686 110.356C102.215 110.147 101.887 109.675 101.887 109.127C101.887 108.384 102.488 107.783 103.23 107.783C103.973 107.783 104.574 108.384 104.574 109.127C104.574 109.751 104.148 110.276 103.571 110.427V119.628H79.258C79.2464 119.629 79.2347 119.629 79.2229 119.629C79.2111 119.629 79.1994 119.629 79.1878 119.628H78.7778V111.895C78.7778 111.889 78.778 111.882 78.7783 111.875L78.7783 94.8356L89.5798 94.8356C89.7329 94.2618 90.2563 93.8391 90.8784 93.8391C91.6206 93.8391 92.2223 94.4408 92.2223 95.183C92.2223 95.9252 91.6206 96.5269 90.8784 96.5269C90.329 96.5269 89.8565 96.1972 89.6482 95.7249ZM83.0145 97.8228C82.8634 97.2459 82.3385 96.8203 81.7143 96.8203C80.9721 96.8203 80.3704 97.422 80.3704 98.1642C80.3704 98.9064 80.9721 99.5081 81.7143 99.5081C82.2614 99.5081 82.7321 99.1812 82.9418 98.7121L101.379 98.7121V94.6356L95.037 94.6356C94.7914 94.6356 94.5923 94.8347 94.5923 95.0802C94.5923 95.3258 94.7914 95.5249 95.037 95.5249L100.49 95.5249V97.8228L83.0145 97.8228ZM92.6531 103.998H101.803C102.012 103.529 102.483 103.202 103.03 103.202C103.772 103.202 104.374 103.804 104.374 104.546C104.374 105.288 103.772 105.89 103.03 105.89C102.406 105.89 101.881 105.464 101.73 104.887L93.5424 104.887V108.056L84.8465 108.056V113.958H93.3645C93.5179 113.385 94.0411 112.962 94.6629 112.962C95.4051 112.962 96.0068 113.564 96.0068 114.306C96.0068 115.048 95.4051 115.65 94.6629 115.65C94.1132 115.65 93.6406 115.32 93.4324 114.847H83.9573L83.9573 107.167L92.6531 107.167L92.6531 103.998ZM81.7143 98.6169C81.4643 98.6169 81.2616 98.4142 81.2616 98.1642C81.2616 97.9142 81.4643 97.7115 81.7143 97.7115C81.9643 97.7115 82.167 97.9142 82.167 98.1642C82.167 98.4142 81.9643 98.6169 81.7143 98.6169ZM103.03 104.093C102.78 104.093 102.577 104.296 102.577 104.546C102.577 104.796 102.78 104.999 103.03 104.999C103.28 104.999 103.483 104.796 103.483 104.546C103.483 104.296 103.28 104.093 103.03 104.093ZM82.2562 110.157C82.7285 109.949 83.0582 109.477 83.0582 108.927C83.0582 108.185 82.4565 107.583 81.7143 107.583C80.9721 107.583 80.3704 108.185 80.3704 108.927C80.3704 109.549 80.7931 110.073 81.3669 110.226V117.238H98.1461C98.1686 117.238 98.1907 117.236 98.2123 117.233C98.4193 117.708 98.8933 118.041 99.4449 118.041C100.187 118.041 100.789 117.439 100.789 116.697C100.789 115.954 100.187 115.353 99.4449 115.353C98.8231 115.353 98.2999 115.775 98.1466 116.349H98.1461H82.2562V110.157ZM97.0544 108.878C97.6045 108.878 98.0774 108.548 98.2853 108.074H99.8942V109.974H89.2079C88.9668 109.614 88.5563 109.377 88.0903 109.377C87.3481 109.377 86.7464 109.978 86.7464 110.72C86.7464 111.463 87.3481 112.064 88.0903 112.064C88.7843 112.064 89.3555 111.538 89.4267 110.863H100.783V107.185H98.3525C98.1988 106.612 97.6759 106.19 97.0544 106.19C96.3122 106.19 95.7105 106.792 95.7105 107.534C95.7105 108.276 96.3122 108.878 97.0544 108.878ZM87.8489 103.799C88.0571 103.327 88.5297 102.997 89.0793 102.997C89.8215 102.997 90.4232 103.599 90.4232 104.341C90.4232 105.083 89.8215 105.685 89.0793 105.685C88.4574 105.685 87.9341 105.262 87.7808 104.689H85.3521V101.011H96.7063C96.7769 100.335 97.3483 99.8079 98.0429 99.8079C98.7851 99.8079 99.3868 100.41 99.3868 101.152C99.3868 101.894 98.7851 102.496 98.0429 102.496C97.5775 102.496 97.1674 102.259 96.9262 101.9H86.2414V103.799H87.8489ZM103.127 94.6356C103.372 94.6356 103.572 94.8347 103.572 95.0804V99.3318C104.044 99.5401 104.374 100.013 104.374 100.562C104.374 101.304 103.772 101.906 103.03 101.906C102.288 101.906 101.686 101.304 101.686 100.562C101.686 99.9401 102.108 99.4169 102.682 99.2636V95.0804C102.682 94.8347 102.881 94.6356 103.127 94.6356ZM99.4449 116.244C99.1949 116.244 98.9922 116.447 98.9922 116.697C98.9922 116.947 99.1949 117.149 99.4449 117.149C99.6949 117.149 99.8976 116.947 99.8976 116.697C99.8976 116.447 99.6949 116.244 99.4449 116.244ZM102.577 100.562C102.577 100.312 102.78 100.109 103.03 100.109C103.28 100.109 103.483 100.312 103.483 100.562C103.483 100.812 103.28 101.015 103.03 101.015C102.78 101.015 102.577 100.812 102.577 100.562ZM103.23 108.674C102.98 108.674 102.778 108.877 102.778 109.127C102.778 109.377 102.98 109.579 103.23 109.579C103.48 109.579 103.683 109.377 103.683 109.127C103.683 108.877 103.48 108.674 103.23 108.674ZM88.0903 110.268C87.8403 110.268 87.6376 110.47 87.6376 110.72C87.6376 110.97 87.8403 111.173 88.0903 111.173C88.3403 111.173 88.543 110.97 88.543 110.72C88.543 110.47 88.3403 110.268 88.0903 110.268ZM98.4956 101.152C98.4956 101.402 98.2929 101.604 98.0429 101.604C97.7928 101.604 97.5901 101.402 97.5901 101.152C97.5901 100.902 97.7928 100.699 98.0429 100.699C98.2929 100.699 98.4956 100.902 98.4956 101.152ZM97.0544 107.081C96.8044 107.081 96.6017 107.284 96.6017 107.534C96.6017 107.784 96.8044 107.987 97.0544 107.987C97.3044 107.987 97.5071 107.784 97.5071 107.534C97.5071 107.284 97.3044 107.081 97.0544 107.081ZM89.532 104.341C89.532 104.591 89.3293 104.793 89.0793 104.793C88.8292 104.793 88.6265 104.591 88.6265 104.341C88.6265 104.091 88.8292 103.888 89.0793 103.888C89.3293 103.888 89.532 104.091 89.532 104.341ZM94.6629 113.853C94.4129 113.853 94.2102 114.056 94.2102 114.306C94.2102 114.556 94.4129 114.759 94.6629 114.759C94.9129 114.759 95.1156 114.556 95.1156 114.306C95.1156 114.056 94.9129 113.853 94.6629 113.853ZM81.2616 108.927C81.2616 108.677 81.4643 108.474 81.7143 108.474C81.9643 108.474 82.167 108.677 82.167 108.927C82.167 109.177 81.9643 109.38 81.7143 109.38C81.4643 109.38 81.2616 109.177 81.2616 108.927Z" fill="#10B981"/>
<path d="M122.575 128.52C115.331 128.52 109.458 122.946 109.458 116.07H135.692C135.692 122.946 129.82 128.52 122.575 128.52Z" fill="#111217"/>
<rect x="56.5465" y="116.071" width="66.2521" height="12.4501" fill="#111217"/>
<path d="M56.7687 128.52C49.5243 128.52 43.6516 122.946 43.6516 116.07H69.8857C69.8857 122.946 64.013 128.52 56.7687 128.52Z" fill="#DFDFDF"/>
<path fill-rule="evenodd" clip-rule="evenodd" d="M143.121 51.5969H153.256V61.5341C153.256 65.2101 151.834 68.7394 149.294 71.3861H145.539L148.045 72.6393L144.154 76.5303H140.392L142.9 77.7842L131.105 89.5793C128.437 92.2477 124.817 93.7468 121.044 93.7468H111.7L111.336 83.9184C111.19 79.9645 112.696 76.1283 115.494 73.3306L133.06 55.7644C135.728 53.096 139.348 51.5969 143.121 51.5969Z" fill="#10B981"/>
<path d="M152.127 51.5972L153.246 52.7166L101.473 104.49L99.2343 104.49L152.127 51.5972Z" fill="#111217"/>
</svg>
