<svg width="44" height="45" viewBox="0 0 44 45" fill="none" xmlns="http://www.w3.org/2000/svg">
<path d="M40 14.5359C41.0609 14.5359 42.0783 14.9574 42.8284 15.7075C43.5786 16.4577 44 17.4751 44 18.5359V26.5359C44 27.5968 43.5786 28.6142 42.8284 29.3644C42.0783 30.1145 41.0609 30.5359 40 30.5359H37.876C37.3884 34.4025 35.5065 37.9583 32.5835 40.5359C29.6605 43.1136 25.8972 44.5359 22 44.5359V40.5359C25.1826 40.5359 28.2348 39.2717 30.4853 37.0212C32.7357 34.7708 34 31.7185 34 28.5359V16.5359C34 13.3533 32.7357 10.3011 30.4853 8.05065C28.2348 5.80022 25.1826 4.53593 22 4.53593C18.8174 4.53593 15.7652 5.80022 13.5147 8.05065C11.2643 10.3011 10 13.3533 10 16.5359V30.5359H4C2.93913 30.5359 1.92172 30.1145 1.17157 29.3644C0.421427 28.6142 0 27.5968 0 26.5359V18.5359C0 17.4751 0.421427 16.4577 1.17157 15.7075C1.92172 14.9574 2.93913 14.5359 4 14.5359H6.124C6.61206 10.6697 8.49416 7.11448 11.4171 4.53729C14.3401 1.96009 18.1031 0.538086 22 0.538086C25.8969 0.538086 29.6599 1.96009 32.5829 4.53729C35.5058 7.11448 37.3879 10.6697 37.876 14.5359H40ZM13.52 30.1059L15.64 26.7139C17.5462 27.908 19.7507 28.5396 22 28.5359C24.2493 28.5396 26.4538 27.908 28.36 26.7139L30.48 30.1059C27.9385 31.6982 24.9991 32.5405 22 32.5359C19.0009 32.5405 16.0615 31.6982 13.52 30.1059Z" fill="#10B981"/>
</svg>
