<svg width="96" height="65" viewBox="0 0 96 65" fill="none" xmlns="http://www.w3.org/2000/svg">
<path d="M38.7211 9.73622L46.354 8.68014V16.079H38.7211M47.2926 8.56193L57.5097 7.03613V15.9607H47.2926M38.7211 16.9002H46.354V24.299L38.7211 23.2406M47.2926 16.9002H57.5097V25.8248L47.4108 24.4148" fill="#111217"/>
<path d="M17.0227 58.5359L13.8409 46.8995H15.2727L17.7045 56.3768H17.8182L20.2955 46.8995H21.8864L24.3636 56.3768H24.4773L26.9091 46.8995H28.3409L25.1591 58.5359H23.7045L21.1364 49.2632H21.0455L18.4773 58.5359H17.0227ZM29.9148 58.5359V49.8086H31.2557V58.5359H29.9148ZM30.5966 48.3541C30.3352 48.3541 30.1098 48.2651 29.9205 48.087C29.7348 47.909 29.642 47.695 29.642 47.445C29.642 47.195 29.7348 46.981 29.9205 46.8029C30.1098 46.6249 30.3352 46.5359 30.5966 46.5359C30.858 46.5359 31.0814 46.6249 31.267 46.8029C31.4564 46.981 31.5511 47.195 31.5511 47.445C31.5511 47.695 31.4564 47.909 31.267 48.087C31.0814 48.2651 30.858 48.3541 30.5966 48.3541ZM35.0526 53.2859V58.5359H33.7116V49.8086H35.0071V51.1723H35.1207C35.3253 50.7291 35.6359 50.373 36.0526 50.1041C36.4692 49.8313 37.0071 49.695 37.6662 49.695C38.2571 49.695 38.7741 49.8162 39.2173 50.0586C39.6605 50.2973 40.0052 50.6609 40.2514 51.1495C40.4976 51.6344 40.6207 52.248 40.6207 52.9904V58.5359H39.2798V53.0813C39.2798 52.3957 39.1018 51.8616 38.7457 51.4791C38.3897 51.0927 37.901 50.8995 37.2798 50.8995C36.8518 50.8995 36.4692 50.9923 36.1321 51.1779C35.7988 51.3635 35.5355 51.6344 35.3423 51.9904C35.1491 52.3465 35.0526 52.7783 35.0526 53.2859ZM46.3665 58.7177C45.6392 58.7177 44.9972 58.534 44.4403 58.1666C43.8835 57.7954 43.4479 57.2726 43.1335 56.5984C42.8191 55.9204 42.6619 55.1192 42.6619 54.195C42.6619 53.2783 42.8191 52.4829 43.1335 51.8086C43.4479 51.1344 43.8854 50.6135 44.446 50.2461C45.0066 49.8787 45.6544 49.695 46.3892 49.695C46.9574 49.695 47.4063 49.7897 47.7358 49.9791C48.0691 50.1647 48.3229 50.3768 48.4972 50.6154C48.6752 50.8503 48.8134 51.0435 48.9119 51.195H49.0256V46.8995H50.3665V58.5359H49.071V57.195H48.9119C48.8134 57.3541 48.6733 57.5548 48.4915 57.7973C48.3097 58.0359 48.0502 58.2499 47.7131 58.4393C47.3759 58.6249 46.9271 58.7177 46.3665 58.7177ZM46.5483 57.5132C47.0862 57.5132 47.5407 57.373 47.9119 57.0927C48.2831 56.8086 48.5653 56.4166 48.7585 55.9166C48.9517 55.4128 49.0483 54.8313 49.0483 54.1723C49.0483 53.5207 48.9536 52.9507 48.7642 52.462C48.5748 51.9696 48.2945 51.587 47.9233 51.3143C47.5521 51.0378 47.0938 50.8995 46.5483 50.8995C45.9801 50.8995 45.5066 51.0454 45.1278 51.337C44.7528 51.6249 44.4706 52.0169 44.2812 52.5132C44.0956 53.0056 44.0028 53.5586 44.0028 54.1723C44.0028 54.7935 44.0975 55.3579 44.2869 55.8654C44.4801 56.3692 44.7642 56.7707 45.1392 57.07C45.518 57.3654 45.9877 57.5132 46.5483 57.5132ZM56.554 58.7177C55.7661 58.7177 55.0748 58.5302 54.4801 58.1552C53.8892 57.7802 53.4271 57.2556 53.0938 56.5813C52.7642 55.9071 52.5994 55.1192 52.5994 54.2177C52.5994 53.3086 52.7642 52.5151 53.0938 51.837C53.4271 51.159 53.8892 50.6325 54.4801 50.2575C55.0748 49.8825 55.7661 49.695 56.554 49.695C57.3419 49.695 58.0313 49.8825 58.6222 50.2575C59.2169 50.6325 59.679 51.159 60.0085 51.837C60.3419 52.5151 60.5085 53.3086 60.5085 54.2177C60.5085 55.1192 60.3419 55.9071 60.0085 56.5813C59.679 57.2556 59.2169 57.7802 58.6222 58.1552C58.0313 58.5302 57.3419 58.7177 56.554 58.7177ZM56.554 57.5132C57.1525 57.5132 57.6449 57.3598 58.0312 57.0529C58.4176 56.7461 58.7036 56.3427 58.8892 55.8427C59.0748 55.3427 59.1676 54.801 59.1676 54.2177C59.1676 53.6344 59.0748 53.0908 58.8892 52.587C58.7036 52.0832 58.4176 51.676 58.0312 51.3654C57.6449 51.0548 57.1525 50.8995 56.554 50.8995C55.9555 50.8995 55.4631 51.0548 55.0767 51.3654C54.6903 51.676 54.4044 52.0832 54.2188 52.587C54.0331 53.0908 53.9403 53.6344 53.9403 54.2177C53.9403 54.801 54.0331 55.3427 54.2188 55.8427C54.4044 56.3427 54.6903 56.7461 55.0767 57.0529C55.4631 57.3598 55.9555 57.5132 56.554 57.5132ZM64.2358 58.5359L61.5767 49.8086H62.9858L64.8722 56.4904H64.9631L66.8267 49.8086H68.2585L70.0994 56.4677H70.1903L72.0767 49.8086H73.4858L70.8267 58.5359H69.5085L67.5994 51.8313H67.4631L65.554 58.5359H64.2358ZM81.4403 51.7632L80.2358 52.1041C80.16 51.9033 80.0483 51.7082 79.9006 51.5188C79.7566 51.3257 79.5597 51.1666 79.3097 51.0416C79.0597 50.9166 78.7396 50.8541 78.3494 50.8541C77.8153 50.8541 77.3703 50.9772 77.0142 51.2234C76.6619 51.4658 76.4858 51.7745 76.4858 52.1495C76.4858 52.4829 76.607 52.7461 76.8494 52.9393C77.0919 53.1325 77.4706 53.2935 77.9858 53.4223L79.2812 53.7404C80.0616 53.9298 80.643 54.2196 81.0256 54.6098C81.4081 54.9961 81.5994 55.4942 81.5994 56.1041C81.5994 56.6041 81.4555 57.051 81.1676 57.445C80.8835 57.8389 80.4858 58.1495 79.9744 58.3768C79.4631 58.6041 78.8684 58.7177 78.1903 58.7177C77.3002 58.7177 76.5634 58.5245 75.9801 58.1382C75.3968 57.7518 75.0275 57.1874 74.8722 56.445L76.1449 56.1268C76.2661 56.5965 76.4953 56.9488 76.8324 57.1836C77.1733 57.4185 77.6184 57.5359 78.1676 57.5359C78.7926 57.5359 79.2888 57.4033 79.6562 57.1382C80.0275 56.8692 80.2131 56.5473 80.2131 56.1723C80.2131 55.8692 80.107 55.6154 79.8949 55.4109C79.6828 55.2026 79.357 55.0473 78.9176 54.945L77.4631 54.6041C76.6638 54.4147 76.0767 54.1211 75.7017 53.7234C75.3305 53.3219 75.1449 52.82 75.1449 52.2177C75.1449 51.7253 75.2831 51.2897 75.5597 50.9109C75.84 50.5321 76.2206 50.2348 76.7017 50.0188C77.1866 49.8029 77.7358 49.695 78.3494 49.695C79.2131 49.695 79.8911 49.8844 80.3835 50.2632C80.8797 50.6419 81.232 51.1419 81.4403 51.7632Z" fill="#111217"/>
</svg>
